<svg xmlns="http://www.w3.org/2000/svg" version="1.1">
<rect x="25.0" y="25.0" width="400.0" height="400.0" fill="GRAY" />
<rect x="25.0" y="25.0" width="25.0" height="25.0" fill="rgb(255,255,255)" />
<rect x="25.0" y="50.0" width="25.0" height="25.0" fill="rgb(0,0,0)" />
<rect x="25.0" y="75.0" width="25.0" height="25.0" fill="rgb(255,255,255)" />
<rect x="25.0" y="100.0" width="25.0" height="25.0" fill="rgb(0,0,0)" />
<rect x="25.0" y="125.0" width="25.0" height="25.0" fill="rgb(255,255,255)" />
<rect x="25.0" y="150.0" width="25.0" height="25.0" fill="rgb(0,0,0)" />
<rect x="25.0" y="175.0" width="25.0" height="25.0" fill="rgb(255,255,255)" />
<rect x="25.0" y="200.0" width="25.0" height="25.0" fill="rgb(0,0,0)" />
<rect x="25.0" y="225.0" width="25.0" height="25.0" fill="rgb(255,255,255)" />
<rect x="25.0" y="250.0" width="25.0" height="25.0" fill="rgb(0,0,0)" />
<rect x="25.0" y="275.0" width="25.0" height="25.0" fill="rgb(255,255,255)" />
<rect x="25.0" y="300.0" width="25.0" height="25.0" fill="rgb(0,0,0)" />
<rect x="25.0" y="325.0" width="25.0" height="25.0" fill="rgb(255,255,255)" />
<rect x="25.0" y="350.0" width="25.0" height="25.0" fill="rgb(0,0,0)" />
<rect x="25.0" y="375.0" width="25.0" height="25.0" fill="rgb(255,255,255)" />
<rect x="25.0" y="400.0" width="25.0" height="25.0" fill="rgb(0,0,0)" />
<rect x="50.0" y="25.0" width="25.0" height="25.0" fill="rgb(0,0,0)" />
<rect x="50.0" y="50.0" width="25.0" height="25.0" fill="rgb(255,255,255)" />
<rect x="50.0" y="75.0" width="25.0" height="25.0" fill="rgb(0,0,0)" />
<rect x="50.0" y="100.0" width="25.0" height="25.0" fill="rgb(255,255,255)" />
<rect x="50.0" y="125.0" width="25.0" height="25.0" fill="rgb(0,0,0)" />
<rect x="50.0" y="150.0" width="25.0" height="25.0" fill="rgb(255,255,255)" />
<rect x="50.0" y="175.0" width="25.0" height="25.0" fill="rgb(0,0,0)" />
<rect x="50.0" y="200.0" width="25.0" height="25.0" fill="rgb(255,255,255)" />
<rect x="50.0" y="225.0" width="25.0" height="25.0" fill="rgb(0,0,0)" />
<rect x="50.0" y="250.0" width="25.0" height="25.0" fill="rgb(255,255,255)" />
<rect x="50.0" y="275.0" width="25.0" height="25.0" fill="rgb(0,0,0)" />
<rect x="50.0" y="300.0" width="25.0" height="25.0" fill="rgb(255,255,255)" />
<rect x="50.0" y="325.0" width="25.0" height="25.0" fill="rgb(0,0,0)" />
<rect x="50.0" y="350.0" width="25.0" height="25.0" fill="rgb(255,255,255)" />
<rect x="50.0" y="375.0" width="25.0" height="25.0" fill="rgb(0,0,0)" />
<rect x="50.0" y="400.0" width="25.0" height="25.0" fill="rgb(255,255,255)" />
<rect x="75.0" y="25.0" width="25.0" height="25.0" fill="rgb(255,255,255)" />
<rect x="75.0" y="50.0" width="25.0" height="25.0" fill="rgb(0,0,0)" />
<rect x="75.0" y="75.0" width="25.0" height="25.0" fill="rgb(255,255,255)" />
<rect x="75.0" y="100.0" width="25.0" height="25.0" fill="rgb(0,0,0)" />
<rect x="75.0" y="125.0" width="25.0" height="25.0" fill="rgb(255,255,255)" />
<rect x="75.0" y="150.0" width="25.0" height="25.0" fill="rgb(0,0,0)" />
<rect x="75.0" y="175.0" width="25.0" height="25.0" fill="rgb(255,255,255)" />
<rect x="75.0" y="200.0" width="25.0" height="25.0" fill="rgb(0,0,0)" />
<rect x="75.0" y="225.0" width="25.0" height="25.0" fill="rgb(255,255,255)" />
<rect x="75.0" y="250.0" width="25.0" height="25.0" fill="rgb(0,0,0)" />
<rect x="75.0" y="275.0" width="25.0" height="25.0" fill="rgb(255,255,255)" />
<rect x="75.0" y="300.0" width="25.0" height="25.0" fill="rgb(0,0,0)" />
<rect x="75.0" y="325.0" width="25.0" height="25.0" fill="rgb(255,255,255)" />
<rect x="75.0" y="350.0" width="25.0" height="25.0" fill="rgb(0,0,0)" />
<rect x="75.0" y="375.0" width="25.0" height="25.0" fill="rgb(255,255,255)" />
<rect x="75.0" y="400.0" width="25.0" height="25.0" fill="rgb(0,0,0)" />
<rect x="100.0" y="25.0" width="25.0" height="25.0" fill="rgb(0,0,0)" />
<rect x="100.0" y="50.0" width="25.0" height="25.0" fill="rgb(255,255,255)" />
<rect x="100.0" y="75.0" width="25.0" height="25.0" fill="rgb(0,0,0)" />
<rect x="100.0" y="100.0" width="25.0" height="25.0" fill="rgb(255,255,255)" />
<rect x="100.0" y="125.0" width="25.0" height="25.0" fill="rgb(0,0,0)" />
<rect x="100.0" y="150.0" width="25.0" height="25.0" fill="rgb(255,255,255)" />
<rect x="100.0" y="175.0" width="25.0" height="25.0" fill="rgb(0,0,0)" />
<rect x="100.0" y="200.0" width="25.0" height="25.0" fill="rgb(255,255,255)" />
<rect x="100.0" y="225.0" width="25.0" height="25.0" fill="rgb(0,0,0)" />
<rect x="100.0" y="250.0" width="25.0" height="25.0" fill="rgb(255,255,255)" />
<rect x="100.0" y="275.0" width="25.0" height="25.0" fill="rgb(0,0,0)" />
<rect x="100.0" y="300.0" width="25.0" height="25.0" fill="rgb(255,255,255)" />
<rect x="100.0" y="325.0" width="25.0" height="25.0" fill="rgb(0,0,0)" />
<rect x="100.0" y="350.0" width="25.0" height="25.0" fill="rgb(255,255,255)" />
<rect x="100.0" y="375.0" width="25.0" height="25.0" fill="rgb(0,0,0)" />
<rect x="100.0" y="400.0" width="25.0" height="25.0" fill="rgb(255,255,255)" />
<rect x="125.0" y="25.0" width="25.0" height="25.0" fill="rgb(255,255,255)" />
<rect x="125.0" y="50.0" width="25.0" height="25.0" fill="rgb(0,0,0)" />
<rect x="125.0" y="75.0" width="25.0" height="25.0" fill="rgb(255,255,255)" />
<rect x="125.0" y="100.0" width="25.0" height="25.0" fill="rgb(0,0,0)" />
<rect x="125.0" y="125.0" width="25.0" height="25.0" fill="rgb(255,255,255)" />
<rect x="125.0" y="150.0" width="25.0" height="25.0" fill="rgb(0,0,0)" />
<rect x="125.0" y="175.0" width="25.0" height="25.0" fill="rgb(255,255,255)" />
<rect x="125.0" y="200.0" width="25.0" height="25.0" fill="rgb(0,0,0)" />
<rect x="125.0" y="225.0" width="25.0" height="25.0" fill="rgb(255,255,255)" />
<rect x="125.0" y="250.0" width="25.0" height="25.0" fill="rgb(0,0,0)" />
<rect x="125.0" y="275.0" width="25.0" height="25.0" fill="rgb(255,255,255)" />
<rect x="125.0" y="300.0" width="25.0" height="25.0" fill="rgb(0,0,0)" />
<rect x="125.0" y="325.0" width="25.0" height="25.0" fill="rgb(255,255,255)" />
<rect x="125.0" y="350.0" width="25.0" height="25.0" fill="rgb(0,0,0)" />
<rect x="125.0" y="375.0" width="25.0" height="25.0" fill="rgb(255,255,255)" />
<rect x="125.0" y="400.0" width="25.0" height="25.0" fill="rgb(0,0,0)" />
<rect x="150.0" y="25.0" width="25.0" height="25.0" fill="rgb(0,0,0)" />
<rect x="150.0" y="50.0" width="25.0" height="25.0" fill="rgb(255,255,255)" />
<rect x="150.0" y="75.0" width="25.0" height="25.0" fill="rgb(0,0,0)" />
<rect x="150.0" y="100.0" width="25.0" height="25.0" fill="rgb(255,255,255)" />
<rect x="150.0" y="125.0" width="25.0" height="25.0" fill="rgb(0,0,0)" />
<rect x="150.0" y="150.0" width="25.0" height="25.0" fill="rgb(255,255,255)" />
<rect x="150.0" y="175.0" width="25.0" height="25.0" fill="rgb(0,0,0)" />
<rect x="150.0" y="200.0" width="25.0" height="25.0" fill="rgb(255,255,255)" />
<rect x="150.0" y="225.0" width="25.0" height="25.0" fill="rgb(0,0,0)" />
<rect x="150.0" y="250.0" width="25.0" height="25.0" fill="rgb(255,255,255)" />
<rect x="150.0" y="275.0" width="25.0" height="25.0" fill="rgb(0,0,0)" />
<rect x="150.0" y="300.0" width="25.0" height="25.0" fill="rgb(255,255,255)" />
<rect x="150.0" y="325.0" width="25.0" height="25.0" fill="rgb(0,0,0)" />
<rect x="150.0" y="350.0" width="25.0" height="25.0" fill="rgb(255,255,255)" />
<rect x="150.0" y="375.0" width="25.0" height="25.0" fill="rgb(0,0,0)" />
<rect x="150.0" y="400.0" width="25.0" height="25.0" fill="rgb(255,255,255)" />
<rect x="175.0" y="25.0" width="25.0" height="25.0" fill="rgb(255,255,255)" />
<rect x="175.0" y="50.0" width="25.0" height="25.0" fill="rgb(0,0,0)" />
<rect x="175.0" y="75.0" width="25.0" height="25.0" fill="rgb(255,255,255)" />
<rect x="175.0" y="100.0" width="25.0" height="25.0" fill="rgb(0,0,0)" />
<rect x="175.0" y="125.0" width="25.0" height="25.0" fill="rgb(255,255,255)" />
<rect x="175.0" y="150.0" width="25.0" height="25.0" fill="rgb(0,0,0)" />
<rect x="175.0" y="175.0" width="25.0" height="25.0" fill="rgb(255,255,255)" />
<rect x="175.0" y="200.0" width="25.0" height="25.0" fill="rgb(0,0,0)" />
<rect x="175.0" y="225.0" width="25.0" height="25.0" fill="rgb(255,255,255)" />
<rect x="175.0" y="250.0" width="25.0" height="25.0" fill="rgb(0,0,0)" />
<rect x="175.0" y="275.0" width="25.0" height="25.0" fill="rgb(255,255,255)" />
<rect x="175.0" y="300.0" width="25.0" height="25.0" fill="rgb(0,0,0)" />
<rect x="175.0" y="325.0" width="25.0" height="25.0" fill="rgb(255,255,255)" />
<rect x="175.0" y="350.0" width="25.0" height="25.0" fill="rgb(0,0,0)" />
<rect x="175.0" y="375.0" width="25.0" height="25.0" fill="rgb(255,255,255)" />
<rect x="175.0" y="400.0" width="25.0" height="25.0" fill="rgb(0,0,0)" />
<rect x="200.0" y="25.0" width="25.0" height="25.0" fill="rgb(0,0,0)" />
<rect x="200.0" y="50.0" width="25.0" height="25.0" fill="rgb(255,255,255)" />
<rect x="200.0" y="75.0" width="25.0" height="25.0" fill="rgb(0,0,0)" />
<rect x="200.0" y="100.0" width="25.0" height="25.0" fill="rgb(255,255,255)" />
<rect x="200.0" y="125.0" width="25.0" height="25.0" fill="rgb(0,0,0)" />
<rect x="200.0" y="150.0" width="25.0" height="25.0" fill="rgb(255,255,255)" />
<rect x="200.0" y="175.0" width="25.0" height="25.0" fill="rgb(0,0,0)" />
<rect x="200.0" y="200.0" width="25.0" height="25.0" fill="rgb(255,255,255)" />
<rect x="200.0" y="225.0" width="25.0" height="25.0" fill="rgb(0,0,0)" />
<rect x="200.0" y="250.0" width="25.0" height="25.0" fill="rgb(255,255,255)" />
<rect x="200.0" y="275.0" width="25.0" height="25.0" fill="rgb(0,0,0)" />
<rect x="200.0" y="300.0" width="25.0" height="25.0" fill="rgb(255,255,255)" />
<rect x="200.0" y="325.0" width="25.0" height="25.0" fill="rgb(0,0,0)" />
<rect x="200.0" y="350.0" width="25.0" height="25.0" fill="rgb(255,255,255)" />
<rect x="200.0" y="375.0" width="25.0" height="25.0" fill="rgb(0,0,0)" />
<rect x="200.0" y="400.0" width="25.0" height="25.0" fill="rgb(255,255,255)" />
<rect x="225.0" y="25.0" width="25.0" height="25.0" fill="rgb(255,255,255)" />
<rect x="225.0" y="50.0" width="25.0" height="25.0" fill="rgb(0,0,0)" />
<rect x="225.0" y="75.0" width="25.0" height="25.0" fill="rgb(255,255,255)" />
<rect x="225.0" y="100.0" width="25.0" height="25.0" fill="rgb(0,0,0)" />
<rect x="225.0" y="125.0" width="25.0" height="25.0" fill="rgb(255,255,255)" />
<rect x="225.0" y="150.0" width="25.0" height="25.0" fill="rgb(0,0,0)" />
<rect x="225.0" y="175.0" width="25.0" height="25.0" fill="rgb(255,255,255)" />
<rect x="225.0" y="200.0" width="25.0" height="25.0" fill="rgb(0,0,0)" />
<rect x="225.0" y="225.0" width="25.0" height="25.0" fill="rgb(255,255,255)" />
<rect x="225.0" y="250.0" width="25.0" height="25.0" fill="rgb(0,0,0)" />
<rect x="225.0" y="275.0" width="25.0" height="25.0" fill="rgb(255,255,255)" />
<rect x="225.0" y="300.0" width="25.0" height="25.0" fill="rgb(0,0,0)" />
<rect x="225.0" y="325.0" width="25.0" height="25.0" fill="rgb(255,255,255)" />
<rect x="225.0" y="350.0" width="25.0" height="25.0" fill="rgb(0,0,0)" />
<rect x="225.0" y="375.0" width="25.0" height="25.0" fill="rgb(255,255,255)" />
<rect x="225.0" y="400.0" width="25.0" height="25.0" fill="rgb(0,0,0)" />
<rect x="250.0" y="25.0" width="25.0" height="25.0" fill="rgb(0,0,0)" />
<rect x="250.0" y="50.0" width="25.0" height="25.0" fill="rgb(255,255,255)" />
<rect x="250.0" y="75.0" width="25.0" height="25.0" fill="rgb(0,0,0)" />
<rect x="250.0" y="100.0" width="25.0" height="25.0" fill="rgb(255,255,255)" />
<rect x="250.0" y="125.0" width="25.0" height="25.0" fill="rgb(0,0,0)" />
<rect x="250.0" y="150.0" width="25.0" height="25.0" fill="rgb(255,255,255)" />
<rect x="250.0" y="175.0" width="25.0" height="25.0" fill="rgb(0,0,0)" />
<rect x="250.0" y="200.0" width="25.0" height="25.0" fill="rgb(255,255,255)" />
<rect x="250.0" y="225.0" width="25.0" height="25.0" fill="rgb(0,0,0)" />
<rect x="250.0" y="250.0" width="25.0" height="25.0" fill="rgb(255,255,255)" />
<rect x="250.0" y="275.0" width="25.0" height="25.0" fill="rgb(0,0,0)" />
<rect x="250.0" y="300.0" width="25.0" height="25.0" fill="rgb(255,255,255)" />
<rect x="250.0" y="325.0" width="25.0" height="25.0" fill="rgb(0,0,0)" />
<rect x="250.0" y="350.0" width="25.0" height="25.0" fill="rgb(255,255,255)" />
<rect x="250.0" y="375.0" width="25.0" height="25.0" fill="rgb(0,0,0)" />
<rect x="250.0" y="400.0" width="25.0" height="25.0" fill="rgb(255,255,255)" />
<rect x="275.0" y="25.0" width="25.0" height="25.0" fill="rgb(255,255,255)" />
<rect x="275.0" y="50.0" width="25.0" height="25.0" fill="rgb(0,0,0)" />
<rect x="275.0" y="75.0" width="25.0" height="25.0" fill="rgb(255,255,255)" />
<rect x="275.0" y="100.0" width="25.0" height="25.0" fill="rgb(0,0,0)" />
<rect x="275.0" y="125.0" width="25.0" height="25.0" fill="rgb(255,255,255)" />
<rect x="275.0" y="150.0" width="25.0" height="25.0" fill="rgb(0,0,0)" />
<rect x="275.0" y="175.0" width="25.0" height="25.0" fill="rgb(255,255,255)" />
<rect x="275.0" y="200.0" width="25.0" height="25.0" fill="rgb(0,0,0)" />
<rect x="275.0" y="225.0" width="25.0" height="25.0" fill="rgb(255,255,255)" />
<rect x="275.0" y="250.0" width="25.0" height="25.0" fill="rgb(0,0,0)" />
<rect x="275.0" y="275.0" width="25.0" height="25.0" fill="rgb(255,255,255)" />
<rect x="275.0" y="300.0" width="25.0" height="25.0" fill="rgb(0,0,0)" />
<rect x="275.0" y="325.0" width="25.0" height="25.0" fill="rgb(255,255,255)" />
<rect x="275.0" y="350.0" width="25.0" height="25.0" fill="rgb(0,0,0)" />
<rect x="275.0" y="375.0" width="25.0" height="25.0" fill="rgb(255,255,255)" />
<rect x="275.0" y="400.0" width="25.0" height="25.0" fill="rgb(0,0,0)" />
<rect x="300.0" y="25.0" width="25.0" height="25.0" fill="rgb(0,0,0)" />
<rect x="300.0" y="50.0" width="25.0" height="25.0" fill="rgb(255,255,255)" />
<rect x="300.0" y="75.0" width="25.0" height="25.0" fill="rgb(0,0,0)" />
<rect x="300.0" y="100.0" width="25.0" height="25.0" fill="rgb(255,255,255)" />
<rect x="300.0" y="125.0" width="25.0" height="25.0" fill="rgb(0,0,0)" />
<rect x="300.0" y="150.0" width="25.0" height="25.0" fill="rgb(255,255,255)" />
<rect x="300.0" y="175.0" width="25.0" height="25.0" fill="rgb(0,0,0)" />
<rect x="300.0" y="200.0" width="25.0" height="25.0" fill="rgb(255,255,255)" />
<rect x="300.0" y="225.0" width="25.0" height="25.0" fill="rgb(0,0,0)" />
<rect x="300.0" y="250.0" width="25.0" height="25.0" fill="rgb(255,255,255)" />
<rect x="300.0" y="275.0" width="25.0" height="25.0" fill="rgb(0,0,0)" />
<rect x="300.0" y="300.0" width="25.0" height="25.0" fill="rgb(255,255,255)" />
<rect x="300.0" y="325.0" width="25.0" height="25.0" fill="rgb(0,0,0)" />
<rect x="300.0" y="350.0" width="25.0" height="25.0" fill="rgb(255,255,255)" />
<rect x="300.0" y="375.0" width="25.0" height="25.0" fill="rgb(0,0,0)" />
<rect x="300.0" y="400.0" width="25.0" height="25.0" fill="rgb(255,255,255)" />
<rect x="325.0" y="25.0" width="25.0" height="25.0" fill="rgb(255,255,255)" />
<rect x="325.0" y="50.0" width="25.0" height="25.0" fill="rgb(0,0,0)" />
<rect x="325.0" y="75.0" width="25.0" height="25.0" fill="rgb(255,255,255)" />
<rect x="325.0" y="100.0" width="25.0" height="25.0" fill="rgb(0,0,0)" />
<rect x="325.0" y="125.0" width="25.0" height="25.0" fill="rgb(255,255,255)" />
<rect x="325.0" y="150.0" width="25.0" height="25.0" fill="rgb(0,0,0)" />
<rect x="325.0" y="175.0" width="25.0" height="25.0" fill="rgb(255,255,255)" />
<rect x="325.0" y="200.0" width="25.0" height="25.0" fill="rgb(0,0,0)" />
<rect x="325.0" y="225.0" width="25.0" height="25.0" fill="rgb(255,255,255)" />
<rect x="325.0" y="250.0" width="25.0" height="25.0" fill="rgb(0,0,0)" />
<rect x="325.0" y="275.0" width="25.0" height="25.0" fill="rgb(255,255,255)" />
<rect x="325.0" y="300.0" width="25.0" height="25.0" fill="rgb(0,0,0)" />
<rect x="325.0" y="325.0" width="25.0" height="25.0" fill="rgb(255,255,255)" />
<rect x="325.0" y="350.0" width="25.0" height="25.0" fill="rgb(0,0,0)" />
<rect x="325.0" y="375.0" width="25.0" height="25.0" fill="rgb(255,255,255)" />
<rect x="325.0" y="400.0" width="25.0" height="25.0" fill="rgb(0,0,0)" />
<rect x="350.0" y="25.0" width="25.0" height="25.0" fill="rgb(0,0,0)" />
<rect x="350.0" y="50.0" width="25.0" height="25.0" fill="rgb(255,255,255)" />
<rect x="350.0" y="75.0" width="25.0" height="25.0" fill="rgb(0,0,0)" />
<rect x="350.0" y="100.0" width="25.0" height="25.0" fill="rgb(255,255,255)" />
<rect x="350.0" y="125.0" width="25.0" height="25.0" fill="rgb(0,0,0)" />
<rect x="350.0" y="150.0" width="25.0" height="25.0" fill="rgb(255,255,255)" />
<rect x="350.0" y="175.0" width="25.0" height="25.0" fill="rgb(0,0,0)" />
<rect x="350.0" y="200.0" width="25.0" height="25.0" fill="rgb(255,255,255)" />
<rect x="350.0" y="225.0" width="25.0" height="25.0" fill="rgb(0,0,0)" />
<rect x="350.0" y="250.0" width="25.0" height="25.0" fill="rgb(255,255,255)" />
<rect x="350.0" y="275.0" width="25.0" height="25.0" fill="rgb(0,0,0)" />
<rect x="350.0" y="300.0" width="25.0" height="25.0" fill="rgb(255,255,255)" />
<rect x="350.0" y="325.0" width="25.0" height="25.0" fill="rgb(0,0,0)" />
<rect x="350.0" y="350.0" width="25.0" height="25.0" fill="rgb(255,255,255)" />
<rect x="350.0" y="375.0" width="25.0" height="25.0" fill="rgb(0,0,0)" />
<rect x="350.0" y="400.0" width="25.0" height="25.0" fill="rgb(255,255,255)" />
<rect x="375.0" y="25.0" width="25.0" height="25.0" fill="rgb(255,255,255)" />
<rect x="375.0" y="50.0" width="25.0" height="25.0" fill="rgb(0,0,0)" />
<rect x="375.0" y="75.0" width="25.0" height="25.0" fill="rgb(255,255,255)" />
<rect x="375.0" y="100.0" width="25.0" height="25.0" fill="rgb(0,0,0)" />
<rect x="375.0" y="125.0" width="25.0" height="25.0" fill="rgb(255,255,255)" />
<rect x="375.0" y="150.0" width="25.0" height="25.0" fill="rgb(0,0,0)" />
<rect x="375.0" y="175.0" width="25.0" height="25.0" fill="rgb(255,255,255)" />
<rect x="375.0" y="200.0" width="25.0" height="25.0" fill="rgb(0,0,0)" />
<rect x="375.0" y="225.0" width="25.0" height="25.0" fill="rgb(255,255,255)" />
<rect x="375.0" y="250.0" width="25.0" height="25.0" fill="rgb(0,0,0)" />
<rect x="375.0" y="275.0" width="25.0" height="25.0" fill="rgb(255,255,255)" />
<rect x="375.0" y="300.0" width="25.0" height="25.0" fill="rgb(0,0,0)" />
<rect x="375.0" y="325.0" width="25.0" height="25.0" fill="rgb(255,255,255)" />
<rect x="375.0" y="350.0" width="25.0" height="25.0" fill="rgb(0,0,0)" />
<rect x="375.0" y="375.0" width="25.0" height="25.0" fill="rgb(255,255,255)" />
<rect x="375.0" y="400.0" width="25.0" height="25.0" fill="rgb(0,0,0)" />
<rect x="400.0" y="25.0" width="25.0" height="25.0" fill="rgb(0,0,0)" />
<rect x="400.0" y="50.0" width="25.0" height="25.0" fill="rgb(255,255,255)" />
<rect x="400.0" y="75.0" width="25.0" height="25.0" fill="rgb(0,0,0)" />
<rect x="400.0" y="100.0" width="25.0" height="25.0" fill="rgb(255,255,255)" />
<rect x="400.0" y="125.0" width="25.0" height="25.0" fill="rgb(0,0,0)" />
<rect x="400.0" y="150.0" width="25.0" height="25.0" fill="rgb(255,255,255)" />
<rect x="400.0" y="175.0" width="25.0" height="25.0" fill="rgb(0,0,0)" />
<rect x="400.0" y="200.0" width="25.0" height="25.0" fill="rgb(255,255,255)" />
<rect x="400.0" y="225.0" width="25.0" height="25.0" fill="rgb(0,0,0)" />
<rect x="400.0" y="250.0" width="25.0" height="25.0" fill="rgb(255,255,255)" />
<rect x="400.0" y="275.0" width="25.0" height="25.0" fill="rgb(0,0,0)" />
<rect x="400.0" y="300.0" width="25.0" height="25.0" fill="rgb(255,255,255)" />
<rect x="400.0" y="325.0" width="25.0" height="25.0" fill="rgb(0,0,0)" />
<rect x="400.0" y="350.0" width="25.0" height="25.0" fill="rgb(255,255,255)" />
<rect x="400.0" y="375.0" width="25.0" height="25.0" fill="rgb(0,0,0)" />
<rect x="400.0" y="400.0" width="25.0" height="25.0" fill="rgb(255,255,255)" />
<circle  cx="347.92438675516667" cy="331.79167068092625" r="8.163999233509433" fill="RED" />
<circle  cx="294.23875727649056" cy="338.1808738513982" r="8.677341967356991" fill="RED" />
<circle  cx="308.0164778984848" cy="317.6272488181006" r="8.73777155232883" fill="RED" />
<circle  cx="356.38055887305524" cy="307.23671040773695" r="8.251207185567695" fill="RED" />
<circle  cx="315.6390544016137" cy="298.1217474400544" r="9.0650653102118" fill="RED" />
<circle  cx="314.8157346632927" cy="353.64198206280815" r="8.98605260147119" fill="RED" />
<circle  cx="331.3876741217188" cy="323.35255539435144" r="8.675811206170165" fill="RED" />
<circle  cx="339.24997851721207" cy="352.4468497044754" r="8.239000110956349" fill="RED" />
</svg>
