<svg xmlns="http://www.w3.org/2000/svg" version="1.1">
<rect x="25.0" y="25.0" width="400.0" height="400.0" fill="GRAY" />
<rect x="25.0" y="25.0" width="25.0" height="25.0" fill="rgb(2,2,2)" />
<rect x="25.0" y="50.0" width="25.0" height="25.0" fill="rgb(2,2,2)" />
<rect x="25.0" y="75.0" width="25.0" height="25.0" fill="rgb(2,2,2)" />
<rect x="25.0" y="100.0" width="25.0" height="25.0" fill="rgb(2,2,2)" />
<rect x="25.0" y="125.0" width="25.0" height="25.0" fill="rgb(2,2,2)" />
<rect x="25.0" y="150.0" width="25.0" height="25.0" fill="rgb(2,2,2)" />
<rect x="25.0" y="175.0" width="25.0" height="25.0" fill="rgb(2,2,2)" />
<rect x="25.0" y="200.0" width="25.0" height="25.0" fill="rgb(2,2,2)" />
<rect x="25.0" y="225.0" width="25.0" height="25.0" fill="rgb(2,2,2)" />
<rect x="25.0" y="250.0" width="25.0" height="25.0" fill="rgb(2,2,2)" />
<rect x="25.0" y="275.0" width="25.0" height="25.0" fill="rgb(2,2,2)" />
<rect x="25.0" y="300.0" width="25.0" height="25.0" fill="rgb(2,2,2)" />
<rect x="25.0" y="325.0" width="25.0" height="25.0" fill="rgb(2,2,2)" />
<rect x="25.0" y="350.0" width="25.0" height="25.0" fill="rgb(2,2,2)" />
<rect x="25.0" y="375.0" width="25.0" height="25.0" fill="rgb(2,2,2)" />
<rect x="25.0" y="400.0" width="25.0" height="25.0" fill="rgb(2,2,2)" />
<rect x="50.0" y="25.0" width="25.0" height="25.0" fill="rgb(2,2,2)" />
<rect x="50.0" y="50.0" width="25.0" height="25.0" fill="rgb(2,2,2)" />
<rect x="50.0" y="75.0" width="25.0" height="25.0" fill="rgb(2,2,2)" />
<rect x="50.0" y="100.0" width="25.0" height="25.0" fill="rgb(2,2,2)" />
<rect x="50.0" y="125.0" width="25.0" height="25.0" fill="rgb(2,2,2)" />
<rect x="50.0" y="150.0" width="25.0" height="25.0" fill="rgb(2,2,2)" />
<rect x="50.0" y="175.0" width="25.0" height="25.0" fill="rgb(2,2,2)" />
<rect x="50.0" y="200.0" width="25.0" height="25.0" fill="rgb(2,2,2)" />
<rect x="50.0" y="225.0" width="25.0" height="25.0" fill="rgb(2,2,2)" />
<rect x="50.0" y="250.0" width="25.0" height="25.0" fill="rgb(2,2,2)" />
<rect x="50.0" y="275.0" width="25.0" height="25.0" fill="rgb(2,2,2)" />
<rect x="50.0" y="300.0" width="25.0" height="25.0" fill="rgb(2,2,2)" />
<rect x="50.0" y="325.0" width="25.0" height="25.0" fill="rgb(2,2,2)" />
<rect x="50.0" y="350.0" width="25.0" height="25.0" fill="rgb(2,2,2)" />
<rect x="50.0" y="375.0" width="25.0" height="25.0" fill="rgb(2,2,2)" />
<rect x="50.0" y="400.0" width="25.0" height="25.0" fill="rgb(2,2,2)" />
<rect x="75.0" y="25.0" width="25.0" height="25.0" fill="rgb(2,2,2)" />
<rect x="75.0" y="50.0" width="25.0" height="25.0" fill="rgb(2,2,2)" />
<rect x="75.0" y="75.0" width="25.0" height="25.0" fill="rgb(2,2,2)" />
<rect x="75.0" y="100.0" width="25.0" height="25.0" fill="rgb(2,2,2)" />
<rect x="75.0" y="125.0" width="25.0" height="25.0" fill="rgb(2,2,2)" />
<rect x="75.0" y="150.0" width="25.0" height="25.0" fill="rgb(2,2,2)" />
<rect x="75.0" y="175.0" width="25.0" height="25.0" fill="rgb(2,2,2)" />
<rect x="75.0" y="200.0" width="25.0" height="25.0" fill="rgb(2,2,2)" />
<rect x="75.0" y="225.0" width="25.0" height="25.0" fill="rgb(2,2,2)" />
<rect x="75.0" y="250.0" width="25.0" height="25.0" fill="rgb(2,2,2)" />
<rect x="75.0" y="275.0" width="25.0" height="25.0" fill="rgb(2,2,2)" />
<rect x="75.0" y="300.0" width="25.0" height="25.0" fill="rgb(2,2,2)" />
<rect x="75.0" y="325.0" width="25.0" height="25.0" fill="rgb(2,2,2)" />
<rect x="75.0" y="350.0" width="25.0" height="25.0" fill="rgb(2,2,2)" />
<rect x="75.0" y="375.0" width="25.0" height="25.0" fill="rgb(2,2,2)" />
<rect x="75.0" y="400.0" width="25.0" height="25.0" fill="rgb(2,2,2)" />
<rect x="100.0" y="25.0" width="25.0" height="25.0" fill="rgb(2,2,2)" />
<rect x="100.0" y="50.0" width="25.0" height="25.0" fill="rgb(2,2,2)" />
<rect x="100.0" y="75.0" width="25.0" height="25.0" fill="rgb(2,2,2)" />
<rect x="100.0" y="100.0" width="25.0" height="25.0" fill="rgb(2,2,2)" />
<rect x="100.0" y="125.0" width="25.0" height="25.0" fill="rgb(2,2,2)" />
<rect x="100.0" y="150.0" width="25.0" height="25.0" fill="rgb(2,2,2)" />
<rect x="100.0" y="175.0" width="25.0" height="25.0" fill="rgb(2,2,2)" />
<rect x="100.0" y="200.0" width="25.0" height="25.0" fill="rgb(2,2,2)" />
<rect x="100.0" y="225.0" width="25.0" height="25.0" fill="rgb(2,2,2)" />
<rect x="100.0" y="250.0" width="25.0" height="25.0" fill="rgb(2,2,2)" />
<rect x="100.0" y="275.0" width="25.0" height="25.0" fill="rgb(2,2,2)" />
<rect x="100.0" y="300.0" width="25.0" height="25.0" fill="rgb(2,2,2)" />
<rect x="100.0" y="325.0" width="25.0" height="25.0" fill="rgb(2,2,2)" />
<rect x="100.0" y="350.0" width="25.0" height="25.0" fill="rgb(2,2,2)" />
<rect x="100.0" y="375.0" width="25.0" height="25.0" fill="rgb(2,2,2)" />
<rect x="100.0" y="400.0" width="25.0" height="25.0" fill="rgb(2,2,2)" />
<rect x="125.0" y="25.0" width="25.0" height="25.0" fill="rgb(2,2,2)" />
<rect x="125.0" y="50.0" width="25.0" height="25.0" fill="rgb(2,2,2)" />
<rect x="125.0" y="75.0" width="25.0" height="25.0" fill="rgb(2,2,2)" />
<rect x="125.0" y="100.0" width="25.0" height="25.0" fill="rgb(2,2,2)" />
<rect x="125.0" y="125.0" width="25.0" height="25.0" fill="rgb(2,2,2)" />
<rect x="125.0" y="150.0" width="25.0" height="25.0" fill="rgb(2,2,2)" />
<rect x="125.0" y="175.0" width="25.0" height="25.0" fill="rgb(2,2,2)" />
<rect x="125.0" y="200.0" width="25.0" height="25.0" fill="rgb(2,2,2)" />
<rect x="125.0" y="225.0" width="25.0" height="25.0" fill="rgb(2,2,2)" />
<rect x="125.0" y="250.0" width="25.0" height="25.0" fill="rgb(2,2,2)" />
<rect x="125.0" y="275.0" width="25.0" height="25.0" fill="rgb(2,2,2)" />
<rect x="125.0" y="300.0" width="25.0" height="25.0" fill="rgb(2,2,2)" />
<rect x="125.0" y="325.0" width="25.0" height="25.0" fill="rgb(2,2,2)" />
<rect x="125.0" y="350.0" width="25.0" height="25.0" fill="rgb(2,2,2)" />
<rect x="125.0" y="375.0" width="25.0" height="25.0" fill="rgb(2,2,2)" />
<rect x="125.0" y="400.0" width="25.0" height="25.0" fill="rgb(2,2,2)" />
<rect x="150.0" y="25.0" width="25.0" height="25.0" fill="rgb(2,2,2)" />
<rect x="150.0" y="50.0" width="25.0" height="25.0" fill="rgb(2,2,2)" />
<rect x="150.0" y="75.0" width="25.0" height="25.0" fill="rgb(2,2,2)" />
<rect x="150.0" y="100.0" width="25.0" height="25.0" fill="rgb(2,2,2)" />
<rect x="150.0" y="125.0" width="25.0" height="25.0" fill="rgb(2,2,2)" />
<rect x="150.0" y="150.0" width="25.0" height="25.0" fill="rgb(2,2,2)" />
<rect x="150.0" y="175.0" width="25.0" height="25.0" fill="rgb(2,2,2)" />
<rect x="150.0" y="200.0" width="25.0" height="25.0" fill="rgb(2,2,2)" />
<rect x="150.0" y="225.0" width="25.0" height="25.0" fill="rgb(2,2,2)" />
<rect x="150.0" y="250.0" width="25.0" height="25.0" fill="rgb(2,2,2)" />
<rect x="150.0" y="275.0" width="25.0" height="25.0" fill="rgb(2,2,2)" />
<rect x="150.0" y="300.0" width="25.0" height="25.0" fill="rgb(2,2,2)" />
<rect x="150.0" y="325.0" width="25.0" height="25.0" fill="rgb(2,2,2)" />
<rect x="150.0" y="350.0" width="25.0" height="25.0" fill="rgb(2,2,2)" />
<rect x="150.0" y="375.0" width="25.0" height="25.0" fill="rgb(2,2,2)" />
<rect x="150.0" y="400.0" width="25.0" height="25.0" fill="rgb(2,2,2)" />
<rect x="175.0" y="25.0" width="25.0" height="25.0" fill="rgb(2,2,2)" />
<rect x="175.0" y="50.0" width="25.0" height="25.0" fill="rgb(2,2,2)" />
<rect x="175.0" y="75.0" width="25.0" height="25.0" fill="rgb(2,2,2)" />
<rect x="175.0" y="100.0" width="25.0" height="25.0" fill="rgb(2,2,2)" />
<rect x="175.0" y="125.0" width="25.0" height="25.0" fill="rgb(2,2,2)" />
<rect x="175.0" y="150.0" width="25.0" height="25.0" fill="rgb(2,2,2)" />
<rect x="175.0" y="175.0" width="25.0" height="25.0" fill="rgb(2,2,2)" />
<rect x="175.0" y="200.0" width="25.0" height="25.0" fill="rgb(2,2,2)" />
<rect x="175.0" y="225.0" width="25.0" height="25.0" fill="rgb(2,2,2)" />
<rect x="175.0" y="250.0" width="25.0" height="25.0" fill="rgb(2,2,2)" />
<rect x="175.0" y="275.0" width="25.0" height="25.0" fill="rgb(2,2,2)" />
<rect x="175.0" y="300.0" width="25.0" height="25.0" fill="rgb(2,2,2)" />
<rect x="175.0" y="325.0" width="25.0" height="25.0" fill="rgb(2,2,2)" />
<rect x="175.0" y="350.0" width="25.0" height="25.0" fill="rgb(2,2,2)" />
<rect x="175.0" y="375.0" width="25.0" height="25.0" fill="rgb(2,2,2)" />
<rect x="175.0" y="400.0" width="25.0" height="25.0" fill="rgb(2,2,2)" />
<rect x="200.0" y="25.0" width="25.0" height="25.0" fill="rgb(2,2,2)" />
<rect x="200.0" y="50.0" width="25.0" height="25.0" fill="rgb(2,2,2)" />
<rect x="200.0" y="75.0" width="25.0" height="25.0" fill="rgb(2,2,2)" />
<rect x="200.0" y="100.0" width="25.0" height="25.0" fill="rgb(2,2,2)" />
<rect x="200.0" y="125.0" width="25.0" height="25.0" fill="rgb(2,2,2)" />
<rect x="200.0" y="150.0" width="25.0" height="25.0" fill="rgb(2,2,2)" />
<rect x="200.0" y="175.0" width="25.0" height="25.0" fill="rgb(2,2,2)" />
<rect x="200.0" y="200.0" width="25.0" height="25.0" fill="rgb(2,2,2)" />
<rect x="200.0" y="225.0" width="25.0" height="25.0" fill="rgb(2,2,2)" />
<rect x="200.0" y="250.0" width="25.0" height="25.0" fill="rgb(2,2,2)" />
<rect x="200.0" y="275.0" width="25.0" height="25.0" fill="rgb(2,2,2)" />
<rect x="200.0" y="300.0" width="25.0" height="25.0" fill="rgb(2,2,2)" />
<rect x="200.0" y="325.0" width="25.0" height="25.0" fill="rgb(2,2,2)" />
<rect x="200.0" y="350.0" width="25.0" height="25.0" fill="rgb(2,2,2)" />
<rect x="200.0" y="375.0" width="25.0" height="25.0" fill="rgb(2,2,2)" />
<rect x="200.0" y="400.0" width="25.0" height="25.0" fill="rgb(2,2,2)" />
<rect x="225.0" y="25.0" width="25.0" height="25.0" fill="rgb(2,2,2)" />
<rect x="225.0" y="50.0" width="25.0" height="25.0" fill="rgb(2,2,2)" />
<rect x="225.0" y="75.0" width="25.0" height="25.0" fill="rgb(2,2,2)" />
<rect x="225.0" y="100.0" width="25.0" height="25.0" fill="rgb(2,2,2)" />
<rect x="225.0" y="125.0" width="25.0" height="25.0" fill="rgb(2,2,2)" />
<rect x="225.0" y="150.0" width="25.0" height="25.0" fill="rgb(2,2,2)" />
<rect x="225.0" y="175.0" width="25.0" height="25.0" fill="rgb(2,2,2)" />
<rect x="225.0" y="200.0" width="25.0" height="25.0" fill="rgb(2,2,2)" />
<rect x="225.0" y="225.0" width="25.0" height="25.0" fill="rgb(2,2,2)" />
<rect x="225.0" y="250.0" width="25.0" height="25.0" fill="rgb(2,2,2)" />
<rect x="225.0" y="275.0" width="25.0" height="25.0" fill="rgb(2,2,2)" />
<rect x="225.0" y="300.0" width="25.0" height="25.0" fill="rgb(2,2,2)" />
<rect x="225.0" y="325.0" width="25.0" height="25.0" fill="rgb(2,2,2)" />
<rect x="225.0" y="350.0" width="25.0" height="25.0" fill="rgb(2,2,2)" />
<rect x="225.0" y="375.0" width="25.0" height="25.0" fill="rgb(2,2,2)" />
<rect x="225.0" y="400.0" width="25.0" height="25.0" fill="rgb(2,2,2)" />
<rect x="250.0" y="25.0" width="25.0" height="25.0" fill="rgb(2,2,2)" />
<rect x="250.0" y="50.0" width="25.0" height="25.0" fill="rgb(2,2,2)" />
<rect x="250.0" y="75.0" width="25.0" height="25.0" fill="rgb(2,2,2)" />
<rect x="250.0" y="100.0" width="25.0" height="25.0" fill="rgb(2,2,2)" />
<rect x="250.0" y="125.0" width="25.0" height="25.0" fill="rgb(2,2,2)" />
<rect x="250.0" y="150.0" width="25.0" height="25.0" fill="rgb(2,2,2)" />
<rect x="250.0" y="175.0" width="25.0" height="25.0" fill="rgb(2,2,2)" />
<rect x="250.0" y="200.0" width="25.0" height="25.0" fill="rgb(2,2,2)" />
<rect x="250.0" y="225.0" width="25.0" height="25.0" fill="rgb(2,2,2)" />
<rect x="250.0" y="250.0" width="25.0" height="25.0" fill="rgb(2,2,2)" />
<rect x="250.0" y="275.0" width="25.0" height="25.0" fill="rgb(2,2,2)" />
<rect x="250.0" y="300.0" width="25.0" height="25.0" fill="rgb(2,2,2)" />
<rect x="250.0" y="325.0" width="25.0" height="25.0" fill="rgb(1,1,1)" />
<rect x="250.0" y="350.0" width="25.0" height="25.0" fill="rgb(2,2,2)" />
<rect x="250.0" y="375.0" width="25.0" height="25.0" fill="rgb(2,2,2)" />
<rect x="250.0" y="400.0" width="25.0" height="25.0" fill="rgb(2,2,2)" />
<rect x="275.0" y="25.0" width="25.0" height="25.0" fill="rgb(2,2,2)" />
<rect x="275.0" y="50.0" width="25.0" height="25.0" fill="rgb(2,2,2)" />
<rect x="275.0" y="75.0" width="25.0" height="25.0" fill="rgb(2,2,2)" />
<rect x="275.0" y="100.0" width="25.0" height="25.0" fill="rgb(2,2,2)" />
<rect x="275.0" y="125.0" width="25.0" height="25.0" fill="rgb(2,2,2)" />
<rect x="275.0" y="150.0" width="25.0" height="25.0" fill="rgb(2,2,2)" />
<rect x="275.0" y="175.0" width="25.0" height="25.0" fill="rgb(2,2,2)" />
<rect x="275.0" y="200.0" width="25.0" height="25.0" fill="rgb(2,2,2)" />
<rect x="275.0" y="225.0" width="25.0" height="25.0" fill="rgb(2,2,2)" />
<rect x="275.0" y="250.0" width="25.0" height="25.0" fill="rgb(2,2,2)" />
<rect x="275.0" y="275.0" width="25.0" height="25.0" fill="rgb(2,2,2)" />
<rect x="275.0" y="300.0" width="25.0" height="25.0" fill="rgb(1,1,1)" />
<rect x="275.0" y="325.0" width="25.0" height="25.0" fill="rgb(6,6,6)" />
<rect x="275.0" y="350.0" width="25.0" height="25.0" fill="rgb(1,1,1)" />
<rect x="275.0" y="375.0" width="25.0" height="25.0" fill="rgb(2,2,2)" />
<rect x="275.0" y="400.0" width="25.0" height="25.0" fill="rgb(2,2,2)" />
<rect x="300.0" y="25.0" width="25.0" height="25.0" fill="rgb(2,2,2)" />
<rect x="300.0" y="50.0" width="25.0" height="25.0" fill="rgb(2,2,2)" />
<rect x="300.0" y="75.0" width="25.0" height="25.0" fill="rgb(2,2,2)" />
<rect x="300.0" y="100.0" width="25.0" height="25.0" fill="rgb(2,2,2)" />
<rect x="300.0" y="125.0" width="25.0" height="25.0" fill="rgb(2,2,2)" />
<rect x="300.0" y="150.0" width="25.0" height="25.0" fill="rgb(2,2,2)" />
<rect x="300.0" y="175.0" width="25.0" height="25.0" fill="rgb(2,2,2)" />
<rect x="300.0" y="200.0" width="25.0" height="25.0" fill="rgb(2,2,2)" />
<rect x="300.0" y="225.0" width="25.0" height="25.0" fill="rgb(2,2,2)" />
<rect x="300.0" y="250.0" width="25.0" height="25.0" fill="rgb(2,2,2)" />
<rect x="300.0" y="275.0" width="25.0" height="25.0" fill="rgb(1,1,1)" />
<rect x="300.0" y="300.0" width="25.0" height="25.0" fill="rgb(6,6,6)" />
<rect x="300.0" y="325.0" width="25.0" height="25.0" fill="rgb(0,0,0)" />
<rect x="300.0" y="350.0" width="25.0" height="25.0" fill="rgb(6,6,6)" />
<rect x="300.0" y="375.0" width="25.0" height="25.0" fill="rgb(1,1,1)" />
<rect x="300.0" y="400.0" width="25.0" height="25.0" fill="rgb(2,2,2)" />
<rect x="325.0" y="25.0" width="25.0" height="25.0" fill="rgb(2,2,2)" />
<rect x="325.0" y="50.0" width="25.0" height="25.0" fill="rgb(2,2,2)" />
<rect x="325.0" y="75.0" width="25.0" height="25.0" fill="rgb(2,2,2)" />
<rect x="325.0" y="100.0" width="25.0" height="25.0" fill="rgb(2,2,2)" />
<rect x="325.0" y="125.0" width="25.0" height="25.0" fill="rgb(2,2,2)" />
<rect x="325.0" y="150.0" width="25.0" height="25.0" fill="rgb(2,2,2)" />
<rect x="325.0" y="175.0" width="25.0" height="25.0" fill="rgb(2,2,2)" />
<rect x="325.0" y="200.0" width="25.0" height="25.0" fill="rgb(2,2,2)" />
<rect x="325.0" y="225.0" width="25.0" height="25.0" fill="rgb(2,2,2)" />
<rect x="325.0" y="250.0" width="25.0" height="25.0" fill="rgb(2,2,2)" />
<rect x="325.0" y="275.0" width="25.0" height="25.0" fill="rgb(1,1,1)" />
<rect x="325.0" y="300.0" width="25.0" height="25.0" fill="rgb(0,0,0)" />
<rect x="325.0" y="325.0" width="25.0" height="25.0" fill="rgb(25,25,25)" />
<rect x="325.0" y="350.0" width="25.0" height="25.0" fill="rgb(0,0,0)" />
<rect x="325.0" y="375.0" width="25.0" height="25.0" fill="rgb(1,1,1)" />
<rect x="325.0" y="400.0" width="25.0" height="25.0" fill="rgb(2,2,2)" />
<rect x="350.0" y="25.0" width="25.0" height="25.0" fill="rgb(2,2,2)" />
<rect x="350.0" y="50.0" width="25.0" height="25.0" fill="rgb(2,2,2)" />
<rect x="350.0" y="75.0" width="25.0" height="25.0" fill="rgb(2,2,2)" />
<rect x="350.0" y="100.0" width="25.0" height="25.0" fill="rgb(2,2,2)" />
<rect x="350.0" y="125.0" width="25.0" height="25.0" fill="rgb(2,2,2)" />
<rect x="350.0" y="150.0" width="25.0" height="25.0" fill="rgb(2,2,2)" />
<rect x="350.0" y="175.0" width="25.0" height="25.0" fill="rgb(2,2,2)" />
<rect x="350.0" y="200.0" width="25.0" height="25.0" fill="rgb(2,2,2)" />
<rect x="350.0" y="225.0" width="25.0" height="25.0" fill="rgb(2,2,2)" />
<rect x="350.0" y="250.0" width="25.0" height="25.0" fill="rgb(2,2,2)" />
<rect x="350.0" y="275.0" width="25.0" height="25.0" fill="rgb(1,1,1)" />
<rect x="350.0" y="300.0" width="25.0" height="25.0" fill="rgb(1,1,1)" />
<rect x="350.0" y="325.0" width="25.0" height="25.0" fill="rgb(0,0,0)" />
<rect x="350.0" y="350.0" width="25.0" height="25.0" fill="rgb(1,1,1)" />
<rect x="350.0" y="375.0" width="25.0" height="25.0" fill="rgb(2,2,2)" />
<rect x="350.0" y="400.0" width="25.0" height="25.0" fill="rgb(2,2,2)" />
<rect x="375.0" y="25.0" width="25.0" height="25.0" fill="rgb(2,2,2)" />
<rect x="375.0" y="50.0" width="25.0" height="25.0" fill="rgb(2,2,2)" />
<rect x="375.0" y="75.0" width="25.0" height="25.0" fill="rgb(2,2,2)" />
<rect x="375.0" y="100.0" width="25.0" height="25.0" fill="rgb(2,2,2)" />
<rect x="375.0" y="125.0" width="25.0" height="25.0" fill="rgb(2,2,2)" />
<rect x="375.0" y="150.0" width="25.0" height="25.0" fill="rgb(2,2,2)" />
<rect x="375.0" y="175.0" width="25.0" height="25.0" fill="rgb(2,2,2)" />
<rect x="375.0" y="200.0" width="25.0" height="25.0" fill="rgb(2,2,2)" />
<rect x="375.0" y="225.0" width="25.0" height="25.0" fill="rgb(2,2,2)" />
<rect x="375.0" y="250.0" width="25.0" height="25.0" fill="rgb(2,2,2)" />
<rect x="375.0" y="275.0" width="25.0" height="25.0" fill="rgb(2,2,2)" />
<rect x="375.0" y="300.0" width="25.0" height="25.0" fill="rgb(2,2,2)" />
<rect x="375.0" y="325.0" width="25.0" height="25.0" fill="rgb(2,2,2)" />
<rect x="375.0" y="350.0" width="25.0" height="25.0" fill="rgb(2,2,2)" />
<rect x="375.0" y="375.0" width="25.0" height="25.0" fill="rgb(2,2,2)" />
<rect x="375.0" y="400.0" width="25.0" height="25.0" fill="rgb(2,2,2)" />
<rect x="400.0" y="25.0" width="25.0" height="25.0" fill="rgb(2,2,2)" />
<rect x="400.0" y="50.0" width="25.0" height="25.0" fill="rgb(2,2,2)" />
<rect x="400.0" y="75.0" width="25.0" height="25.0" fill="rgb(2,2,2)" />
<rect x="400.0" y="100.0" width="25.0" height="25.0" fill="rgb(2,2,2)" />
<rect x="400.0" y="125.0" width="25.0" height="25.0" fill="rgb(2,2,2)" />
<rect x="400.0" y="150.0" width="25.0" height="25.0" fill="rgb(2,2,2)" />
<rect x="400.0" y="175.0" width="25.0" height="25.0" fill="rgb(2,2,2)" />
<rect x="400.0" y="200.0" width="25.0" height="25.0" fill="rgb(2,2,2)" />
<rect x="400.0" y="225.0" width="25.0" height="25.0" fill="rgb(2,2,2)" />
<rect x="400.0" y="250.0" width="25.0" height="25.0" fill="rgb(2,2,2)" />
<rect x="400.0" y="275.0" width="25.0" height="25.0" fill="rgb(2,2,2)" />
<rect x="400.0" y="300.0" width="25.0" height="25.0" fill="rgb(2,2,2)" />
<rect x="400.0" y="325.0" width="25.0" height="25.0" fill="rgb(2,2,2)" />
<rect x="400.0" y="350.0" width="25.0" height="25.0" fill="rgb(2,2,2)" />
<rect x="400.0" y="375.0" width="25.0" height="25.0" fill="rgb(2,2,2)" />
<rect x="400.0" y="400.0" width="25.0" height="25.0" fill="rgb(2,2,2)" />
<circle  cx="341.96308589344403" cy="331.09946451318706" r="7.72236929550386" fill="RED" />
<circle  cx="315.7875187006268" cy="331.5713319371834" r="8.215270714368703" fill="RED" />
</svg>
