<svg xmlns="http://www.w3.org/2000/svg" version="1.1">
<rect x="25.0" y="25.0" width="400.0" height="400.0" fill="GRAY" />
<rect x="25.0" y="25.0" width="25.0" height="25.0" fill="rgb(2,2,2)" />
<rect x="25.0" y="50.0" width="25.0" height="25.0" fill="rgb(2,2,2)" />
<rect x="25.0" y="75.0" width="25.0" height="25.0" fill="rgb(2,2,2)" />
<rect x="25.0" y="100.0" width="25.0" height="25.0" fill="rgb(2,2,2)" />
<rect x="25.0" y="125.0" width="25.0" height="25.0" fill="rgb(2,2,2)" />
<rect x="25.0" y="150.0" width="25.0" height="25.0" fill="rgb(2,2,2)" />
<rect x="25.0" y="175.0" width="25.0" height="25.0" fill="rgb(2,2,2)" />
<rect x="25.0" y="200.0" width="25.0" height="25.0" fill="rgb(2,2,2)" />
<rect x="25.0" y="225.0" width="25.0" height="25.0" fill="rgb(2,2,2)" />
<rect x="25.0" y="250.0" width="25.0" height="25.0" fill="rgb(2,2,2)" />
<rect x="25.0" y="275.0" width="25.0" height="25.0" fill="rgb(2,2,2)" />
<rect x="25.0" y="300.0" width="25.0" height="25.0" fill="rgb(2,2,2)" />
<rect x="25.0" y="325.0" width="25.0" height="25.0" fill="rgb(2,2,2)" />
<rect x="25.0" y="350.0" width="25.0" height="25.0" fill="rgb(2,2,2)" />
<rect x="25.0" y="375.0" width="25.0" height="25.0" fill="rgb(2,2,2)" />
<rect x="25.0" y="400.0" width="25.0" height="25.0" fill="rgb(2,2,2)" />
<rect x="50.0" y="25.0" width="25.0" height="25.0" fill="rgb(2,2,2)" />
<rect x="50.0" y="50.0" width="25.0" height="25.0" fill="rgb(2,2,2)" />
<rect x="50.0" y="75.0" width="25.0" height="25.0" fill="rgb(2,2,2)" />
<rect x="50.0" y="100.0" width="25.0" height="25.0" fill="rgb(2,2,2)" />
<rect x="50.0" y="125.0" width="25.0" height="25.0" fill="rgb(2,2,2)" />
<rect x="50.0" y="150.0" width="25.0" height="25.0" fill="rgb(2,2,2)" />
<rect x="50.0" y="175.0" width="25.0" height="25.0" fill="rgb(2,2,2)" />
<rect x="50.0" y="200.0" width="25.0" height="25.0" fill="rgb(2,2,2)" />
<rect x="50.0" y="225.0" width="25.0" height="25.0" fill="rgb(2,2,2)" />
<rect x="50.0" y="250.0" width="25.0" height="25.0" fill="rgb(2,2,2)" />
<rect x="50.0" y="275.0" width="25.0" height="25.0" fill="rgb(2,2,2)" />
<rect x="50.0" y="300.0" width="25.0" height="25.0" fill="rgb(2,2,2)" />
<rect x="50.0" y="325.0" width="25.0" height="25.0" fill="rgb(2,2,2)" />
<rect x="50.0" y="350.0" width="25.0" height="25.0" fill="rgb(2,2,2)" />
<rect x="50.0" y="375.0" width="25.0" height="25.0" fill="rgb(2,2,2)" />
<rect x="50.0" y="400.0" width="25.0" height="25.0" fill="rgb(2,2,2)" />
<rect x="75.0" y="25.0" width="25.0" height="25.0" fill="rgb(2,2,2)" />
<rect x="75.0" y="50.0" width="25.0" height="25.0" fill="rgb(2,2,2)" />
<rect x="75.0" y="75.0" width="25.0" height="25.0" fill="rgb(2,2,2)" />
<rect x="75.0" y="100.0" width="25.0" height="25.0" fill="rgb(2,2,2)" />
<rect x="75.0" y="125.0" width="25.0" height="25.0" fill="rgb(2,2,2)" />
<rect x="75.0" y="150.0" width="25.0" height="25.0" fill="rgb(2,2,2)" />
<rect x="75.0" y="175.0" width="25.0" height="25.0" fill="rgb(2,2,2)" />
<rect x="75.0" y="200.0" width="25.0" height="25.0" fill="rgb(2,2,2)" />
<rect x="75.0" y="225.0" width="25.0" height="25.0" fill="rgb(2,2,2)" />
<rect x="75.0" y="250.0" width="25.0" height="25.0" fill="rgb(2,2,2)" />
<rect x="75.0" y="275.0" width="25.0" height="25.0" fill="rgb(2,2,2)" />
<rect x="75.0" y="300.0" width="25.0" height="25.0" fill="rgb(2,2,2)" />
<rect x="75.0" y="325.0" width="25.0" height="25.0" fill="rgb(2,2,2)" />
<rect x="75.0" y="350.0" width="25.0" height="25.0" fill="rgb(2,2,2)" />
<rect x="75.0" y="375.0" width="25.0" height="25.0" fill="rgb(2,2,2)" />
<rect x="75.0" y="400.0" width="25.0" height="25.0" fill="rgb(2,2,2)" />
<rect x="100.0" y="25.0" width="25.0" height="25.0" fill="rgb(2,2,2)" />
<rect x="100.0" y="50.0" width="25.0" height="25.0" fill="rgb(2,2,2)" />
<rect x="100.0" y="75.0" width="25.0" height="25.0" fill="rgb(2,2,2)" />
<rect x="100.0" y="100.0" width="25.0" height="25.0" fill="rgb(2,2,2)" />
<rect x="100.0" y="125.0" width="25.0" height="25.0" fill="rgb(2,2,2)" />
<rect x="100.0" y="150.0" width="25.0" height="25.0" fill="rgb(2,2,2)" />
<rect x="100.0" y="175.0" width="25.0" height="25.0" fill="rgb(2,2,2)" />
<rect x="100.0" y="200.0" width="25.0" height="25.0" fill="rgb(2,2,2)" />
<rect x="100.0" y="225.0" width="25.0" height="25.0" fill="rgb(2,2,2)" />
<rect x="100.0" y="250.0" width="25.0" height="25.0" fill="rgb(2,2,2)" />
<rect x="100.0" y="275.0" width="25.0" height="25.0" fill="rgb(2,2,2)" />
<rect x="100.0" y="300.0" width="25.0" height="25.0" fill="rgb(2,2,2)" />
<rect x="100.0" y="325.0" width="25.0" height="25.0" fill="rgb(2,2,2)" />
<rect x="100.0" y="350.0" width="25.0" height="25.0" fill="rgb(2,2,2)" />
<rect x="100.0" y="375.0" width="25.0" height="25.0" fill="rgb(2,2,2)" />
<rect x="100.0" y="400.0" width="25.0" height="25.0" fill="rgb(2,2,2)" />
<rect x="125.0" y="25.0" width="25.0" height="25.0" fill="rgb(2,2,2)" />
<rect x="125.0" y="50.0" width="25.0" height="25.0" fill="rgb(2,2,2)" />
<rect x="125.0" y="75.0" width="25.0" height="25.0" fill="rgb(2,2,2)" />
<rect x="125.0" y="100.0" width="25.0" height="25.0" fill="rgb(2,2,2)" />
<rect x="125.0" y="125.0" width="25.0" height="25.0" fill="rgb(2,2,2)" />
<rect x="125.0" y="150.0" width="25.0" height="25.0" fill="rgb(2,2,2)" />
<rect x="125.0" y="175.0" width="25.0" height="25.0" fill="rgb(2,2,2)" />
<rect x="125.0" y="200.0" width="25.0" height="25.0" fill="rgb(2,2,2)" />
<rect x="125.0" y="225.0" width="25.0" height="25.0" fill="rgb(2,2,2)" />
<rect x="125.0" y="250.0" width="25.0" height="25.0" fill="rgb(2,2,2)" />
<rect x="125.0" y="275.0" width="25.0" height="25.0" fill="rgb(2,2,2)" />
<rect x="125.0" y="300.0" width="25.0" height="25.0" fill="rgb(2,2,2)" />
<rect x="125.0" y="325.0" width="25.0" height="25.0" fill="rgb(2,2,2)" />
<rect x="125.0" y="350.0" width="25.0" height="25.0" fill="rgb(2,2,2)" />
<rect x="125.0" y="375.0" width="25.0" height="25.0" fill="rgb(2,2,2)" />
<rect x="125.0" y="400.0" width="25.0" height="25.0" fill="rgb(2,2,2)" />
<rect x="150.0" y="25.0" width="25.0" height="25.0" fill="rgb(2,2,2)" />
<rect x="150.0" y="50.0" width="25.0" height="25.0" fill="rgb(2,2,2)" />
<rect x="150.0" y="75.0" width="25.0" height="25.0" fill="rgb(2,2,2)" />
<rect x="150.0" y="100.0" width="25.0" height="25.0" fill="rgb(2,2,2)" />
<rect x="150.0" y="125.0" width="25.0" height="25.0" fill="rgb(2,2,2)" />
<rect x="150.0" y="150.0" width="25.0" height="25.0" fill="rgb(2,2,2)" />
<rect x="150.0" y="175.0" width="25.0" height="25.0" fill="rgb(2,2,2)" />
<rect x="150.0" y="200.0" width="25.0" height="25.0" fill="rgb(2,2,2)" />
<rect x="150.0" y="225.0" width="25.0" height="25.0" fill="rgb(2,2,2)" />
<rect x="150.0" y="250.0" width="25.0" height="25.0" fill="rgb(2,2,2)" />
<rect x="150.0" y="275.0" width="25.0" height="25.0" fill="rgb(2,2,2)" />
<rect x="150.0" y="300.0" width="25.0" height="25.0" fill="rgb(2,2,2)" />
<rect x="150.0" y="325.0" width="25.0" height="25.0" fill="rgb(2,2,2)" />
<rect x="150.0" y="350.0" width="25.0" height="25.0" fill="rgb(2,2,2)" />
<rect x="150.0" y="375.0" width="25.0" height="25.0" fill="rgb(2,2,2)" />
<rect x="150.0" y="400.0" width="25.0" height="25.0" fill="rgb(2,2,2)" />
<rect x="175.0" y="25.0" width="25.0" height="25.0" fill="rgb(2,2,2)" />
<rect x="175.0" y="50.0" width="25.0" height="25.0" fill="rgb(2,2,2)" />
<rect x="175.0" y="75.0" width="25.0" height="25.0" fill="rgb(2,2,2)" />
<rect x="175.0" y="100.0" width="25.0" height="25.0" fill="rgb(2,2,2)" />
<rect x="175.0" y="125.0" width="25.0" height="25.0" fill="rgb(2,2,2)" />
<rect x="175.0" y="150.0" width="25.0" height="25.0" fill="rgb(2,2,2)" />
<rect x="175.0" y="175.0" width="25.0" height="25.0" fill="rgb(2,2,2)" />
<rect x="175.0" y="200.0" width="25.0" height="25.0" fill="rgb(2,2,2)" />
<rect x="175.0" y="225.0" width="25.0" height="25.0" fill="rgb(2,2,2)" />
<rect x="175.0" y="250.0" width="25.0" height="25.0" fill="rgb(2,2,2)" />
<rect x="175.0" y="275.0" width="25.0" height="25.0" fill="rgb(2,2,2)" />
<rect x="175.0" y="300.0" width="25.0" height="25.0" fill="rgb(2,2,2)" />
<rect x="175.0" y="325.0" width="25.0" height="25.0" fill="rgb(2,2,2)" />
<rect x="175.0" y="350.0" width="25.0" height="25.0" fill="rgb(2,2,2)" />
<rect x="175.0" y="375.0" width="25.0" height="25.0" fill="rgb(2,2,2)" />
<rect x="175.0" y="400.0" width="25.0" height="25.0" fill="rgb(2,2,2)" />
<rect x="200.0" y="25.0" width="25.0" height="25.0" fill="rgb(2,2,2)" />
<rect x="200.0" y="50.0" width="25.0" height="25.0" fill="rgb(2,2,2)" />
<rect x="200.0" y="75.0" width="25.0" height="25.0" fill="rgb(2,2,2)" />
<rect x="200.0" y="100.0" width="25.0" height="25.0" fill="rgb(2,2,2)" />
<rect x="200.0" y="125.0" width="25.0" height="25.0" fill="rgb(2,2,2)" />
<rect x="200.0" y="150.0" width="25.0" height="25.0" fill="rgb(2,2,2)" />
<rect x="200.0" y="175.0" width="25.0" height="25.0" fill="rgb(2,2,2)" />
<rect x="200.0" y="200.0" width="25.0" height="25.0" fill="rgb(2,2,2)" />
<rect x="200.0" y="225.0" width="25.0" height="25.0" fill="rgb(2,2,2)" />
<rect x="200.0" y="250.0" width="25.0" height="25.0" fill="rgb(2,2,2)" />
<rect x="200.0" y="275.0" width="25.0" height="25.0" fill="rgb(2,2,2)" />
<rect x="200.0" y="300.0" width="25.0" height="25.0" fill="rgb(3,3,3)" />
<rect x="200.0" y="325.0" width="25.0" height="25.0" fill="rgb(0,0,0)" />
<rect x="200.0" y="350.0" width="25.0" height="25.0" fill="rgb(3,3,3)" />
<rect x="200.0" y="375.0" width="25.0" height="25.0" fill="rgb(2,2,2)" />
<rect x="200.0" y="400.0" width="25.0" height="25.0" fill="rgb(2,2,2)" />
<rect x="225.0" y="25.0" width="25.0" height="25.0" fill="rgb(2,2,2)" />
<rect x="225.0" y="50.0" width="25.0" height="25.0" fill="rgb(2,2,2)" />
<rect x="225.0" y="75.0" width="25.0" height="25.0" fill="rgb(2,2,2)" />
<rect x="225.0" y="100.0" width="25.0" height="25.0" fill="rgb(2,2,2)" />
<rect x="225.0" y="125.0" width="25.0" height="25.0" fill="rgb(2,2,2)" />
<rect x="225.0" y="150.0" width="25.0" height="25.0" fill="rgb(2,2,2)" />
<rect x="225.0" y="175.0" width="25.0" height="25.0" fill="rgb(2,2,2)" />
<rect x="225.0" y="200.0" width="25.0" height="25.0" fill="rgb(2,2,2)" />
<rect x="225.0" y="225.0" width="25.0" height="25.0" fill="rgb(2,2,2)" />
<rect x="225.0" y="250.0" width="25.0" height="25.0" fill="rgb(2,2,2)" />
<rect x="225.0" y="275.0" width="25.0" height="25.0" fill="rgb(5,5,5)" />
<rect x="225.0" y="300.0" width="25.0" height="25.0" fill="rgb(0,0,0)" />
<rect x="225.0" y="325.0" width="25.0" height="25.0" fill="rgb(255,255,255)" />
<rect x="225.0" y="350.0" width="25.0" height="25.0" fill="rgb(0,0,0)" />
<rect x="225.0" y="375.0" width="25.0" height="25.0" fill="rgb(5,5,5)" />
<rect x="225.0" y="400.0" width="25.0" height="25.0" fill="rgb(2,2,2)" />
<rect x="250.0" y="25.0" width="25.0" height="25.0" fill="rgb(2,2,2)" />
<rect x="250.0" y="50.0" width="25.0" height="25.0" fill="rgb(2,2,2)" />
<rect x="250.0" y="75.0" width="25.0" height="25.0" fill="rgb(2,2,2)" />
<rect x="250.0" y="100.0" width="25.0" height="25.0" fill="rgb(2,2,2)" />
<rect x="250.0" y="125.0" width="25.0" height="25.0" fill="rgb(2,2,2)" />
<rect x="250.0" y="150.0" width="25.0" height="25.0" fill="rgb(2,2,2)" />
<rect x="250.0" y="175.0" width="25.0" height="25.0" fill="rgb(2,2,2)" />
<rect x="250.0" y="200.0" width="25.0" height="25.0" fill="rgb(2,2,2)" />
<rect x="250.0" y="225.0" width="25.0" height="25.0" fill="rgb(2,2,2)" />
<rect x="250.0" y="250.0" width="25.0" height="25.0" fill="rgb(5,5,5)" />
<rect x="250.0" y="275.0" width="25.0" height="25.0" fill="rgb(0,0,0)" />
<rect x="250.0" y="300.0" width="25.0" height="25.0" fill="rgb(255,255,255)" />
<rect x="250.0" y="325.0" width="25.0" height="25.0" fill="rgb(0,0,0)" />
<rect x="250.0" y="350.0" width="25.0" height="25.0" fill="rgb(255,255,255)" />
<rect x="250.0" y="375.0" width="25.0" height="25.0" fill="rgb(0,0,0)" />
<rect x="250.0" y="400.0" width="25.0" height="25.0" fill="rgb(4,4,4)" />
<rect x="275.0" y="25.0" width="25.0" height="25.0" fill="rgb(2,2,2)" />
<rect x="275.0" y="50.0" width="25.0" height="25.0" fill="rgb(2,2,2)" />
<rect x="275.0" y="75.0" width="25.0" height="25.0" fill="rgb(2,2,2)" />
<rect x="275.0" y="100.0" width="25.0" height="25.0" fill="rgb(2,2,2)" />
<rect x="275.0" y="125.0" width="25.0" height="25.0" fill="rgb(2,2,2)" />
<rect x="275.0" y="150.0" width="25.0" height="25.0" fill="rgb(2,2,2)" />
<rect x="275.0" y="175.0" width="25.0" height="25.0" fill="rgb(2,2,2)" />
<rect x="275.0" y="200.0" width="25.0" height="25.0" fill="rgb(2,2,2)" />
<rect x="275.0" y="225.0" width="25.0" height="25.0" fill="rgb(3,3,3)" />
<rect x="275.0" y="250.0" width="25.0" height="25.0" fill="rgb(0,0,0)" />
<rect x="275.0" y="275.0" width="25.0" height="25.0" fill="rgb(255,255,255)" />
<rect x="275.0" y="300.0" width="25.0" height="25.0" fill="rgb(0,0,0)" />
<rect x="275.0" y="325.0" width="25.0" height="25.0" fill="rgb(255,255,255)" />
<rect x="275.0" y="350.0" width="25.0" height="25.0" fill="rgb(0,0,0)" />
<rect x="275.0" y="375.0" width="25.0" height="25.0" fill="rgb(255,255,255)" />
<rect x="275.0" y="400.0" width="25.0" height="25.0" fill="rgb(0,0,0)" />
<rect x="300.0" y="25.0" width="25.0" height="25.0" fill="rgb(2,2,2)" />
<rect x="300.0" y="50.0" width="25.0" height="25.0" fill="rgb(2,2,2)" />
<rect x="300.0" y="75.0" width="25.0" height="25.0" fill="rgb(2,2,2)" />
<rect x="300.0" y="100.0" width="25.0" height="25.0" fill="rgb(2,2,2)" />
<rect x="300.0" y="125.0" width="25.0" height="25.0" fill="rgb(2,2,2)" />
<rect x="300.0" y="150.0" width="25.0" height="25.0" fill="rgb(2,2,2)" />
<rect x="300.0" y="175.0" width="25.0" height="25.0" fill="rgb(2,2,2)" />
<rect x="300.0" y="200.0" width="25.0" height="25.0" fill="rgb(2,2,2)" />
<rect x="300.0" y="225.0" width="25.0" height="25.0" fill="rgb(0,0,0)" />
<rect x="300.0" y="250.0" width="25.0" height="25.0" fill="rgb(255,255,255)" />
<rect x="300.0" y="275.0" width="25.0" height="25.0" fill="rgb(0,0,0)" />
<rect x="300.0" y="300.0" width="25.0" height="25.0" fill="rgb(255,255,255)" />
<rect x="300.0" y="325.0" width="25.0" height="25.0" fill="rgb(0,0,0)" />
<rect x="300.0" y="350.0" width="25.0" height="25.0" fill="rgb(255,255,255)" />
<rect x="300.0" y="375.0" width="25.0" height="25.0" fill="rgb(0,0,0)" />
<rect x="300.0" y="400.0" width="25.0" height="25.0" fill="rgb(255,255,255)" />
<rect x="325.0" y="25.0" width="25.0" height="25.0" fill="rgb(2,2,2)" />
<rect x="325.0" y="50.0" width="25.0" height="25.0" fill="rgb(2,2,2)" />
<rect x="325.0" y="75.0" width="25.0" height="25.0" fill="rgb(2,2,2)" />
<rect x="325.0" y="100.0" width="25.0" height="25.0" fill="rgb(2,2,2)" />
<rect x="325.0" y="125.0" width="25.0" height="25.0" fill="rgb(2,2,2)" />
<rect x="325.0" y="150.0" width="25.0" height="25.0" fill="rgb(2,2,2)" />
<rect x="325.0" y="175.0" width="25.0" height="25.0" fill="rgb(2,2,2)" />
<rect x="325.0" y="200.0" width="25.0" height="25.0" fill="rgb(2,2,2)" />
<rect x="325.0" y="225.0" width="25.0" height="25.0" fill="rgb(4,4,4)" />
<rect x="325.0" y="250.0" width="25.0" height="25.0" fill="rgb(0,0,0)" />
<rect x="325.0" y="275.0" width="25.0" height="25.0" fill="rgb(255,255,255)" />
<rect x="325.0" y="300.0" width="25.0" height="25.0" fill="rgb(0,0,0)" />
<rect x="325.0" y="325.0" width="25.0" height="25.0" fill="rgb(255,255,255)" />
<rect x="325.0" y="350.0" width="25.0" height="25.0" fill="rgb(0,0,0)" />
<rect x="325.0" y="375.0" width="25.0" height="25.0" fill="rgb(255,255,255)" />
<rect x="325.0" y="400.0" width="25.0" height="25.0" fill="rgb(0,0,0)" />
<rect x="350.0" y="25.0" width="25.0" height="25.0" fill="rgb(2,2,2)" />
<rect x="350.0" y="50.0" width="25.0" height="25.0" fill="rgb(2,2,2)" />
<rect x="350.0" y="75.0" width="25.0" height="25.0" fill="rgb(2,2,2)" />
<rect x="350.0" y="100.0" width="25.0" height="25.0" fill="rgb(2,2,2)" />
<rect x="350.0" y="125.0" width="25.0" height="25.0" fill="rgb(2,2,2)" />
<rect x="350.0" y="150.0" width="25.0" height="25.0" fill="rgb(2,2,2)" />
<rect x="350.0" y="175.0" width="25.0" height="25.0" fill="rgb(2,2,2)" />
<rect x="350.0" y="200.0" width="25.0" height="25.0" fill="rgb(2,2,2)" />
<rect x="350.0" y="225.0" width="25.0" height="25.0" fill="rgb(2,2,2)" />
<rect x="350.0" y="250.0" width="25.0" height="25.0" fill="rgb(9,9,9)" />
<rect x="350.0" y="275.0" width="25.0" height="25.0" fill="rgb(0,0,0)" />
<rect x="350.0" y="300.0" width="25.0" height="25.0" fill="rgb(255,255,255)" />
<rect x="350.0" y="325.0" width="25.0" height="25.0" fill="rgb(0,0,0)" />
<rect x="350.0" y="350.0" width="25.0" height="25.0" fill="rgb(255,255,255)" />
<rect x="350.0" y="375.0" width="25.0" height="25.0" fill="rgb(0,0,0)" />
<rect x="350.0" y="400.0" width="25.0" height="25.0" fill="rgb(8,8,8)" />
<rect x="375.0" y="25.0" width="25.0" height="25.0" fill="rgb(2,2,2)" />
<rect x="375.0" y="50.0" width="25.0" height="25.0" fill="rgb(2,2,2)" />
<rect x="375.0" y="75.0" width="25.0" height="25.0" fill="rgb(2,2,2)" />
<rect x="375.0" y="100.0" width="25.0" height="25.0" fill="rgb(2,2,2)" />
<rect x="375.0" y="125.0" width="25.0" height="25.0" fill="rgb(2,2,2)" />
<rect x="375.0" y="150.0" width="25.0" height="25.0" fill="rgb(2,2,2)" />
<rect x="375.0" y="175.0" width="25.0" height="25.0" fill="rgb(2,2,2)" />
<rect x="375.0" y="200.0" width="25.0" height="25.0" fill="rgb(2,2,2)" />
<rect x="375.0" y="225.0" width="25.0" height="25.0" fill="rgb(2,2,2)" />
<rect x="375.0" y="250.0" width="25.0" height="25.0" fill="rgb(1,1,1)" />
<rect x="375.0" y="275.0" width="25.0" height="25.0" fill="rgb(11,11,11)" />
<rect x="375.0" y="300.0" width="25.0" height="25.0" fill="rgb(0,0,0)" />
<rect x="375.0" y="325.0" width="25.0" height="25.0" fill="rgb(255,255,255)" />
<rect x="375.0" y="350.0" width="25.0" height="25.0" fill="rgb(0,0,0)" />
<rect x="375.0" y="375.0" width="25.0" height="25.0" fill="rgb(11,11,11)" />
<rect x="375.0" y="400.0" width="25.0" height="25.0" fill="rgb(1,1,1)" />
<rect x="400.0" y="25.0" width="25.0" height="25.0" fill="rgb(2,2,2)" />
<rect x="400.0" y="50.0" width="25.0" height="25.0" fill="rgb(2,2,2)" />
<rect x="400.0" y="75.0" width="25.0" height="25.0" fill="rgb(2,2,2)" />
<rect x="400.0" y="100.0" width="25.0" height="25.0" fill="rgb(2,2,2)" />
<rect x="400.0" y="125.0" width="25.0" height="25.0" fill="rgb(2,2,2)" />
<rect x="400.0" y="150.0" width="25.0" height="25.0" fill="rgb(2,2,2)" />
<rect x="400.0" y="175.0" width="25.0" height="25.0" fill="rgb(2,2,2)" />
<rect x="400.0" y="200.0" width="25.0" height="25.0" fill="rgb(2,2,2)" />
<rect x="400.0" y="225.0" width="25.0" height="25.0" fill="rgb(2,2,2)" />
<rect x="400.0" y="250.0" width="25.0" height="25.0" fill="rgb(2,2,2)" />
<rect x="400.0" y="275.0" width="25.0" height="25.0" fill="rgb(1,1,1)" />
<rect x="400.0" y="300.0" width="25.0" height="25.0" fill="rgb(7,7,7)" />
<rect x="400.0" y="325.0" width="25.0" height="25.0" fill="rgb(0,0,0)" />
<rect x="400.0" y="350.0" width="25.0" height="25.0" fill="rgb(7,7,7)" />
<rect x="400.0" y="375.0" width="25.0" height="25.0" fill="rgb(1,1,1)" />
<rect x="400.0" y="400.0" width="25.0" height="25.0" fill="rgb(2,2,2)" />
<circle  cx="342.5075577891952" cy="329.06406313311885" r="7.923039447999762" fill="RED" />
<circle  cx="317.09304545216304" cy="332.29892047988784" r="8.42874919020478" fill="RED" />
</svg>
