<svg xmlns="http://www.w3.org/2000/svg" version="1.1">
<rect x="25.0" y="25.0" width="400.0" height="400.0" fill="GRAY" />
<rect x="25.0" y="25.0" width="25.0" height="25.0" fill="rgb(0,0,0)" />
<rect x="25.0" y="50.0" width="25.0" height="25.0" fill="rgb(0,0,0)" />
<rect x="25.0" y="75.0" width="25.0" height="25.0" fill="rgb(0,0,0)" />
<rect x="25.0" y="100.0" width="25.0" height="25.0" fill="rgb(0,0,0)" />
<rect x="25.0" y="125.0" width="25.0" height="25.0" fill="rgb(0,0,0)" />
<rect x="25.0" y="150.0" width="25.0" height="25.0" fill="rgb(0,0,0)" />
<rect x="25.0" y="175.0" width="25.0" height="25.0" fill="rgb(0,0,0)" />
<rect x="25.0" y="200.0" width="25.0" height="25.0" fill="rgb(0,0,0)" />
<rect x="25.0" y="225.0" width="25.0" height="25.0" fill="rgb(0,0,0)" />
<rect x="25.0" y="250.0" width="25.0" height="25.0" fill="rgb(0,0,0)" />
<rect x="25.0" y="275.0" width="25.0" height="25.0" fill="rgb(0,0,0)" />
<rect x="25.0" y="300.0" width="25.0" height="25.0" fill="rgb(0,0,0)" />
<rect x="25.0" y="325.0" width="25.0" height="25.0" fill="rgb(0,0,0)" />
<rect x="25.0" y="350.0" width="25.0" height="25.0" fill="rgb(0,0,0)" />
<rect x="25.0" y="375.0" width="25.0" height="25.0" fill="rgb(0,0,0)" />
<rect x="25.0" y="400.0" width="25.0" height="25.0" fill="rgb(0,0,0)" />
<rect x="50.0" y="25.0" width="25.0" height="25.0" fill="rgb(0,0,0)" />
<rect x="50.0" y="50.0" width="25.0" height="25.0" fill="rgb(0,0,0)" />
<rect x="50.0" y="75.0" width="25.0" height="25.0" fill="rgb(0,0,0)" />
<rect x="50.0" y="100.0" width="25.0" height="25.0" fill="rgb(0,0,0)" />
<rect x="50.0" y="125.0" width="25.0" height="25.0" fill="rgb(0,0,0)" />
<rect x="50.0" y="150.0" width="25.0" height="25.0" fill="rgb(0,0,0)" />
<rect x="50.0" y="175.0" width="25.0" height="25.0" fill="rgb(0,0,0)" />
<rect x="50.0" y="200.0" width="25.0" height="25.0" fill="rgb(0,0,0)" />
<rect x="50.0" y="225.0" width="25.0" height="25.0" fill="rgb(0,0,0)" />
<rect x="50.0" y="250.0" width="25.0" height="25.0" fill="rgb(0,0,0)" />
<rect x="50.0" y="275.0" width="25.0" height="25.0" fill="rgb(0,0,0)" />
<rect x="50.0" y="300.0" width="25.0" height="25.0" fill="rgb(0,0,0)" />
<rect x="50.0" y="325.0" width="25.0" height="25.0" fill="rgb(0,0,0)" />
<rect x="50.0" y="350.0" width="25.0" height="25.0" fill="rgb(0,0,0)" />
<rect x="50.0" y="375.0" width="25.0" height="25.0" fill="rgb(0,0,0)" />
<rect x="50.0" y="400.0" width="25.0" height="25.0" fill="rgb(0,0,0)" />
<rect x="75.0" y="25.0" width="25.0" height="25.0" fill="rgb(0,0,0)" />
<rect x="75.0" y="50.0" width="25.0" height="25.0" fill="rgb(0,0,0)" />
<rect x="75.0" y="75.0" width="25.0" height="25.0" fill="rgb(0,0,0)" />
<rect x="75.0" y="100.0" width="25.0" height="25.0" fill="rgb(0,0,0)" />
<rect x="75.0" y="125.0" width="25.0" height="25.0" fill="rgb(0,0,0)" />
<rect x="75.0" y="150.0" width="25.0" height="25.0" fill="rgb(0,0,0)" />
<rect x="75.0" y="175.0" width="25.0" height="25.0" fill="rgb(0,0,0)" />
<rect x="75.0" y="200.0" width="25.0" height="25.0" fill="rgb(0,0,0)" />
<rect x="75.0" y="225.0" width="25.0" height="25.0" fill="rgb(0,0,0)" />
<rect x="75.0" y="250.0" width="25.0" height="25.0" fill="rgb(0,0,0)" />
<rect x="75.0" y="275.0" width="25.0" height="25.0" fill="rgb(0,0,0)" />
<rect x="75.0" y="300.0" width="25.0" height="25.0" fill="rgb(0,0,0)" />
<rect x="75.0" y="325.0" width="25.0" height="25.0" fill="rgb(0,0,0)" />
<rect x="75.0" y="350.0" width="25.0" height="25.0" fill="rgb(0,0,0)" />
<rect x="75.0" y="375.0" width="25.0" height="25.0" fill="rgb(0,0,0)" />
<rect x="75.0" y="400.0" width="25.0" height="25.0" fill="rgb(0,0,0)" />
<rect x="100.0" y="25.0" width="25.0" height="25.0" fill="rgb(0,0,0)" />
<rect x="100.0" y="50.0" width="25.0" height="25.0" fill="rgb(0,0,0)" />
<rect x="100.0" y="75.0" width="25.0" height="25.0" fill="rgb(0,0,0)" />
<rect x="100.0" y="100.0" width="25.0" height="25.0" fill="rgb(0,0,0)" />
<rect x="100.0" y="125.0" width="25.0" height="25.0" fill="rgb(0,0,0)" />
<rect x="100.0" y="150.0" width="25.0" height="25.0" fill="rgb(0,0,0)" />
<rect x="100.0" y="175.0" width="25.0" height="25.0" fill="rgb(0,0,0)" />
<rect x="100.0" y="200.0" width="25.0" height="25.0" fill="rgb(0,0,0)" />
<rect x="100.0" y="225.0" width="25.0" height="25.0" fill="rgb(0,0,0)" />
<rect x="100.0" y="250.0" width="25.0" height="25.0" fill="rgb(0,0,0)" />
<rect x="100.0" y="275.0" width="25.0" height="25.0" fill="rgb(0,0,0)" />
<rect x="100.0" y="300.0" width="25.0" height="25.0" fill="rgb(0,0,0)" />
<rect x="100.0" y="325.0" width="25.0" height="25.0" fill="rgb(0,0,0)" />
<rect x="100.0" y="350.0" width="25.0" height="25.0" fill="rgb(0,0,0)" />
<rect x="100.0" y="375.0" width="25.0" height="25.0" fill="rgb(0,0,0)" />
<rect x="100.0" y="400.0" width="25.0" height="25.0" fill="rgb(0,0,0)" />
<rect x="125.0" y="25.0" width="25.0" height="25.0" fill="rgb(0,0,0)" />
<rect x="125.0" y="50.0" width="25.0" height="25.0" fill="rgb(0,0,0)" />
<rect x="125.0" y="75.0" width="25.0" height="25.0" fill="rgb(0,0,0)" />
<rect x="125.0" y="100.0" width="25.0" height="25.0" fill="rgb(0,0,0)" />
<rect x="125.0" y="125.0" width="25.0" height="25.0" fill="rgb(0,0,0)" />
<rect x="125.0" y="150.0" width="25.0" height="25.0" fill="rgb(0,0,0)" />
<rect x="125.0" y="175.0" width="25.0" height="25.0" fill="rgb(0,0,0)" />
<rect x="125.0" y="200.0" width="25.0" height="25.0" fill="rgb(0,0,0)" />
<rect x="125.0" y="225.0" width="25.0" height="25.0" fill="rgb(0,0,0)" />
<rect x="125.0" y="250.0" width="25.0" height="25.0" fill="rgb(0,0,0)" />
<rect x="125.0" y="275.0" width="25.0" height="25.0" fill="rgb(0,0,0)" />
<rect x="125.0" y="300.0" width="25.0" height="25.0" fill="rgb(0,0,0)" />
<rect x="125.0" y="325.0" width="25.0" height="25.0" fill="rgb(0,0,0)" />
<rect x="125.0" y="350.0" width="25.0" height="25.0" fill="rgb(0,0,0)" />
<rect x="125.0" y="375.0" width="25.0" height="25.0" fill="rgb(0,0,0)" />
<rect x="125.0" y="400.0" width="25.0" height="25.0" fill="rgb(0,0,0)" />
<rect x="150.0" y="25.0" width="25.0" height="25.0" fill="rgb(0,0,0)" />
<rect x="150.0" y="50.0" width="25.0" height="25.0" fill="rgb(0,0,0)" />
<rect x="150.0" y="75.0" width="25.0" height="25.0" fill="rgb(0,0,0)" />
<rect x="150.0" y="100.0" width="25.0" height="25.0" fill="rgb(0,0,0)" />
<rect x="150.0" y="125.0" width="25.0" height="25.0" fill="rgb(0,0,0)" />
<rect x="150.0" y="150.0" width="25.0" height="25.0" fill="rgb(0,0,0)" />
<rect x="150.0" y="175.0" width="25.0" height="25.0" fill="rgb(0,0,0)" />
<rect x="150.0" y="200.0" width="25.0" height="25.0" fill="rgb(0,0,0)" />
<rect x="150.0" y="225.0" width="25.0" height="25.0" fill="rgb(0,0,0)" />
<rect x="150.0" y="250.0" width="25.0" height="25.0" fill="rgb(0,0,0)" />
<rect x="150.0" y="275.0" width="25.0" height="25.0" fill="rgb(0,0,0)" />
<rect x="150.0" y="300.0" width="25.0" height="25.0" fill="rgb(0,0,0)" />
<rect x="150.0" y="325.0" width="25.0" height="25.0" fill="rgb(0,0,0)" />
<rect x="150.0" y="350.0" width="25.0" height="25.0" fill="rgb(0,0,0)" />
<rect x="150.0" y="375.0" width="25.0" height="25.0" fill="rgb(0,0,0)" />
<rect x="150.0" y="400.0" width="25.0" height="25.0" fill="rgb(0,0,0)" />
<rect x="175.0" y="25.0" width="25.0" height="25.0" fill="rgb(0,0,0)" />
<rect x="175.0" y="50.0" width="25.0" height="25.0" fill="rgb(0,0,0)" />
<rect x="175.0" y="75.0" width="25.0" height="25.0" fill="rgb(0,0,0)" />
<rect x="175.0" y="100.0" width="25.0" height="25.0" fill="rgb(0,0,0)" />
<rect x="175.0" y="125.0" width="25.0" height="25.0" fill="rgb(0,0,0)" />
<rect x="175.0" y="150.0" width="25.0" height="25.0" fill="rgb(0,0,0)" />
<rect x="175.0" y="175.0" width="25.0" height="25.0" fill="rgb(0,0,0)" />
<rect x="175.0" y="200.0" width="25.0" height="25.0" fill="rgb(0,0,0)" />
<rect x="175.0" y="225.0" width="25.0" height="25.0" fill="rgb(0,0,0)" />
<rect x="175.0" y="250.0" width="25.0" height="25.0" fill="rgb(0,0,0)" />
<rect x="175.0" y="275.0" width="25.0" height="25.0" fill="rgb(0,0,0)" />
<rect x="175.0" y="300.0" width="25.0" height="25.0" fill="rgb(0,0,0)" />
<rect x="175.0" y="325.0" width="25.0" height="25.0" fill="rgb(0,0,0)" />
<rect x="175.0" y="350.0" width="25.0" height="25.0" fill="rgb(0,0,0)" />
<rect x="175.0" y="375.0" width="25.0" height="25.0" fill="rgb(0,0,0)" />
<rect x="175.0" y="400.0" width="25.0" height="25.0" fill="rgb(0,0,0)" />
<rect x="200.0" y="25.0" width="25.0" height="25.0" fill="rgb(0,0,0)" />
<rect x="200.0" y="50.0" width="25.0" height="25.0" fill="rgb(0,0,0)" />
<rect x="200.0" y="75.0" width="25.0" height="25.0" fill="rgb(0,0,0)" />
<rect x="200.0" y="100.0" width="25.0" height="25.0" fill="rgb(0,0,0)" />
<rect x="200.0" y="125.0" width="25.0" height="25.0" fill="rgb(0,0,0)" />
<rect x="200.0" y="150.0" width="25.0" height="25.0" fill="rgb(0,0,0)" />
<rect x="200.0" y="175.0" width="25.0" height="25.0" fill="rgb(0,0,0)" />
<rect x="200.0" y="200.0" width="25.0" height="25.0" fill="rgb(0,0,0)" />
<rect x="200.0" y="225.0" width="25.0" height="25.0" fill="rgb(0,0,0)" />
<rect x="200.0" y="250.0" width="25.0" height="25.0" fill="rgb(0,0,0)" />
<rect x="200.0" y="275.0" width="25.0" height="25.0" fill="rgb(0,0,0)" />
<rect x="200.0" y="300.0" width="25.0" height="25.0" fill="rgb(0,0,0)" />
<rect x="200.0" y="325.0" width="25.0" height="25.0" fill="rgb(0,0,0)" />
<rect x="200.0" y="350.0" width="25.0" height="25.0" fill="rgb(0,0,0)" />
<rect x="200.0" y="375.0" width="25.0" height="25.0" fill="rgb(0,0,0)" />
<rect x="200.0" y="400.0" width="25.0" height="25.0" fill="rgb(0,0,0)" />
<rect x="225.0" y="25.0" width="25.0" height="25.0" fill="rgb(0,0,0)" />
<rect x="225.0" y="50.0" width="25.0" height="25.0" fill="rgb(0,0,0)" />
<rect x="225.0" y="75.0" width="25.0" height="25.0" fill="rgb(0,0,0)" />
<rect x="225.0" y="100.0" width="25.0" height="25.0" fill="rgb(0,0,0)" />
<rect x="225.0" y="125.0" width="25.0" height="25.0" fill="rgb(0,0,0)" />
<rect x="225.0" y="150.0" width="25.0" height="25.0" fill="rgb(0,0,0)" />
<rect x="225.0" y="175.0" width="25.0" height="25.0" fill="rgb(0,0,0)" />
<rect x="225.0" y="200.0" width="25.0" height="25.0" fill="rgb(0,0,0)" />
<rect x="225.0" y="225.0" width="25.0" height="25.0" fill="rgb(0,0,0)" />
<rect x="225.0" y="250.0" width="25.0" height="25.0" fill="rgb(0,0,0)" />
<rect x="225.0" y="275.0" width="25.0" height="25.0" fill="rgb(0,0,0)" />
<rect x="225.0" y="300.0" width="25.0" height="25.0" fill="rgb(0,0,0)" />
<rect x="225.0" y="325.0" width="25.0" height="25.0" fill="rgb(0,0,0)" />
<rect x="225.0" y="350.0" width="25.0" height="25.0" fill="rgb(0,0,0)" />
<rect x="225.0" y="375.0" width="25.0" height="25.0" fill="rgb(0,0,0)" />
<rect x="225.0" y="400.0" width="25.0" height="25.0" fill="rgb(0,0,0)" />
<rect x="250.0" y="25.0" width="25.0" height="25.0" fill="rgb(0,0,0)" />
<rect x="250.0" y="50.0" width="25.0" height="25.0" fill="rgb(0,0,0)" />
<rect x="250.0" y="75.0" width="25.0" height="25.0" fill="rgb(0,0,0)" />
<rect x="250.0" y="100.0" width="25.0" height="25.0" fill="rgb(0,0,0)" />
<rect x="250.0" y="125.0" width="25.0" height="25.0" fill="rgb(0,0,0)" />
<rect x="250.0" y="150.0" width="25.0" height="25.0" fill="rgb(0,0,0)" />
<rect x="250.0" y="175.0" width="25.0" height="25.0" fill="rgb(0,0,0)" />
<rect x="250.0" y="200.0" width="25.0" height="25.0" fill="rgb(0,0,0)" />
<rect x="250.0" y="225.0" width="25.0" height="25.0" fill="rgb(0,0,0)" />
<rect x="250.0" y="250.0" width="25.0" height="25.0" fill="rgb(0,0,0)" />
<rect x="250.0" y="275.0" width="25.0" height="25.0" fill="rgb(0,0,0)" />
<rect x="250.0" y="300.0" width="25.0" height="25.0" fill="rgb(0,0,0)" />
<rect x="250.0" y="325.0" width="25.0" height="25.0" fill="rgb(0,0,0)" />
<rect x="250.0" y="350.0" width="25.0" height="25.0" fill="rgb(0,0,0)" />
<rect x="250.0" y="375.0" width="25.0" height="25.0" fill="rgb(0,0,0)" />
<rect x="250.0" y="400.0" width="25.0" height="25.0" fill="rgb(0,0,0)" />
<rect x="275.0" y="25.0" width="25.0" height="25.0" fill="rgb(0,0,0)" />
<rect x="275.0" y="50.0" width="25.0" height="25.0" fill="rgb(0,0,0)" />
<rect x="275.0" y="75.0" width="25.0" height="25.0" fill="rgb(0,0,0)" />
<rect x="275.0" y="100.0" width="25.0" height="25.0" fill="rgb(0,0,0)" />
<rect x="275.0" y="125.0" width="25.0" height="25.0" fill="rgb(0,0,0)" />
<rect x="275.0" y="150.0" width="25.0" height="25.0" fill="rgb(0,0,0)" />
<rect x="275.0" y="175.0" width="25.0" height="25.0" fill="rgb(0,0,0)" />
<rect x="275.0" y="200.0" width="25.0" height="25.0" fill="rgb(0,0,0)" />
<rect x="275.0" y="225.0" width="25.0" height="25.0" fill="rgb(0,0,0)" />
<rect x="275.0" y="250.0" width="25.0" height="25.0" fill="rgb(0,0,0)" />
<rect x="275.0" y="275.0" width="25.0" height="25.0" fill="rgb(0,0,0)" />
<rect x="275.0" y="300.0" width="25.0" height="25.0" fill="rgb(0,0,0)" />
<rect x="275.0" y="325.0" width="25.0" height="25.0" fill="rgb(0,0,0)" />
<rect x="275.0" y="350.0" width="25.0" height="25.0" fill="rgb(0,0,0)" />
<rect x="275.0" y="375.0" width="25.0" height="25.0" fill="rgb(0,0,0)" />
<rect x="275.0" y="400.0" width="25.0" height="25.0" fill="rgb(0,0,0)" />
<rect x="300.0" y="25.0" width="25.0" height="25.0" fill="rgb(0,0,0)" />
<rect x="300.0" y="50.0" width="25.0" height="25.0" fill="rgb(0,0,0)" />
<rect x="300.0" y="75.0" width="25.0" height="25.0" fill="rgb(0,0,0)" />
<rect x="300.0" y="100.0" width="25.0" height="25.0" fill="rgb(0,0,0)" />
<rect x="300.0" y="125.0" width="25.0" height="25.0" fill="rgb(0,0,0)" />
<rect x="300.0" y="150.0" width="25.0" height="25.0" fill="rgb(0,0,0)" />
<rect x="300.0" y="175.0" width="25.0" height="25.0" fill="rgb(0,0,0)" />
<rect x="300.0" y="200.0" width="25.0" height="25.0" fill="rgb(0,0,0)" />
<rect x="300.0" y="225.0" width="25.0" height="25.0" fill="rgb(0,0,0)" />
<rect x="300.0" y="250.0" width="25.0" height="25.0" fill="rgb(0,0,0)" />
<rect x="300.0" y="275.0" width="25.0" height="25.0" fill="rgb(0,0,0)" />
<rect x="300.0" y="300.0" width="25.0" height="25.0" fill="rgb(0,0,0)" />
<rect x="300.0" y="325.0" width="25.0" height="25.0" fill="rgb(0,0,0)" />
<rect x="300.0" y="350.0" width="25.0" height="25.0" fill="rgb(0,0,0)" />
<rect x="300.0" y="375.0" width="25.0" height="25.0" fill="rgb(0,0,0)" />
<rect x="300.0" y="400.0" width="25.0" height="25.0" fill="rgb(0,0,0)" />
<rect x="325.0" y="25.0" width="25.0" height="25.0" fill="rgb(0,0,0)" />
<rect x="325.0" y="50.0" width="25.0" height="25.0" fill="rgb(0,0,0)" />
<rect x="325.0" y="75.0" width="25.0" height="25.0" fill="rgb(0,0,0)" />
<rect x="325.0" y="100.0" width="25.0" height="25.0" fill="rgb(0,0,0)" />
<rect x="325.0" y="125.0" width="25.0" height="25.0" fill="rgb(0,0,0)" />
<rect x="325.0" y="150.0" width="25.0" height="25.0" fill="rgb(0,0,0)" />
<rect x="325.0" y="175.0" width="25.0" height="25.0" fill="rgb(0,0,0)" />
<rect x="325.0" y="200.0" width="25.0" height="25.0" fill="rgb(0,0,0)" />
<rect x="325.0" y="225.0" width="25.0" height="25.0" fill="rgb(0,0,0)" />
<rect x="325.0" y="250.0" width="25.0" height="25.0" fill="rgb(0,0,0)" />
<rect x="325.0" y="275.0" width="25.0" height="25.0" fill="rgb(0,0,0)" />
<rect x="325.0" y="300.0" width="25.0" height="25.0" fill="rgb(0,0,0)" />
<rect x="325.0" y="325.0" width="25.0" height="25.0" fill="rgb(0,0,0)" />
<rect x="325.0" y="350.0" width="25.0" height="25.0" fill="rgb(0,0,0)" />
<rect x="325.0" y="375.0" width="25.0" height="25.0" fill="rgb(0,0,0)" />
<rect x="325.0" y="400.0" width="25.0" height="25.0" fill="rgb(0,0,0)" />
<rect x="350.0" y="25.0" width="25.0" height="25.0" fill="rgb(0,0,0)" />
<rect x="350.0" y="50.0" width="25.0" height="25.0" fill="rgb(0,0,0)" />
<rect x="350.0" y="75.0" width="25.0" height="25.0" fill="rgb(0,0,0)" />
<rect x="350.0" y="100.0" width="25.0" height="25.0" fill="rgb(0,0,0)" />
<rect x="350.0" y="125.0" width="25.0" height="25.0" fill="rgb(0,0,0)" />
<rect x="350.0" y="150.0" width="25.0" height="25.0" fill="rgb(0,0,0)" />
<rect x="350.0" y="175.0" width="25.0" height="25.0" fill="rgb(0,0,0)" />
<rect x="350.0" y="200.0" width="25.0" height="25.0" fill="rgb(0,0,0)" />
<rect x="350.0" y="225.0" width="25.0" height="25.0" fill="rgb(0,0,0)" />
<rect x="350.0" y="250.0" width="25.0" height="25.0" fill="rgb(0,0,0)" />
<rect x="350.0" y="275.0" width="25.0" height="25.0" fill="rgb(0,0,0)" />
<rect x="350.0" y="300.0" width="25.0" height="25.0" fill="rgb(0,0,0)" />
<rect x="350.0" y="325.0" width="25.0" height="25.0" fill="rgb(0,0,0)" />
<rect x="350.0" y="350.0" width="25.0" height="25.0" fill="rgb(0,0,0)" />
<rect x="350.0" y="375.0" width="25.0" height="25.0" fill="rgb(0,0,0)" />
<rect x="350.0" y="400.0" width="25.0" height="25.0" fill="rgb(0,0,0)" />
<rect x="375.0" y="25.0" width="25.0" height="25.0" fill="rgb(0,0,0)" />
<rect x="375.0" y="50.0" width="25.0" height="25.0" fill="rgb(0,0,0)" />
<rect x="375.0" y="75.0" width="25.0" height="25.0" fill="rgb(0,0,0)" />
<rect x="375.0" y="100.0" width="25.0" height="25.0" fill="rgb(0,0,0)" />
<rect x="375.0" y="125.0" width="25.0" height="25.0" fill="rgb(0,0,0)" />
<rect x="375.0" y="150.0" width="25.0" height="25.0" fill="rgb(0,0,0)" />
<rect x="375.0" y="175.0" width="25.0" height="25.0" fill="rgb(0,0,0)" />
<rect x="375.0" y="200.0" width="25.0" height="25.0" fill="rgb(0,0,0)" />
<rect x="375.0" y="225.0" width="25.0" height="25.0" fill="rgb(0,0,0)" />
<rect x="375.0" y="250.0" width="25.0" height="25.0" fill="rgb(0,0,0)" />
<rect x="375.0" y="275.0" width="25.0" height="25.0" fill="rgb(0,0,0)" />
<rect x="375.0" y="300.0" width="25.0" height="25.0" fill="rgb(0,0,0)" />
<rect x="375.0" y="325.0" width="25.0" height="25.0" fill="rgb(0,0,0)" />
<rect x="375.0" y="350.0" width="25.0" height="25.0" fill="rgb(0,0,0)" />
<rect x="375.0" y="375.0" width="25.0" height="25.0" fill="rgb(0,0,0)" />
<rect x="375.0" y="400.0" width="25.0" height="25.0" fill="rgb(0,0,0)" />
<rect x="400.0" y="25.0" width="25.0" height="25.0" fill="rgb(0,0,0)" />
<rect x="400.0" y="50.0" width="25.0" height="25.0" fill="rgb(0,0,0)" />
<rect x="400.0" y="75.0" width="25.0" height="25.0" fill="rgb(0,0,0)" />
<rect x="400.0" y="100.0" width="25.0" height="25.0" fill="rgb(0,0,0)" />
<rect x="400.0" y="125.0" width="25.0" height="25.0" fill="rgb(0,0,0)" />
<rect x="400.0" y="150.0" width="25.0" height="25.0" fill="rgb(0,0,0)" />
<rect x="400.0" y="175.0" width="25.0" height="25.0" fill="rgb(0,0,0)" />
<rect x="400.0" y="200.0" width="25.0" height="25.0" fill="rgb(0,0,0)" />
<rect x="400.0" y="225.0" width="25.0" height="25.0" fill="rgb(0,0,0)" />
<rect x="400.0" y="250.0" width="25.0" height="25.0" fill="rgb(0,0,0)" />
<rect x="400.0" y="275.0" width="25.0" height="25.0" fill="rgb(0,0,0)" />
<rect x="400.0" y="300.0" width="25.0" height="25.0" fill="rgb(0,0,0)" />
<rect x="400.0" y="325.0" width="25.0" height="25.0" fill="rgb(0,0,0)" />
<rect x="400.0" y="350.0" width="25.0" height="25.0" fill="rgb(0,0,0)" />
<rect x="400.0" y="375.0" width="25.0" height="25.0" fill="rgb(0,0,0)" />
<rect x="400.0" y="400.0" width="25.0" height="25.0" fill="rgb(0,0,0)" />
<circle  cx="308.5082198283741" cy="375.51887574408573" r="8.918414603648445" fill="RED" />
<circle  cx="333.522769239415" cy="365.2740922960899" r="8.452684773384783" fill="RED" />
<circle  cx="351.5747655919645" cy="358.0593438938638" r="8.450700284887684" fill="RED" />
<circle  cx="334.3631989004344" cy="326.51158174277805" r="8.913913995821122" fill="RED" />
<circle  cx="354.6430048055741" cy="338.1180674988057" r="8.092456589336713" fill="RED" />
<circle  cx="353.3341128249506" cy="319.1408553291183" r="8.639207151673837" fill="RED" />
<circle  cx="330.5466011560498" cy="344.7662009441716" r="7.3157665062494575" fill="RED" />
<circle  cx="352.5238988355495" cy="295.66460618200756" r="8.59898017333164" fill="RED" />
<circle  cx="369.26565704529116" cy="311.2515135175126" r="8.325015772652476" fill="RED" />
<circle  cx="322.76223518918516" cy="278.1771037900669" r="7.105775782606615" fill="RED" />
<circle  cx="332.13644314943804" cy="306.4651301513397" r="8.885601298649238" fill="RED" />
<circle  cx="282.85803248366597" cy="290.73427108682404" r="7.467495786545476" fill="RED" />
<circle  cx="336.4902158919105" cy="288.09393761246673" r="7.322358823285424" fill="RED" />
<circle  cx="277.29343227666277" cy="350.35357438292823" r="8.94931865579515" fill="RED" />
<circle  cx="312.2385012119047" cy="349.3647794459626" r="7.750939200618356" fill="RED" />
<circle  cx="303.1101654350474" cy="314.00669556933167" r="7.156160371510299" fill="RED" />
<circle  cx="312.5085777473453" cy="289.45764928640483" r="7.608421397307518" fill="RED" />
<circle  cx="281.30179109392776" cy="314.9896936576516" r="8.852859593557254" fill="RED" />
<circle  cx="297.06649160445033" cy="334.35184131767767" r="8.769931128570555" fill="RED" />
<circle  cx="315.3467444081091" cy="323.1398337216606" r="7.363602629014551" fill="RED" />
</svg>
