<svg xmlns="http://www.w3.org/2000/svg" version="1.1">
<rect x="25.0" y="25.0" width="400.0" height="400.0" fill="GRAY" />
<rect x="25.0" y="25.0" width="25.0" height="25.0" fill="rgb(0,0,0)" />
<rect x="25.0" y="50.0" width="25.0" height="25.0" fill="rgb(0,0,0)" />
<rect x="25.0" y="75.0" width="25.0" height="25.0" fill="rgb(0,0,0)" />
<rect x="25.0" y="100.0" width="25.0" height="25.0" fill="rgb(0,0,0)" />
<rect x="25.0" y="125.0" width="25.0" height="25.0" fill="rgb(0,0,0)" />
<rect x="25.0" y="150.0" width="25.0" height="25.0" fill="rgb(0,0,0)" />
<rect x="25.0" y="175.0" width="25.0" height="25.0" fill="rgb(0,0,0)" />
<rect x="25.0" y="200.0" width="25.0" height="25.0" fill="rgb(0,0,0)" />
<rect x="25.0" y="225.0" width="25.0" height="25.0" fill="rgb(0,0,0)" />
<rect x="25.0" y="250.0" width="25.0" height="25.0" fill="rgb(0,0,0)" />
<rect x="25.0" y="275.0" width="25.0" height="25.0" fill="rgb(0,0,0)" />
<rect x="25.0" y="300.0" width="25.0" height="25.0" fill="rgb(0,0,0)" />
<rect x="25.0" y="325.0" width="25.0" height="25.0" fill="rgb(0,0,0)" />
<rect x="25.0" y="350.0" width="25.0" height="25.0" fill="rgb(0,0,0)" />
<rect x="25.0" y="375.0" width="25.0" height="25.0" fill="rgb(0,0,0)" />
<rect x="25.0" y="400.0" width="25.0" height="25.0" fill="rgb(0,0,0)" />
<rect x="50.0" y="25.0" width="25.0" height="25.0" fill="rgb(0,0,0)" />
<rect x="50.0" y="50.0" width="25.0" height="25.0" fill="rgb(0,0,0)" />
<rect x="50.0" y="75.0" width="25.0" height="25.0" fill="rgb(0,0,0)" />
<rect x="50.0" y="100.0" width="25.0" height="25.0" fill="rgb(0,0,0)" />
<rect x="50.0" y="125.0" width="25.0" height="25.0" fill="rgb(0,0,0)" />
<rect x="50.0" y="150.0" width="25.0" height="25.0" fill="rgb(0,0,0)" />
<rect x="50.0" y="175.0" width="25.0" height="25.0" fill="rgb(0,0,0)" />
<rect x="50.0" y="200.0" width="25.0" height="25.0" fill="rgb(0,0,0)" />
<rect x="50.0" y="225.0" width="25.0" height="25.0" fill="rgb(0,0,0)" />
<rect x="50.0" y="250.0" width="25.0" height="25.0" fill="rgb(0,0,0)" />
<rect x="50.0" y="275.0" width="25.0" height="25.0" fill="rgb(0,0,0)" />
<rect x="50.0" y="300.0" width="25.0" height="25.0" fill="rgb(0,0,0)" />
<rect x="50.0" y="325.0" width="25.0" height="25.0" fill="rgb(0,0,0)" />
<rect x="50.0" y="350.0" width="25.0" height="25.0" fill="rgb(0,0,0)" />
<rect x="50.0" y="375.0" width="25.0" height="25.0" fill="rgb(0,0,0)" />
<rect x="50.0" y="400.0" width="25.0" height="25.0" fill="rgb(0,0,0)" />
<rect x="75.0" y="25.0" width="25.0" height="25.0" fill="rgb(0,0,0)" />
<rect x="75.0" y="50.0" width="25.0" height="25.0" fill="rgb(0,0,0)" />
<rect x="75.0" y="75.0" width="25.0" height="25.0" fill="rgb(0,0,0)" />
<rect x="75.0" y="100.0" width="25.0" height="25.0" fill="rgb(0,0,0)" />
<rect x="75.0" y="125.0" width="25.0" height="25.0" fill="rgb(0,0,0)" />
<rect x="75.0" y="150.0" width="25.0" height="25.0" fill="rgb(0,0,0)" />
<rect x="75.0" y="175.0" width="25.0" height="25.0" fill="rgb(0,0,0)" />
<rect x="75.0" y="200.0" width="25.0" height="25.0" fill="rgb(0,0,0)" />
<rect x="75.0" y="225.0" width="25.0" height="25.0" fill="rgb(0,0,0)" />
<rect x="75.0" y="250.0" width="25.0" height="25.0" fill="rgb(0,0,0)" />
<rect x="75.0" y="275.0" width="25.0" height="25.0" fill="rgb(0,0,0)" />
<rect x="75.0" y="300.0" width="25.0" height="25.0" fill="rgb(0,0,0)" />
<rect x="75.0" y="325.0" width="25.0" height="25.0" fill="rgb(0,0,0)" />
<rect x="75.0" y="350.0" width="25.0" height="25.0" fill="rgb(0,0,0)" />
<rect x="75.0" y="375.0" width="25.0" height="25.0" fill="rgb(0,0,0)" />
<rect x="75.0" y="400.0" width="25.0" height="25.0" fill="rgb(0,0,0)" />
<rect x="100.0" y="25.0" width="25.0" height="25.0" fill="rgb(0,0,0)" />
<rect x="100.0" y="50.0" width="25.0" height="25.0" fill="rgb(0,0,0)" />
<rect x="100.0" y="75.0" width="25.0" height="25.0" fill="rgb(0,0,0)" />
<rect x="100.0" y="100.0" width="25.0" height="25.0" fill="rgb(0,0,0)" />
<rect x="100.0" y="125.0" width="25.0" height="25.0" fill="rgb(0,0,0)" />
<rect x="100.0" y="150.0" width="25.0" height="25.0" fill="rgb(0,0,0)" />
<rect x="100.0" y="175.0" width="25.0" height="25.0" fill="rgb(0,0,0)" />
<rect x="100.0" y="200.0" width="25.0" height="25.0" fill="rgb(0,0,0)" />
<rect x="100.0" y="225.0" width="25.0" height="25.0" fill="rgb(0,0,0)" />
<rect x="100.0" y="250.0" width="25.0" height="25.0" fill="rgb(0,0,0)" />
<rect x="100.0" y="275.0" width="25.0" height="25.0" fill="rgb(0,0,0)" />
<rect x="100.0" y="300.0" width="25.0" height="25.0" fill="rgb(0,0,0)" />
<rect x="100.0" y="325.0" width="25.0" height="25.0" fill="rgb(0,0,0)" />
<rect x="100.0" y="350.0" width="25.0" height="25.0" fill="rgb(0,0,0)" />
<rect x="100.0" y="375.0" width="25.0" height="25.0" fill="rgb(0,0,0)" />
<rect x="100.0" y="400.0" width="25.0" height="25.0" fill="rgb(0,0,0)" />
<rect x="125.0" y="25.0" width="25.0" height="25.0" fill="rgb(0,0,0)" />
<rect x="125.0" y="50.0" width="25.0" height="25.0" fill="rgb(0,0,0)" />
<rect x="125.0" y="75.0" width="25.0" height="25.0" fill="rgb(0,0,0)" />
<rect x="125.0" y="100.0" width="25.0" height="25.0" fill="rgb(0,0,0)" />
<rect x="125.0" y="125.0" width="25.0" height="25.0" fill="rgb(0,0,0)" />
<rect x="125.0" y="150.0" width="25.0" height="25.0" fill="rgb(0,0,0)" />
<rect x="125.0" y="175.0" width="25.0" height="25.0" fill="rgb(0,0,0)" />
<rect x="125.0" y="200.0" width="25.0" height="25.0" fill="rgb(0,0,0)" />
<rect x="125.0" y="225.0" width="25.0" height="25.0" fill="rgb(0,0,0)" />
<rect x="125.0" y="250.0" width="25.0" height="25.0" fill="rgb(0,0,0)" />
<rect x="125.0" y="275.0" width="25.0" height="25.0" fill="rgb(0,0,0)" />
<rect x="125.0" y="300.0" width="25.0" height="25.0" fill="rgb(0,0,0)" />
<rect x="125.0" y="325.0" width="25.0" height="25.0" fill="rgb(0,0,0)" />
<rect x="125.0" y="350.0" width="25.0" height="25.0" fill="rgb(0,0,0)" />
<rect x="125.0" y="375.0" width="25.0" height="25.0" fill="rgb(0,0,0)" />
<rect x="125.0" y="400.0" width="25.0" height="25.0" fill="rgb(0,0,0)" />
<rect x="150.0" y="25.0" width="25.0" height="25.0" fill="rgb(0,0,0)" />
<rect x="150.0" y="50.0" width="25.0" height="25.0" fill="rgb(0,0,0)" />
<rect x="150.0" y="75.0" width="25.0" height="25.0" fill="rgb(0,0,0)" />
<rect x="150.0" y="100.0" width="25.0" height="25.0" fill="rgb(0,0,0)" />
<rect x="150.0" y="125.0" width="25.0" height="25.0" fill="rgb(0,0,0)" />
<rect x="150.0" y="150.0" width="25.0" height="25.0" fill="rgb(0,0,0)" />
<rect x="150.0" y="175.0" width="25.0" height="25.0" fill="rgb(0,0,0)" />
<rect x="150.0" y="200.0" width="25.0" height="25.0" fill="rgb(0,0,0)" />
<rect x="150.0" y="225.0" width="25.0" height="25.0" fill="rgb(0,0,0)" />
<rect x="150.0" y="250.0" width="25.0" height="25.0" fill="rgb(0,0,0)" />
<rect x="150.0" y="275.0" width="25.0" height="25.0" fill="rgb(0,0,0)" />
<rect x="150.0" y="300.0" width="25.0" height="25.0" fill="rgb(0,0,0)" />
<rect x="150.0" y="325.0" width="25.0" height="25.0" fill="rgb(0,0,0)" />
<rect x="150.0" y="350.0" width="25.0" height="25.0" fill="rgb(0,0,0)" />
<rect x="150.0" y="375.0" width="25.0" height="25.0" fill="rgb(0,0,0)" />
<rect x="150.0" y="400.0" width="25.0" height="25.0" fill="rgb(0,0,0)" />
<rect x="175.0" y="25.0" width="25.0" height="25.0" fill="rgb(0,0,0)" />
<rect x="175.0" y="50.0" width="25.0" height="25.0" fill="rgb(0,0,0)" />
<rect x="175.0" y="75.0" width="25.0" height="25.0" fill="rgb(0,0,0)" />
<rect x="175.0" y="100.0" width="25.0" height="25.0" fill="rgb(0,0,0)" />
<rect x="175.0" y="125.0" width="25.0" height="25.0" fill="rgb(0,0,0)" />
<rect x="175.0" y="150.0" width="25.0" height="25.0" fill="rgb(0,0,0)" />
<rect x="175.0" y="175.0" width="25.0" height="25.0" fill="rgb(0,0,0)" />
<rect x="175.0" y="200.0" width="25.0" height="25.0" fill="rgb(0,0,0)" />
<rect x="175.0" y="225.0" width="25.0" height="25.0" fill="rgb(0,0,0)" />
<rect x="175.0" y="250.0" width="25.0" height="25.0" fill="rgb(0,0,0)" />
<rect x="175.0" y="275.0" width="25.0" height="25.0" fill="rgb(0,0,0)" />
<rect x="175.0" y="300.0" width="25.0" height="25.0" fill="rgb(0,0,0)" />
<rect x="175.0" y="325.0" width="25.0" height="25.0" fill="rgb(0,0,0)" />
<rect x="175.0" y="350.0" width="25.0" height="25.0" fill="rgb(0,0,0)" />
<rect x="175.0" y="375.0" width="25.0" height="25.0" fill="rgb(0,0,0)" />
<rect x="175.0" y="400.0" width="25.0" height="25.0" fill="rgb(0,0,0)" />
<rect x="200.0" y="25.0" width="25.0" height="25.0" fill="rgb(0,0,0)" />
<rect x="200.0" y="50.0" width="25.0" height="25.0" fill="rgb(0,0,0)" />
<rect x="200.0" y="75.0" width="25.0" height="25.0" fill="rgb(0,0,0)" />
<rect x="200.0" y="100.0" width="25.0" height="25.0" fill="rgb(0,0,0)" />
<rect x="200.0" y="125.0" width="25.0" height="25.0" fill="rgb(0,0,0)" />
<rect x="200.0" y="150.0" width="25.0" height="25.0" fill="rgb(0,0,0)" />
<rect x="200.0" y="175.0" width="25.0" height="25.0" fill="rgb(0,0,0)" />
<rect x="200.0" y="200.0" width="25.0" height="25.0" fill="rgb(0,0,0)" />
<rect x="200.0" y="225.0" width="25.0" height="25.0" fill="rgb(0,0,0)" />
<rect x="200.0" y="250.0" width="25.0" height="25.0" fill="rgb(0,0,0)" />
<rect x="200.0" y="275.0" width="25.0" height="25.0" fill="rgb(0,0,0)" />
<rect x="200.0" y="300.0" width="25.0" height="25.0" fill="rgb(0,0,0)" />
<rect x="200.0" y="325.0" width="25.0" height="25.0" fill="rgb(0,0,0)" />
<rect x="200.0" y="350.0" width="25.0" height="25.0" fill="rgb(0,0,0)" />
<rect x="200.0" y="375.0" width="25.0" height="25.0" fill="rgb(0,0,0)" />
<rect x="200.0" y="400.0" width="25.0" height="25.0" fill="rgb(0,0,0)" />
<rect x="225.0" y="25.0" width="25.0" height="25.0" fill="rgb(0,0,0)" />
<rect x="225.0" y="50.0" width="25.0" height="25.0" fill="rgb(0,0,0)" />
<rect x="225.0" y="75.0" width="25.0" height="25.0" fill="rgb(0,0,0)" />
<rect x="225.0" y="100.0" width="25.0" height="25.0" fill="rgb(0,0,0)" />
<rect x="225.0" y="125.0" width="25.0" height="25.0" fill="rgb(0,0,0)" />
<rect x="225.0" y="150.0" width="25.0" height="25.0" fill="rgb(0,0,0)" />
<rect x="225.0" y="175.0" width="25.0" height="25.0" fill="rgb(0,0,0)" />
<rect x="225.0" y="200.0" width="25.0" height="25.0" fill="rgb(0,0,0)" />
<rect x="225.0" y="225.0" width="25.0" height="25.0" fill="rgb(0,0,0)" />
<rect x="225.0" y="250.0" width="25.0" height="25.0" fill="rgb(0,0,0)" />
<rect x="225.0" y="275.0" width="25.0" height="25.0" fill="rgb(0,0,0)" />
<rect x="225.0" y="300.0" width="25.0" height="25.0" fill="rgb(0,0,0)" />
<rect x="225.0" y="325.0" width="25.0" height="25.0" fill="rgb(0,0,0)" />
<rect x="225.0" y="350.0" width="25.0" height="25.0" fill="rgb(0,0,0)" />
<rect x="225.0" y="375.0" width="25.0" height="25.0" fill="rgb(0,0,0)" />
<rect x="225.0" y="400.0" width="25.0" height="25.0" fill="rgb(0,0,0)" />
<rect x="250.0" y="25.0" width="25.0" height="25.0" fill="rgb(0,0,0)" />
<rect x="250.0" y="50.0" width="25.0" height="25.0" fill="rgb(0,0,0)" />
<rect x="250.0" y="75.0" width="25.0" height="25.0" fill="rgb(0,0,0)" />
<rect x="250.0" y="100.0" width="25.0" height="25.0" fill="rgb(0,0,0)" />
<rect x="250.0" y="125.0" width="25.0" height="25.0" fill="rgb(0,0,0)" />
<rect x="250.0" y="150.0" width="25.0" height="25.0" fill="rgb(0,0,0)" />
<rect x="250.0" y="175.0" width="25.0" height="25.0" fill="rgb(0,0,0)" />
<rect x="250.0" y="200.0" width="25.0" height="25.0" fill="rgb(0,0,0)" />
<rect x="250.0" y="225.0" width="25.0" height="25.0" fill="rgb(0,0,0)" />
<rect x="250.0" y="250.0" width="25.0" height="25.0" fill="rgb(0,0,0)" />
<rect x="250.0" y="275.0" width="25.0" height="25.0" fill="rgb(0,0,0)" />
<rect x="250.0" y="300.0" width="25.0" height="25.0" fill="rgb(0,0,0)" />
<rect x="250.0" y="325.0" width="25.0" height="25.0" fill="rgb(0,0,0)" />
<rect x="250.0" y="350.0" width="25.0" height="25.0" fill="rgb(0,0,0)" />
<rect x="250.0" y="375.0" width="25.0" height="25.0" fill="rgb(0,0,0)" />
<rect x="250.0" y="400.0" width="25.0" height="25.0" fill="rgb(0,0,0)" />
<rect x="275.0" y="25.0" width="25.0" height="25.0" fill="rgb(0,0,0)" />
<rect x="275.0" y="50.0" width="25.0" height="25.0" fill="rgb(0,0,0)" />
<rect x="275.0" y="75.0" width="25.0" height="25.0" fill="rgb(0,0,0)" />
<rect x="275.0" y="100.0" width="25.0" height="25.0" fill="rgb(0,0,0)" />
<rect x="275.0" y="125.0" width="25.0" height="25.0" fill="rgb(0,0,0)" />
<rect x="275.0" y="150.0" width="25.0" height="25.0" fill="rgb(0,0,0)" />
<rect x="275.0" y="175.0" width="25.0" height="25.0" fill="rgb(0,0,0)" />
<rect x="275.0" y="200.0" width="25.0" height="25.0" fill="rgb(0,0,0)" />
<rect x="275.0" y="225.0" width="25.0" height="25.0" fill="rgb(0,0,0)" />
<rect x="275.0" y="250.0" width="25.0" height="25.0" fill="rgb(0,0,0)" />
<rect x="275.0" y="275.0" width="25.0" height="25.0" fill="rgb(0,0,0)" />
<rect x="275.0" y="300.0" width="25.0" height="25.0" fill="rgb(0,0,0)" />
<rect x="275.0" y="325.0" width="25.0" height="25.0" fill="rgb(0,0,0)" />
<rect x="275.0" y="350.0" width="25.0" height="25.0" fill="rgb(0,0,0)" />
<rect x="275.0" y="375.0" width="25.0" height="25.0" fill="rgb(0,0,0)" />
<rect x="275.0" y="400.0" width="25.0" height="25.0" fill="rgb(0,0,0)" />
<rect x="300.0" y="25.0" width="25.0" height="25.0" fill="rgb(0,0,0)" />
<rect x="300.0" y="50.0" width="25.0" height="25.0" fill="rgb(0,0,0)" />
<rect x="300.0" y="75.0" width="25.0" height="25.0" fill="rgb(0,0,0)" />
<rect x="300.0" y="100.0" width="25.0" height="25.0" fill="rgb(0,0,0)" />
<rect x="300.0" y="125.0" width="25.0" height="25.0" fill="rgb(0,0,0)" />
<rect x="300.0" y="150.0" width="25.0" height="25.0" fill="rgb(0,0,0)" />
<rect x="300.0" y="175.0" width="25.0" height="25.0" fill="rgb(0,0,0)" />
<rect x="300.0" y="200.0" width="25.0" height="25.0" fill="rgb(0,0,0)" />
<rect x="300.0" y="225.0" width="25.0" height="25.0" fill="rgb(0,0,0)" />
<rect x="300.0" y="250.0" width="25.0" height="25.0" fill="rgb(0,0,0)" />
<rect x="300.0" y="275.0" width="25.0" height="25.0" fill="rgb(0,0,0)" />
<rect x="300.0" y="300.0" width="25.0" height="25.0" fill="rgb(0,0,0)" />
<rect x="300.0" y="325.0" width="25.0" height="25.0" fill="rgb(0,0,0)" />
<rect x="300.0" y="350.0" width="25.0" height="25.0" fill="rgb(0,0,0)" />
<rect x="300.0" y="375.0" width="25.0" height="25.0" fill="rgb(0,0,0)" />
<rect x="300.0" y="400.0" width="25.0" height="25.0" fill="rgb(0,0,0)" />
<rect x="325.0" y="25.0" width="25.0" height="25.0" fill="rgb(0,0,0)" />
<rect x="325.0" y="50.0" width="25.0" height="25.0" fill="rgb(0,0,0)" />
<rect x="325.0" y="75.0" width="25.0" height="25.0" fill="rgb(0,0,0)" />
<rect x="325.0" y="100.0" width="25.0" height="25.0" fill="rgb(0,0,0)" />
<rect x="325.0" y="125.0" width="25.0" height="25.0" fill="rgb(0,0,0)" />
<rect x="325.0" y="150.0" width="25.0" height="25.0" fill="rgb(0,0,0)" />
<rect x="325.0" y="175.0" width="25.0" height="25.0" fill="rgb(0,0,0)" />
<rect x="325.0" y="200.0" width="25.0" height="25.0" fill="rgb(0,0,0)" />
<rect x="325.0" y="225.0" width="25.0" height="25.0" fill="rgb(0,0,0)" />
<rect x="325.0" y="250.0" width="25.0" height="25.0" fill="rgb(0,0,0)" />
<rect x="325.0" y="275.0" width="25.0" height="25.0" fill="rgb(0,0,0)" />
<rect x="325.0" y="300.0" width="25.0" height="25.0" fill="rgb(0,0,0)" />
<rect x="325.0" y="325.0" width="25.0" height="25.0" fill="rgb(0,0,0)" />
<rect x="325.0" y="350.0" width="25.0" height="25.0" fill="rgb(0,0,0)" />
<rect x="325.0" y="375.0" width="25.0" height="25.0" fill="rgb(0,0,0)" />
<rect x="325.0" y="400.0" width="25.0" height="25.0" fill="rgb(0,0,0)" />
<rect x="350.0" y="25.0" width="25.0" height="25.0" fill="rgb(0,0,0)" />
<rect x="350.0" y="50.0" width="25.0" height="25.0" fill="rgb(0,0,0)" />
<rect x="350.0" y="75.0" width="25.0" height="25.0" fill="rgb(0,0,0)" />
<rect x="350.0" y="100.0" width="25.0" height="25.0" fill="rgb(0,0,0)" />
<rect x="350.0" y="125.0" width="25.0" height="25.0" fill="rgb(0,0,0)" />
<rect x="350.0" y="150.0" width="25.0" height="25.0" fill="rgb(0,0,0)" />
<rect x="350.0" y="175.0" width="25.0" height="25.0" fill="rgb(0,0,0)" />
<rect x="350.0" y="200.0" width="25.0" height="25.0" fill="rgb(0,0,0)" />
<rect x="350.0" y="225.0" width="25.0" height="25.0" fill="rgb(0,0,0)" />
<rect x="350.0" y="250.0" width="25.0" height="25.0" fill="rgb(0,0,0)" />
<rect x="350.0" y="275.0" width="25.0" height="25.0" fill="rgb(0,0,0)" />
<rect x="350.0" y="300.0" width="25.0" height="25.0" fill="rgb(0,0,0)" />
<rect x="350.0" y="325.0" width="25.0" height="25.0" fill="rgb(0,0,0)" />
<rect x="350.0" y="350.0" width="25.0" height="25.0" fill="rgb(0,0,0)" />
<rect x="350.0" y="375.0" width="25.0" height="25.0" fill="rgb(0,0,0)" />
<rect x="350.0" y="400.0" width="25.0" height="25.0" fill="rgb(0,0,0)" />
<rect x="375.0" y="25.0" width="25.0" height="25.0" fill="rgb(0,0,0)" />
<rect x="375.0" y="50.0" width="25.0" height="25.0" fill="rgb(0,0,0)" />
<rect x="375.0" y="75.0" width="25.0" height="25.0" fill="rgb(0,0,0)" />
<rect x="375.0" y="100.0" width="25.0" height="25.0" fill="rgb(0,0,0)" />
<rect x="375.0" y="125.0" width="25.0" height="25.0" fill="rgb(0,0,0)" />
<rect x="375.0" y="150.0" width="25.0" height="25.0" fill="rgb(0,0,0)" />
<rect x="375.0" y="175.0" width="25.0" height="25.0" fill="rgb(0,0,0)" />
<rect x="375.0" y="200.0" width="25.0" height="25.0" fill="rgb(0,0,0)" />
<rect x="375.0" y="225.0" width="25.0" height="25.0" fill="rgb(0,0,0)" />
<rect x="375.0" y="250.0" width="25.0" height="25.0" fill="rgb(0,0,0)" />
<rect x="375.0" y="275.0" width="25.0" height="25.0" fill="rgb(0,0,0)" />
<rect x="375.0" y="300.0" width="25.0" height="25.0" fill="rgb(0,0,0)" />
<rect x="375.0" y="325.0" width="25.0" height="25.0" fill="rgb(0,0,0)" />
<rect x="375.0" y="350.0" width="25.0" height="25.0" fill="rgb(0,0,0)" />
<rect x="375.0" y="375.0" width="25.0" height="25.0" fill="rgb(0,0,0)" />
<rect x="375.0" y="400.0" width="25.0" height="25.0" fill="rgb(0,0,0)" />
<rect x="400.0" y="25.0" width="25.0" height="25.0" fill="rgb(0,0,0)" />
<rect x="400.0" y="50.0" width="25.0" height="25.0" fill="rgb(0,0,0)" />
<rect x="400.0" y="75.0" width="25.0" height="25.0" fill="rgb(0,0,0)" />
<rect x="400.0" y="100.0" width="25.0" height="25.0" fill="rgb(0,0,0)" />
<rect x="400.0" y="125.0" width="25.0" height="25.0" fill="rgb(0,0,0)" />
<rect x="400.0" y="150.0" width="25.0" height="25.0" fill="rgb(0,0,0)" />
<rect x="400.0" y="175.0" width="25.0" height="25.0" fill="rgb(0,0,0)" />
<rect x="400.0" y="200.0" width="25.0" height="25.0" fill="rgb(0,0,0)" />
<rect x="400.0" y="225.0" width="25.0" height="25.0" fill="rgb(0,0,0)" />
<rect x="400.0" y="250.0" width="25.0" height="25.0" fill="rgb(0,0,0)" />
<rect x="400.0" y="275.0" width="25.0" height="25.0" fill="rgb(0,0,0)" />
<rect x="400.0" y="300.0" width="25.0" height="25.0" fill="rgb(0,0,0)" />
<rect x="400.0" y="325.0" width="25.0" height="25.0" fill="rgb(0,0,0)" />
<rect x="400.0" y="350.0" width="25.0" height="25.0" fill="rgb(0,0,0)" />
<rect x="400.0" y="375.0" width="25.0" height="25.0" fill="rgb(0,0,0)" />
<rect x="400.0" y="400.0" width="25.0" height="25.0" fill="rgb(0,0,0)" />
<circle  cx="366.6076802472546" cy="311.60110185180343" r="7.1373592015196134" fill="RED" />
<circle  cx="352.3908190791083" cy="330.30875168002507" r="9.046237022056303" fill="RED" />
<circle  cx="347.8682726101221" cy="356.7124036475174" r="7.24511341296955" fill="RED" />
<circle  cx="309.4523247864612" cy="362.8559098008703" r="7.646103055254155" fill="RED" />
<circle  cx="324.83128448008875" cy="285.1196125756771" r="7.7942411635670545" fill="RED" />
<circle  cx="339.7496198596529" cy="299.847023086571" r="7.372239517602572" fill="RED" />
<circle  cx="299.1685481402491" cy="296.61464015339953" r="8.143057698486823" fill="RED" />
<circle  cx="289.3821768056088" cy="321.5676915904655" r="7.589900200237699" fill="RED" />
<circle  cx="294.3382065205214" cy="351.72265530295334" r="7.6725982988641555" fill="RED" />
<circle  cx="320.85785519452673" cy="344.4626098435225" r="8.144154056234365" fill="RED" />
<circle  cx="335.5155928869344" cy="331.5155372830178" r="7.642244509448835" fill="RED" />
<circle  cx="331.19696513208055" cy="316.2259052208162" r="7.61797093505593" fill="RED" />
<circle  cx="328.2050237439992" cy="362.2572649817886" r="7.246814791996556" fill="RED" />
<circle  cx="303.6264306480323" cy="337.3413731186286" r="7.518802407896566" fill="RED" />
<circle  cx="311.81538149026494" cy="313.60268409609034" r="7.843573523619532" fill="RED" />
</svg>
