<svg xmlns="http://www.w3.org/2000/svg" version="1.1">
<rect x="25.0" y="25.0" width="400.0" height="400.0" fill="GRAY" />
<rect x="25.0" y="25.0" width="25.0" height="25.0" fill="rgb(2,2,2)" />
<rect x="25.0" y="50.0" width="25.0" height="25.0" fill="rgb(2,2,2)" />
<rect x="25.0" y="75.0" width="25.0" height="25.0" fill="rgb(2,2,2)" />
<rect x="25.0" y="100.0" width="25.0" height="25.0" fill="rgb(2,2,2)" />
<rect x="25.0" y="125.0" width="25.0" height="25.0" fill="rgb(2,2,2)" />
<rect x="25.0" y="150.0" width="25.0" height="25.0" fill="rgb(2,2,2)" />
<rect x="25.0" y="175.0" width="25.0" height="25.0" fill="rgb(2,2,2)" />
<rect x="25.0" y="200.0" width="25.0" height="25.0" fill="rgb(2,2,2)" />
<rect x="25.0" y="225.0" width="25.0" height="25.0" fill="rgb(2,2,2)" />
<rect x="25.0" y="250.0" width="25.0" height="25.0" fill="rgb(2,2,2)" />
<rect x="25.0" y="275.0" width="25.0" height="25.0" fill="rgb(2,2,2)" />
<rect x="25.0" y="300.0" width="25.0" height="25.0" fill="rgb(2,2,2)" />
<rect x="25.0" y="325.0" width="25.0" height="25.0" fill="rgb(2,2,2)" />
<rect x="25.0" y="350.0" width="25.0" height="25.0" fill="rgb(2,2,2)" />
<rect x="25.0" y="375.0" width="25.0" height="25.0" fill="rgb(2,2,2)" />
<rect x="25.0" y="400.0" width="25.0" height="25.0" fill="rgb(2,2,2)" />
<rect x="50.0" y="25.0" width="25.0" height="25.0" fill="rgb(2,2,2)" />
<rect x="50.0" y="50.0" width="25.0" height="25.0" fill="rgb(2,2,2)" />
<rect x="50.0" y="75.0" width="25.0" height="25.0" fill="rgb(2,2,2)" />
<rect x="50.0" y="100.0" width="25.0" height="25.0" fill="rgb(2,2,2)" />
<rect x="50.0" y="125.0" width="25.0" height="25.0" fill="rgb(2,2,2)" />
<rect x="50.0" y="150.0" width="25.0" height="25.0" fill="rgb(2,2,2)" />
<rect x="50.0" y="175.0" width="25.0" height="25.0" fill="rgb(2,2,2)" />
<rect x="50.0" y="200.0" width="25.0" height="25.0" fill="rgb(2,2,2)" />
<rect x="50.0" y="225.0" width="25.0" height="25.0" fill="rgb(2,2,2)" />
<rect x="50.0" y="250.0" width="25.0" height="25.0" fill="rgb(2,2,2)" />
<rect x="50.0" y="275.0" width="25.0" height="25.0" fill="rgb(2,2,2)" />
<rect x="50.0" y="300.0" width="25.0" height="25.0" fill="rgb(2,2,2)" />
<rect x="50.0" y="325.0" width="25.0" height="25.0" fill="rgb(2,2,2)" />
<rect x="50.0" y="350.0" width="25.0" height="25.0" fill="rgb(2,2,2)" />
<rect x="50.0" y="375.0" width="25.0" height="25.0" fill="rgb(2,2,2)" />
<rect x="50.0" y="400.0" width="25.0" height="25.0" fill="rgb(2,2,2)" />
<rect x="75.0" y="25.0" width="25.0" height="25.0" fill="rgb(2,2,2)" />
<rect x="75.0" y="50.0" width="25.0" height="25.0" fill="rgb(2,2,2)" />
<rect x="75.0" y="75.0" width="25.0" height="25.0" fill="rgb(2,2,2)" />
<rect x="75.0" y="100.0" width="25.0" height="25.0" fill="rgb(2,2,2)" />
<rect x="75.0" y="125.0" width="25.0" height="25.0" fill="rgb(2,2,2)" />
<rect x="75.0" y="150.0" width="25.0" height="25.0" fill="rgb(2,2,2)" />
<rect x="75.0" y="175.0" width="25.0" height="25.0" fill="rgb(2,2,2)" />
<rect x="75.0" y="200.0" width="25.0" height="25.0" fill="rgb(2,2,2)" />
<rect x="75.0" y="225.0" width="25.0" height="25.0" fill="rgb(2,2,2)" />
<rect x="75.0" y="250.0" width="25.0" height="25.0" fill="rgb(2,2,2)" />
<rect x="75.0" y="275.0" width="25.0" height="25.0" fill="rgb(2,2,2)" />
<rect x="75.0" y="300.0" width="25.0" height="25.0" fill="rgb(2,2,2)" />
<rect x="75.0" y="325.0" width="25.0" height="25.0" fill="rgb(2,2,2)" />
<rect x="75.0" y="350.0" width="25.0" height="25.0" fill="rgb(2,2,2)" />
<rect x="75.0" y="375.0" width="25.0" height="25.0" fill="rgb(2,2,2)" />
<rect x="75.0" y="400.0" width="25.0" height="25.0" fill="rgb(2,2,2)" />
<rect x="100.0" y="25.0" width="25.0" height="25.0" fill="rgb(2,2,2)" />
<rect x="100.0" y="50.0" width="25.0" height="25.0" fill="rgb(2,2,2)" />
<rect x="100.0" y="75.0" width="25.0" height="25.0" fill="rgb(2,2,2)" />
<rect x="100.0" y="100.0" width="25.0" height="25.0" fill="rgb(2,2,2)" />
<rect x="100.0" y="125.0" width="25.0" height="25.0" fill="rgb(2,2,2)" />
<rect x="100.0" y="150.0" width="25.0" height="25.0" fill="rgb(2,2,2)" />
<rect x="100.0" y="175.0" width="25.0" height="25.0" fill="rgb(2,2,2)" />
<rect x="100.0" y="200.0" width="25.0" height="25.0" fill="rgb(2,2,2)" />
<rect x="100.0" y="225.0" width="25.0" height="25.0" fill="rgb(2,2,2)" />
<rect x="100.0" y="250.0" width="25.0" height="25.0" fill="rgb(2,2,2)" />
<rect x="100.0" y="275.0" width="25.0" height="25.0" fill="rgb(2,2,2)" />
<rect x="100.0" y="300.0" width="25.0" height="25.0" fill="rgb(3,3,3)" />
<rect x="100.0" y="325.0" width="25.0" height="25.0" fill="rgb(1,1,1)" />
<rect x="100.0" y="350.0" width="25.0" height="25.0" fill="rgb(3,3,3)" />
<rect x="100.0" y="375.0" width="25.0" height="25.0" fill="rgb(2,2,2)" />
<rect x="100.0" y="400.0" width="25.0" height="25.0" fill="rgb(2,2,2)" />
<rect x="125.0" y="25.0" width="25.0" height="25.0" fill="rgb(2,2,2)" />
<rect x="125.0" y="50.0" width="25.0" height="25.0" fill="rgb(2,2,2)" />
<rect x="125.0" y="75.0" width="25.0" height="25.0" fill="rgb(2,2,2)" />
<rect x="125.0" y="100.0" width="25.0" height="25.0" fill="rgb(2,2,2)" />
<rect x="125.0" y="125.0" width="25.0" height="25.0" fill="rgb(2,2,2)" />
<rect x="125.0" y="150.0" width="25.0" height="25.0" fill="rgb(2,2,2)" />
<rect x="125.0" y="175.0" width="25.0" height="25.0" fill="rgb(2,2,2)" />
<rect x="125.0" y="200.0" width="25.0" height="25.0" fill="rgb(2,2,2)" />
<rect x="125.0" y="225.0" width="25.0" height="25.0" fill="rgb(2,2,2)" />
<rect x="125.0" y="250.0" width="25.0" height="25.0" fill="rgb(2,2,2)" />
<rect x="125.0" y="275.0" width="25.0" height="25.0" fill="rgb(4,4,4)" />
<rect x="125.0" y="300.0" width="25.0" height="25.0" fill="rgb(0,0,0)" />
<rect x="125.0" y="325.0" width="25.0" height="25.0" fill="rgb(115,115,115)" />
<rect x="125.0" y="350.0" width="25.0" height="25.0" fill="rgb(0,0,0)" />
<rect x="125.0" y="375.0" width="25.0" height="25.0" fill="rgb(4,4,4)" />
<rect x="125.0" y="400.0" width="25.0" height="25.0" fill="rgb(2,2,2)" />
<rect x="150.0" y="25.0" width="25.0" height="25.0" fill="rgb(2,2,2)" />
<rect x="150.0" y="50.0" width="25.0" height="25.0" fill="rgb(2,2,2)" />
<rect x="150.0" y="75.0" width="25.0" height="25.0" fill="rgb(2,2,2)" />
<rect x="150.0" y="100.0" width="25.0" height="25.0" fill="rgb(2,2,2)" />
<rect x="150.0" y="125.0" width="25.0" height="25.0" fill="rgb(2,2,2)" />
<rect x="150.0" y="150.0" width="25.0" height="25.0" fill="rgb(2,2,2)" />
<rect x="150.0" y="175.0" width="25.0" height="25.0" fill="rgb(2,2,2)" />
<rect x="150.0" y="200.0" width="25.0" height="25.0" fill="rgb(2,2,2)" />
<rect x="150.0" y="225.0" width="25.0" height="25.0" fill="rgb(2,2,2)" />
<rect x="150.0" y="250.0" width="25.0" height="25.0" fill="rgb(8,8,8)" />
<rect x="150.0" y="275.0" width="25.0" height="25.0" fill="rgb(0,0,0)" />
<rect x="150.0" y="300.0" width="25.0" height="25.0" fill="rgb(255,255,255)" />
<rect x="150.0" y="325.0" width="25.0" height="25.0" fill="rgb(0,0,0)" />
<rect x="150.0" y="350.0" width="25.0" height="25.0" fill="rgb(255,255,255)" />
<rect x="150.0" y="375.0" width="25.0" height="25.0" fill="rgb(0,0,0)" />
<rect x="150.0" y="400.0" width="25.0" height="25.0" fill="rgb(7,7,7)" />
<rect x="175.0" y="25.0" width="25.0" height="25.0" fill="rgb(2,2,2)" />
<rect x="175.0" y="50.0" width="25.0" height="25.0" fill="rgb(2,2,2)" />
<rect x="175.0" y="75.0" width="25.0" height="25.0" fill="rgb(2,2,2)" />
<rect x="175.0" y="100.0" width="25.0" height="25.0" fill="rgb(2,2,2)" />
<rect x="175.0" y="125.0" width="25.0" height="25.0" fill="rgb(2,2,2)" />
<rect x="175.0" y="150.0" width="25.0" height="25.0" fill="rgb(2,2,2)" />
<rect x="175.0" y="175.0" width="25.0" height="25.0" fill="rgb(2,2,2)" />
<rect x="175.0" y="200.0" width="25.0" height="25.0" fill="rgb(2,2,2)" />
<rect x="175.0" y="225.0" width="25.0" height="25.0" fill="rgb(10,10,10)" />
<rect x="175.0" y="250.0" width="25.0" height="25.0" fill="rgb(0,0,0)" />
<rect x="175.0" y="275.0" width="25.0" height="25.0" fill="rgb(255,255,255)" />
<rect x="175.0" y="300.0" width="25.0" height="25.0" fill="rgb(0,0,0)" />
<rect x="175.0" y="325.0" width="25.0" height="25.0" fill="rgb(255,255,255)" />
<rect x="175.0" y="350.0" width="25.0" height="25.0" fill="rgb(0,0,0)" />
<rect x="175.0" y="375.0" width="25.0" height="25.0" fill="rgb(255,255,255)" />
<rect x="175.0" y="400.0" width="25.0" height="25.0" fill="rgb(0,0,0)" />
<rect x="200.0" y="25.0" width="25.0" height="25.0" fill="rgb(2,2,2)" />
<rect x="200.0" y="50.0" width="25.0" height="25.0" fill="rgb(2,2,2)" />
<rect x="200.0" y="75.0" width="25.0" height="25.0" fill="rgb(2,2,2)" />
<rect x="200.0" y="100.0" width="25.0" height="25.0" fill="rgb(2,2,2)" />
<rect x="200.0" y="125.0" width="25.0" height="25.0" fill="rgb(2,2,2)" />
<rect x="200.0" y="150.0" width="25.0" height="25.0" fill="rgb(2,2,2)" />
<rect x="200.0" y="175.0" width="25.0" height="25.0" fill="rgb(2,2,2)" />
<rect x="200.0" y="200.0" width="25.0" height="25.0" fill="rgb(10,10,10)" />
<rect x="200.0" y="225.0" width="25.0" height="25.0" fill="rgb(0,0,0)" />
<rect x="200.0" y="250.0" width="25.0" height="25.0" fill="rgb(255,255,255)" />
<rect x="200.0" y="275.0" width="25.0" height="25.0" fill="rgb(0,0,0)" />
<rect x="200.0" y="300.0" width="25.0" height="25.0" fill="rgb(255,255,255)" />
<rect x="200.0" y="325.0" width="25.0" height="25.0" fill="rgb(0,0,0)" />
<rect x="200.0" y="350.0" width="25.0" height="25.0" fill="rgb(255,255,255)" />
<rect x="200.0" y="375.0" width="25.0" height="25.0" fill="rgb(0,0,0)" />
<rect x="200.0" y="400.0" width="25.0" height="25.0" fill="rgb(255,255,255)" />
<rect x="225.0" y="25.0" width="25.0" height="25.0" fill="rgb(2,2,2)" />
<rect x="225.0" y="50.0" width="25.0" height="25.0" fill="rgb(2,2,2)" />
<rect x="225.0" y="75.0" width="25.0" height="25.0" fill="rgb(2,2,2)" />
<rect x="225.0" y="100.0" width="25.0" height="25.0" fill="rgb(2,2,2)" />
<rect x="225.0" y="125.0" width="25.0" height="25.0" fill="rgb(2,2,2)" />
<rect x="225.0" y="150.0" width="25.0" height="25.0" fill="rgb(2,2,2)" />
<rect x="225.0" y="175.0" width="25.0" height="25.0" fill="rgb(8,8,8)" />
<rect x="225.0" y="200.0" width="25.0" height="25.0" fill="rgb(0,0,0)" />
<rect x="225.0" y="225.0" width="25.0" height="25.0" fill="rgb(255,255,255)" />
<rect x="225.0" y="250.0" width="25.0" height="25.0" fill="rgb(0,0,0)" />
<rect x="225.0" y="275.0" width="25.0" height="25.0" fill="rgb(255,255,255)" />
<rect x="225.0" y="300.0" width="25.0" height="25.0" fill="rgb(0,0,0)" />
<rect x="225.0" y="325.0" width="25.0" height="25.0" fill="rgb(255,255,255)" />
<rect x="225.0" y="350.0" width="25.0" height="25.0" fill="rgb(0,0,0)" />
<rect x="225.0" y="375.0" width="25.0" height="25.0" fill="rgb(255,255,255)" />
<rect x="225.0" y="400.0" width="25.0" height="25.0" fill="rgb(0,0,0)" />
<rect x="250.0" y="25.0" width="25.0" height="25.0" fill="rgb(2,2,2)" />
<rect x="250.0" y="50.0" width="25.0" height="25.0" fill="rgb(2,2,2)" />
<rect x="250.0" y="75.0" width="25.0" height="25.0" fill="rgb(2,2,2)" />
<rect x="250.0" y="100.0" width="25.0" height="25.0" fill="rgb(2,2,2)" />
<rect x="250.0" y="125.0" width="25.0" height="25.0" fill="rgb(2,2,2)" />
<rect x="250.0" y="150.0" width="25.0" height="25.0" fill="rgb(4,4,4)" />
<rect x="250.0" y="175.0" width="25.0" height="25.0" fill="rgb(0,0,0)" />
<rect x="250.0" y="200.0" width="25.0" height="25.0" fill="rgb(255,255,255)" />
<rect x="250.0" y="225.0" width="25.0" height="25.0" fill="rgb(0,0,0)" />
<rect x="250.0" y="250.0" width="25.0" height="25.0" fill="rgb(255,255,255)" />
<rect x="250.0" y="275.0" width="25.0" height="25.0" fill="rgb(0,0,0)" />
<rect x="250.0" y="300.0" width="25.0" height="25.0" fill="rgb(255,255,255)" />
<rect x="250.0" y="325.0" width="25.0" height="25.0" fill="rgb(0,0,0)" />
<rect x="250.0" y="350.0" width="25.0" height="25.0" fill="rgb(255,255,255)" />
<rect x="250.0" y="375.0" width="25.0" height="25.0" fill="rgb(0,0,0)" />
<rect x="250.0" y="400.0" width="25.0" height="25.0" fill="rgb(255,255,255)" />
<rect x="275.0" y="25.0" width="25.0" height="25.0" fill="rgb(2,2,2)" />
<rect x="275.0" y="50.0" width="25.0" height="25.0" fill="rgb(2,2,2)" />
<rect x="275.0" y="75.0" width="25.0" height="25.0" fill="rgb(2,2,2)" />
<rect x="275.0" y="100.0" width="25.0" height="25.0" fill="rgb(2,2,2)" />
<rect x="275.0" y="125.0" width="25.0" height="25.0" fill="rgb(3,3,3)" />
<rect x="275.0" y="150.0" width="25.0" height="25.0" fill="rgb(0,0,0)" />
<rect x="275.0" y="175.0" width="25.0" height="25.0" fill="rgb(255,255,255)" />
<rect x="275.0" y="200.0" width="25.0" height="25.0" fill="rgb(0,0,0)" />
<rect x="275.0" y="225.0" width="25.0" height="25.0" fill="rgb(255,255,255)" />
<rect x="275.0" y="250.0" width="25.0" height="25.0" fill="rgb(0,0,0)" />
<rect x="275.0" y="275.0" width="25.0" height="25.0" fill="rgb(255,255,255)" />
<rect x="275.0" y="300.0" width="25.0" height="25.0" fill="rgb(0,0,0)" />
<rect x="275.0" y="325.0" width="25.0" height="25.0" fill="rgb(255,255,255)" />
<rect x="275.0" y="350.0" width="25.0" height="25.0" fill="rgb(0,0,0)" />
<rect x="275.0" y="375.0" width="25.0" height="25.0" fill="rgb(255,255,255)" />
<rect x="275.0" y="400.0" width="25.0" height="25.0" fill="rgb(0,0,0)" />
<rect x="300.0" y="25.0" width="25.0" height="25.0" fill="rgb(2,2,2)" />
<rect x="300.0" y="50.0" width="25.0" height="25.0" fill="rgb(2,2,2)" />
<rect x="300.0" y="75.0" width="25.0" height="25.0" fill="rgb(2,2,2)" />
<rect x="300.0" y="100.0" width="25.0" height="25.0" fill="rgb(2,2,2)" />
<rect x="300.0" y="125.0" width="25.0" height="25.0" fill="rgb(1,1,1)" />
<rect x="300.0" y="150.0" width="25.0" height="25.0" fill="rgb(116,116,116)" />
<rect x="300.0" y="175.0" width="25.0" height="25.0" fill="rgb(0,0,0)" />
<rect x="300.0" y="200.0" width="25.0" height="25.0" fill="rgb(255,255,255)" />
<rect x="300.0" y="225.0" width="25.0" height="25.0" fill="rgb(0,0,0)" />
<rect x="300.0" y="250.0" width="25.0" height="25.0" fill="rgb(255,255,255)" />
<rect x="300.0" y="275.0" width="25.0" height="25.0" fill="rgb(0,0,0)" />
<rect x="300.0" y="300.0" width="25.0" height="25.0" fill="rgb(255,255,255)" />
<rect x="300.0" y="325.0" width="25.0" height="25.0" fill="rgb(0,0,0)" />
<rect x="300.0" y="350.0" width="25.0" height="25.0" fill="rgb(255,255,255)" />
<rect x="300.0" y="375.0" width="25.0" height="25.0" fill="rgb(0,0,0)" />
<rect x="300.0" y="400.0" width="25.0" height="25.0" fill="rgb(255,255,255)" />
<rect x="325.0" y="25.0" width="25.0" height="25.0" fill="rgb(2,2,2)" />
<rect x="325.0" y="50.0" width="25.0" height="25.0" fill="rgb(2,2,2)" />
<rect x="325.0" y="75.0" width="25.0" height="25.0" fill="rgb(2,2,2)" />
<rect x="325.0" y="100.0" width="25.0" height="25.0" fill="rgb(2,2,2)" />
<rect x="325.0" y="125.0" width="25.0" height="25.0" fill="rgb(3,3,3)" />
<rect x="325.0" y="150.0" width="25.0" height="25.0" fill="rgb(0,0,0)" />
<rect x="325.0" y="175.0" width="25.0" height="25.0" fill="rgb(255,255,255)" />
<rect x="325.0" y="200.0" width="25.0" height="25.0" fill="rgb(0,0,0)" />
<rect x="325.0" y="225.0" width="25.0" height="25.0" fill="rgb(255,255,255)" />
<rect x="325.0" y="250.0" width="25.0" height="25.0" fill="rgb(0,0,0)" />
<rect x="325.0" y="275.0" width="25.0" height="25.0" fill="rgb(255,255,255)" />
<rect x="325.0" y="300.0" width="25.0" height="25.0" fill="rgb(0,0,0)" />
<rect x="325.0" y="325.0" width="25.0" height="25.0" fill="rgb(255,255,255)" />
<rect x="325.0" y="350.0" width="25.0" height="25.0" fill="rgb(0,0,0)" />
<rect x="325.0" y="375.0" width="25.0" height="25.0" fill="rgb(255,255,255)" />
<rect x="325.0" y="400.0" width="25.0" height="25.0" fill="rgb(0,0,0)" />
<rect x="350.0" y="25.0" width="25.0" height="25.0" fill="rgb(2,2,2)" />
<rect x="350.0" y="50.0" width="25.0" height="25.0" fill="rgb(2,2,2)" />
<rect x="350.0" y="75.0" width="25.0" height="25.0" fill="rgb(2,2,2)" />
<rect x="350.0" y="100.0" width="25.0" height="25.0" fill="rgb(2,2,2)" />
<rect x="350.0" y="125.0" width="25.0" height="25.0" fill="rgb(2,2,2)" />
<rect x="350.0" y="150.0" width="25.0" height="25.0" fill="rgb(5,5,5)" />
<rect x="350.0" y="175.0" width="25.0" height="25.0" fill="rgb(0,0,0)" />
<rect x="350.0" y="200.0" width="25.0" height="25.0" fill="rgb(255,255,255)" />
<rect x="350.0" y="225.0" width="25.0" height="25.0" fill="rgb(0,0,0)" />
<rect x="350.0" y="250.0" width="25.0" height="25.0" fill="rgb(255,255,255)" />
<rect x="350.0" y="275.0" width="25.0" height="25.0" fill="rgb(0,0,0)" />
<rect x="350.0" y="300.0" width="25.0" height="25.0" fill="rgb(255,255,255)" />
<rect x="350.0" y="325.0" width="25.0" height="25.0" fill="rgb(0,0,0)" />
<rect x="350.0" y="350.0" width="25.0" height="25.0" fill="rgb(255,255,255)" />
<rect x="350.0" y="375.0" width="25.0" height="25.0" fill="rgb(0,0,0)" />
<rect x="350.0" y="400.0" width="25.0" height="25.0" fill="rgb(255,255,255)" />
<rect x="375.0" y="25.0" width="25.0" height="25.0" fill="rgb(2,2,2)" />
<rect x="375.0" y="50.0" width="25.0" height="25.0" fill="rgb(2,2,2)" />
<rect x="375.0" y="75.0" width="25.0" height="25.0" fill="rgb(2,2,2)" />
<rect x="375.0" y="100.0" width="25.0" height="25.0" fill="rgb(2,2,2)" />
<rect x="375.0" y="125.0" width="25.0" height="25.0" fill="rgb(2,2,2)" />
<rect x="375.0" y="150.0" width="25.0" height="25.0" fill="rgb(2,2,2)" />
<rect x="375.0" y="175.0" width="25.0" height="25.0" fill="rgb(10,10,10)" />
<rect x="375.0" y="200.0" width="25.0" height="25.0" fill="rgb(0,0,0)" />
<rect x="375.0" y="225.0" width="25.0" height="25.0" fill="rgb(255,255,255)" />
<rect x="375.0" y="250.0" width="25.0" height="25.0" fill="rgb(0,0,0)" />
<rect x="375.0" y="275.0" width="25.0" height="25.0" fill="rgb(255,255,255)" />
<rect x="375.0" y="300.0" width="25.0" height="25.0" fill="rgb(0,0,0)" />
<rect x="375.0" y="325.0" width="25.0" height="25.0" fill="rgb(255,255,255)" />
<rect x="375.0" y="350.0" width="25.0" height="25.0" fill="rgb(0,0,0)" />
<rect x="375.0" y="375.0" width="25.0" height="25.0" fill="rgb(255,255,255)" />
<rect x="375.0" y="400.0" width="25.0" height="25.0" fill="rgb(0,0,0)" />
<rect x="400.0" y="25.0" width="25.0" height="25.0" fill="rgb(2,2,2)" />
<rect x="400.0" y="50.0" width="25.0" height="25.0" fill="rgb(2,2,2)" />
<rect x="400.0" y="75.0" width="25.0" height="25.0" fill="rgb(2,2,2)" />
<rect x="400.0" y="100.0" width="25.0" height="25.0" fill="rgb(2,2,2)" />
<rect x="400.0" y="125.0" width="25.0" height="25.0" fill="rgb(2,2,2)" />
<rect x="400.0" y="150.0" width="25.0" height="25.0" fill="rgb(2,2,2)" />
<rect x="400.0" y="175.0" width="25.0" height="25.0" fill="rgb(1,1,1)" />
<rect x="400.0" y="200.0" width="25.0" height="25.0" fill="rgb(15,15,15)" />
<rect x="400.0" y="225.0" width="25.0" height="25.0" fill="rgb(0,0,0)" />
<rect x="400.0" y="250.0" width="25.0" height="25.0" fill="rgb(255,255,255)" />
<rect x="400.0" y="275.0" width="25.0" height="25.0" fill="rgb(0,0,0)" />
<rect x="400.0" y="300.0" width="25.0" height="25.0" fill="rgb(255,255,255)" />
<rect x="400.0" y="325.0" width="25.0" height="25.0" fill="rgb(0,0,0)" />
<rect x="400.0" y="350.0" width="25.0" height="25.0" fill="rgb(255,255,255)" />
<rect x="400.0" y="375.0" width="25.0" height="25.0" fill="rgb(0,0,0)" />
<rect x="400.0" y="400.0" width="25.0" height="25.0" fill="rgb(255,255,255)" />
<circle  cx="341.27397251198414" cy="329.39898922222955" r="8.128924128390125" fill="RED" />
<circle  cx="315.66771532296116" cy="330.61847575406966" r="8.647775025492518" fill="RED" />
</svg>
