<svg xmlns="http://www.w3.org/2000/svg" version="1.1">
<rect x="25.0" y="25.0" width="400.0" height="400.0" fill="GRAY" />
<rect x="25.0" y="25.0" width="25.0" height="25.0" fill="rgb(0,0,0)" />
<rect x="25.0" y="50.0" width="25.0" height="25.0" fill="rgb(0,0,0)" />
<rect x="25.0" y="75.0" width="25.0" height="25.0" fill="rgb(0,0,0)" />
<rect x="25.0" y="100.0" width="25.0" height="25.0" fill="rgb(0,0,0)" />
<rect x="25.0" y="125.0" width="25.0" height="25.0" fill="rgb(0,0,0)" />
<rect x="25.0" y="150.0" width="25.0" height="25.0" fill="rgb(0,0,0)" />
<rect x="25.0" y="175.0" width="25.0" height="25.0" fill="rgb(0,0,0)" />
<rect x="25.0" y="200.0" width="25.0" height="25.0" fill="rgb(0,0,0)" />
<rect x="25.0" y="225.0" width="25.0" height="25.0" fill="rgb(0,0,0)" />
<rect x="25.0" y="250.0" width="25.0" height="25.0" fill="rgb(0,0,0)" />
<rect x="25.0" y="275.0" width="25.0" height="25.0" fill="rgb(0,0,0)" />
<rect x="25.0" y="300.0" width="25.0" height="25.0" fill="rgb(0,0,0)" />
<rect x="25.0" y="325.0" width="25.0" height="25.0" fill="rgb(0,0,0)" />
<rect x="25.0" y="350.0" width="25.0" height="25.0" fill="rgb(0,0,0)" />
<rect x="25.0" y="375.0" width="25.0" height="25.0" fill="rgb(0,0,0)" />
<rect x="25.0" y="400.0" width="25.0" height="25.0" fill="rgb(0,0,0)" />
<rect x="50.0" y="25.0" width="25.0" height="25.0" fill="rgb(0,0,0)" />
<rect x="50.0" y="50.0" width="25.0" height="25.0" fill="rgb(0,0,0)" />
<rect x="50.0" y="75.0" width="25.0" height="25.0" fill="rgb(0,0,0)" />
<rect x="50.0" y="100.0" width="25.0" height="25.0" fill="rgb(0,0,0)" />
<rect x="50.0" y="125.0" width="25.0" height="25.0" fill="rgb(0,0,0)" />
<rect x="50.0" y="150.0" width="25.0" height="25.0" fill="rgb(0,0,0)" />
<rect x="50.0" y="175.0" width="25.0" height="25.0" fill="rgb(0,0,0)" />
<rect x="50.0" y="200.0" width="25.0" height="25.0" fill="rgb(0,0,0)" />
<rect x="50.0" y="225.0" width="25.0" height="25.0" fill="rgb(0,0,0)" />
<rect x="50.0" y="250.0" width="25.0" height="25.0" fill="rgb(0,0,0)" />
<rect x="50.0" y="275.0" width="25.0" height="25.0" fill="rgb(0,0,0)" />
<rect x="50.0" y="300.0" width="25.0" height="25.0" fill="rgb(0,0,0)" />
<rect x="50.0" y="325.0" width="25.0" height="25.0" fill="rgb(0,0,0)" />
<rect x="50.0" y="350.0" width="25.0" height="25.0" fill="rgb(0,0,0)" />
<rect x="50.0" y="375.0" width="25.0" height="25.0" fill="rgb(0,0,0)" />
<rect x="50.0" y="400.0" width="25.0" height="25.0" fill="rgb(0,0,0)" />
<rect x="75.0" y="25.0" width="25.0" height="25.0" fill="rgb(0,0,0)" />
<rect x="75.0" y="50.0" width="25.0" height="25.0" fill="rgb(0,0,0)" />
<rect x="75.0" y="75.0" width="25.0" height="25.0" fill="rgb(0,0,0)" />
<rect x="75.0" y="100.0" width="25.0" height="25.0" fill="rgb(0,0,0)" />
<rect x="75.0" y="125.0" width="25.0" height="25.0" fill="rgb(0,0,0)" />
<rect x="75.0" y="150.0" width="25.0" height="25.0" fill="rgb(0,0,0)" />
<rect x="75.0" y="175.0" width="25.0" height="25.0" fill="rgb(0,0,0)" />
<rect x="75.0" y="200.0" width="25.0" height="25.0" fill="rgb(0,0,0)" />
<rect x="75.0" y="225.0" width="25.0" height="25.0" fill="rgb(0,0,0)" />
<rect x="75.0" y="250.0" width="25.0" height="25.0" fill="rgb(0,0,0)" />
<rect x="75.0" y="275.0" width="25.0" height="25.0" fill="rgb(0,0,0)" />
<rect x="75.0" y="300.0" width="25.0" height="25.0" fill="rgb(0,0,0)" />
<rect x="75.0" y="325.0" width="25.0" height="25.0" fill="rgb(0,0,0)" />
<rect x="75.0" y="350.0" width="25.0" height="25.0" fill="rgb(0,0,0)" />
<rect x="75.0" y="375.0" width="25.0" height="25.0" fill="rgb(0,0,0)" />
<rect x="75.0" y="400.0" width="25.0" height="25.0" fill="rgb(0,0,0)" />
<rect x="100.0" y="25.0" width="25.0" height="25.0" fill="rgb(0,0,0)" />
<rect x="100.0" y="50.0" width="25.0" height="25.0" fill="rgb(0,0,0)" />
<rect x="100.0" y="75.0" width="25.0" height="25.0" fill="rgb(0,0,0)" />
<rect x="100.0" y="100.0" width="25.0" height="25.0" fill="rgb(0,0,0)" />
<rect x="100.0" y="125.0" width="25.0" height="25.0" fill="rgb(0,0,0)" />
<rect x="100.0" y="150.0" width="25.0" height="25.0" fill="rgb(0,0,0)" />
<rect x="100.0" y="175.0" width="25.0" height="25.0" fill="rgb(0,0,0)" />
<rect x="100.0" y="200.0" width="25.0" height="25.0" fill="rgb(0,0,0)" />
<rect x="100.0" y="225.0" width="25.0" height="25.0" fill="rgb(0,0,0)" />
<rect x="100.0" y="250.0" width="25.0" height="25.0" fill="rgb(0,0,0)" />
<rect x="100.0" y="275.0" width="25.0" height="25.0" fill="rgb(0,0,0)" />
<rect x="100.0" y="300.0" width="25.0" height="25.0" fill="rgb(0,0,0)" />
<rect x="100.0" y="325.0" width="25.0" height="25.0" fill="rgb(0,0,0)" />
<rect x="100.0" y="350.0" width="25.0" height="25.0" fill="rgb(0,0,0)" />
<rect x="100.0" y="375.0" width="25.0" height="25.0" fill="rgb(0,0,0)" />
<rect x="100.0" y="400.0" width="25.0" height="25.0" fill="rgb(0,0,0)" />
<rect x="125.0" y="25.0" width="25.0" height="25.0" fill="rgb(0,0,0)" />
<rect x="125.0" y="50.0" width="25.0" height="25.0" fill="rgb(0,0,0)" />
<rect x="125.0" y="75.0" width="25.0" height="25.0" fill="rgb(0,0,0)" />
<rect x="125.0" y="100.0" width="25.0" height="25.0" fill="rgb(0,0,0)" />
<rect x="125.0" y="125.0" width="25.0" height="25.0" fill="rgb(0,0,0)" />
<rect x="125.0" y="150.0" width="25.0" height="25.0" fill="rgb(0,0,0)" />
<rect x="125.0" y="175.0" width="25.0" height="25.0" fill="rgb(0,0,0)" />
<rect x="125.0" y="200.0" width="25.0" height="25.0" fill="rgb(0,0,0)" />
<rect x="125.0" y="225.0" width="25.0" height="25.0" fill="rgb(0,0,0)" />
<rect x="125.0" y="250.0" width="25.0" height="25.0" fill="rgb(0,0,0)" />
<rect x="125.0" y="275.0" width="25.0" height="25.0" fill="rgb(0,0,0)" />
<rect x="125.0" y="300.0" width="25.0" height="25.0" fill="rgb(0,0,0)" />
<rect x="125.0" y="325.0" width="25.0" height="25.0" fill="rgb(0,0,0)" />
<rect x="125.0" y="350.0" width="25.0" height="25.0" fill="rgb(0,0,0)" />
<rect x="125.0" y="375.0" width="25.0" height="25.0" fill="rgb(0,0,0)" />
<rect x="125.0" y="400.0" width="25.0" height="25.0" fill="rgb(0,0,0)" />
<rect x="150.0" y="25.0" width="25.0" height="25.0" fill="rgb(0,0,0)" />
<rect x="150.0" y="50.0" width="25.0" height="25.0" fill="rgb(0,0,0)" />
<rect x="150.0" y="75.0" width="25.0" height="25.0" fill="rgb(0,0,0)" />
<rect x="150.0" y="100.0" width="25.0" height="25.0" fill="rgb(0,0,0)" />
<rect x="150.0" y="125.0" width="25.0" height="25.0" fill="rgb(0,0,0)" />
<rect x="150.0" y="150.0" width="25.0" height="25.0" fill="rgb(0,0,0)" />
<rect x="150.0" y="175.0" width="25.0" height="25.0" fill="rgb(0,0,0)" />
<rect x="150.0" y="200.0" width="25.0" height="25.0" fill="rgb(0,0,0)" />
<rect x="150.0" y="225.0" width="25.0" height="25.0" fill="rgb(0,0,0)" />
<rect x="150.0" y="250.0" width="25.0" height="25.0" fill="rgb(0,0,0)" />
<rect x="150.0" y="275.0" width="25.0" height="25.0" fill="rgb(0,0,0)" />
<rect x="150.0" y="300.0" width="25.0" height="25.0" fill="rgb(0,0,0)" />
<rect x="150.0" y="325.0" width="25.0" height="25.0" fill="rgb(0,0,0)" />
<rect x="150.0" y="350.0" width="25.0" height="25.0" fill="rgb(0,0,0)" />
<rect x="150.0" y="375.0" width="25.0" height="25.0" fill="rgb(0,0,0)" />
<rect x="150.0" y="400.0" width="25.0" height="25.0" fill="rgb(0,0,0)" />
<rect x="175.0" y="25.0" width="25.0" height="25.0" fill="rgb(0,0,0)" />
<rect x="175.0" y="50.0" width="25.0" height="25.0" fill="rgb(0,0,0)" />
<rect x="175.0" y="75.0" width="25.0" height="25.0" fill="rgb(0,0,0)" />
<rect x="175.0" y="100.0" width="25.0" height="25.0" fill="rgb(0,0,0)" />
<rect x="175.0" y="125.0" width="25.0" height="25.0" fill="rgb(0,0,0)" />
<rect x="175.0" y="150.0" width="25.0" height="25.0" fill="rgb(0,0,0)" />
<rect x="175.0" y="175.0" width="25.0" height="25.0" fill="rgb(0,0,0)" />
<rect x="175.0" y="200.0" width="25.0" height="25.0" fill="rgb(0,0,0)" />
<rect x="175.0" y="225.0" width="25.0" height="25.0" fill="rgb(0,0,0)" />
<rect x="175.0" y="250.0" width="25.0" height="25.0" fill="rgb(0,0,0)" />
<rect x="175.0" y="275.0" width="25.0" height="25.0" fill="rgb(0,0,0)" />
<rect x="175.0" y="300.0" width="25.0" height="25.0" fill="rgb(0,0,0)" />
<rect x="175.0" y="325.0" width="25.0" height="25.0" fill="rgb(0,0,0)" />
<rect x="175.0" y="350.0" width="25.0" height="25.0" fill="rgb(0,0,0)" />
<rect x="175.0" y="375.0" width="25.0" height="25.0" fill="rgb(0,0,0)" />
<rect x="175.0" y="400.0" width="25.0" height="25.0" fill="rgb(0,0,0)" />
<rect x="200.0" y="25.0" width="25.0" height="25.0" fill="rgb(0,0,0)" />
<rect x="200.0" y="50.0" width="25.0" height="25.0" fill="rgb(0,0,0)" />
<rect x="200.0" y="75.0" width="25.0" height="25.0" fill="rgb(0,0,0)" />
<rect x="200.0" y="100.0" width="25.0" height="25.0" fill="rgb(0,0,0)" />
<rect x="200.0" y="125.0" width="25.0" height="25.0" fill="rgb(0,0,0)" />
<rect x="200.0" y="150.0" width="25.0" height="25.0" fill="rgb(0,0,0)" />
<rect x="200.0" y="175.0" width="25.0" height="25.0" fill="rgb(0,0,0)" />
<rect x="200.0" y="200.0" width="25.0" height="25.0" fill="rgb(0,0,0)" />
<rect x="200.0" y="225.0" width="25.0" height="25.0" fill="rgb(0,0,0)" />
<rect x="200.0" y="250.0" width="25.0" height="25.0" fill="rgb(0,0,0)" />
<rect x="200.0" y="275.0" width="25.0" height="25.0" fill="rgb(0,0,0)" />
<rect x="200.0" y="300.0" width="25.0" height="25.0" fill="rgb(0,0,0)" />
<rect x="200.0" y="325.0" width="25.0" height="25.0" fill="rgb(0,0,0)" />
<rect x="200.0" y="350.0" width="25.0" height="25.0" fill="rgb(0,0,0)" />
<rect x="200.0" y="375.0" width="25.0" height="25.0" fill="rgb(0,0,0)" />
<rect x="200.0" y="400.0" width="25.0" height="25.0" fill="rgb(0,0,0)" />
<rect x="225.0" y="25.0" width="25.0" height="25.0" fill="rgb(0,0,0)" />
<rect x="225.0" y="50.0" width="25.0" height="25.0" fill="rgb(0,0,0)" />
<rect x="225.0" y="75.0" width="25.0" height="25.0" fill="rgb(0,0,0)" />
<rect x="225.0" y="100.0" width="25.0" height="25.0" fill="rgb(0,0,0)" />
<rect x="225.0" y="125.0" width="25.0" height="25.0" fill="rgb(0,0,0)" />
<rect x="225.0" y="150.0" width="25.0" height="25.0" fill="rgb(0,0,0)" />
<rect x="225.0" y="175.0" width="25.0" height="25.0" fill="rgb(0,0,0)" />
<rect x="225.0" y="200.0" width="25.0" height="25.0" fill="rgb(0,0,0)" />
<rect x="225.0" y="225.0" width="25.0" height="25.0" fill="rgb(0,0,0)" />
<rect x="225.0" y="250.0" width="25.0" height="25.0" fill="rgb(0,0,0)" />
<rect x="225.0" y="275.0" width="25.0" height="25.0" fill="rgb(0,0,0)" />
<rect x="225.0" y="300.0" width="25.0" height="25.0" fill="rgb(0,0,0)" />
<rect x="225.0" y="325.0" width="25.0" height="25.0" fill="rgb(0,0,0)" />
<rect x="225.0" y="350.0" width="25.0" height="25.0" fill="rgb(0,0,0)" />
<rect x="225.0" y="375.0" width="25.0" height="25.0" fill="rgb(0,0,0)" />
<rect x="225.0" y="400.0" width="25.0" height="25.0" fill="rgb(0,0,0)" />
<rect x="250.0" y="25.0" width="25.0" height="25.0" fill="rgb(0,0,0)" />
<rect x="250.0" y="50.0" width="25.0" height="25.0" fill="rgb(0,0,0)" />
<rect x="250.0" y="75.0" width="25.0" height="25.0" fill="rgb(0,0,0)" />
<rect x="250.0" y="100.0" width="25.0" height="25.0" fill="rgb(0,0,0)" />
<rect x="250.0" y="125.0" width="25.0" height="25.0" fill="rgb(0,0,0)" />
<rect x="250.0" y="150.0" width="25.0" height="25.0" fill="rgb(0,0,0)" />
<rect x="250.0" y="175.0" width="25.0" height="25.0" fill="rgb(0,0,0)" />
<rect x="250.0" y="200.0" width="25.0" height="25.0" fill="rgb(0,0,0)" />
<rect x="250.0" y="225.0" width="25.0" height="25.0" fill="rgb(0,0,0)" />
<rect x="250.0" y="250.0" width="25.0" height="25.0" fill="rgb(0,0,0)" />
<rect x="250.0" y="275.0" width="25.0" height="25.0" fill="rgb(0,0,0)" />
<rect x="250.0" y="300.0" width="25.0" height="25.0" fill="rgb(0,0,0)" />
<rect x="250.0" y="325.0" width="25.0" height="25.0" fill="rgb(0,0,0)" />
<rect x="250.0" y="350.0" width="25.0" height="25.0" fill="rgb(0,0,0)" />
<rect x="250.0" y="375.0" width="25.0" height="25.0" fill="rgb(0,0,0)" />
<rect x="250.0" y="400.0" width="25.0" height="25.0" fill="rgb(0,0,0)" />
<rect x="275.0" y="25.0" width="25.0" height="25.0" fill="rgb(0,0,0)" />
<rect x="275.0" y="50.0" width="25.0" height="25.0" fill="rgb(0,0,0)" />
<rect x="275.0" y="75.0" width="25.0" height="25.0" fill="rgb(0,0,0)" />
<rect x="275.0" y="100.0" width="25.0" height="25.0" fill="rgb(0,0,0)" />
<rect x="275.0" y="125.0" width="25.0" height="25.0" fill="rgb(0,0,0)" />
<rect x="275.0" y="150.0" width="25.0" height="25.0" fill="rgb(0,0,0)" />
<rect x="275.0" y="175.0" width="25.0" height="25.0" fill="rgb(0,0,0)" />
<rect x="275.0" y="200.0" width="25.0" height="25.0" fill="rgb(0,0,0)" />
<rect x="275.0" y="225.0" width="25.0" height="25.0" fill="rgb(0,0,0)" />
<rect x="275.0" y="250.0" width="25.0" height="25.0" fill="rgb(0,0,0)" />
<rect x="275.0" y="275.0" width="25.0" height="25.0" fill="rgb(0,0,0)" />
<rect x="275.0" y="300.0" width="25.0" height="25.0" fill="rgb(0,0,0)" />
<rect x="275.0" y="325.0" width="25.0" height="25.0" fill="rgb(0,0,0)" />
<rect x="275.0" y="350.0" width="25.0" height="25.0" fill="rgb(0,0,0)" />
<rect x="275.0" y="375.0" width="25.0" height="25.0" fill="rgb(0,0,0)" />
<rect x="275.0" y="400.0" width="25.0" height="25.0" fill="rgb(0,0,0)" />
<rect x="300.0" y="25.0" width="25.0" height="25.0" fill="rgb(0,0,0)" />
<rect x="300.0" y="50.0" width="25.0" height="25.0" fill="rgb(0,0,0)" />
<rect x="300.0" y="75.0" width="25.0" height="25.0" fill="rgb(0,0,0)" />
<rect x="300.0" y="100.0" width="25.0" height="25.0" fill="rgb(0,0,0)" />
<rect x="300.0" y="125.0" width="25.0" height="25.0" fill="rgb(0,0,0)" />
<rect x="300.0" y="150.0" width="25.0" height="25.0" fill="rgb(0,0,0)" />
<rect x="300.0" y="175.0" width="25.0" height="25.0" fill="rgb(0,0,0)" />
<rect x="300.0" y="200.0" width="25.0" height="25.0" fill="rgb(0,0,0)" />
<rect x="300.0" y="225.0" width="25.0" height="25.0" fill="rgb(0,0,0)" />
<rect x="300.0" y="250.0" width="25.0" height="25.0" fill="rgb(0,0,0)" />
<rect x="300.0" y="275.0" width="25.0" height="25.0" fill="rgb(0,0,0)" />
<rect x="300.0" y="300.0" width="25.0" height="25.0" fill="rgb(0,0,0)" />
<rect x="300.0" y="325.0" width="25.0" height="25.0" fill="rgb(0,0,0)" />
<rect x="300.0" y="350.0" width="25.0" height="25.0" fill="rgb(0,0,0)" />
<rect x="300.0" y="375.0" width="25.0" height="25.0" fill="rgb(0,0,0)" />
<rect x="300.0" y="400.0" width="25.0" height="25.0" fill="rgb(0,0,0)" />
<rect x="325.0" y="25.0" width="25.0" height="25.0" fill="rgb(0,0,0)" />
<rect x="325.0" y="50.0" width="25.0" height="25.0" fill="rgb(0,0,0)" />
<rect x="325.0" y="75.0" width="25.0" height="25.0" fill="rgb(0,0,0)" />
<rect x="325.0" y="100.0" width="25.0" height="25.0" fill="rgb(0,0,0)" />
<rect x="325.0" y="125.0" width="25.0" height="25.0" fill="rgb(0,0,0)" />
<rect x="325.0" y="150.0" width="25.0" height="25.0" fill="rgb(0,0,0)" />
<rect x="325.0" y="175.0" width="25.0" height="25.0" fill="rgb(0,0,0)" />
<rect x="325.0" y="200.0" width="25.0" height="25.0" fill="rgb(0,0,0)" />
<rect x="325.0" y="225.0" width="25.0" height="25.0" fill="rgb(0,0,0)" />
<rect x="325.0" y="250.0" width="25.0" height="25.0" fill="rgb(0,0,0)" />
<rect x="325.0" y="275.0" width="25.0" height="25.0" fill="rgb(0,0,0)" />
<rect x="325.0" y="300.0" width="25.0" height="25.0" fill="rgb(0,0,0)" />
<rect x="325.0" y="325.0" width="25.0" height="25.0" fill="rgb(0,0,0)" />
<rect x="325.0" y="350.0" width="25.0" height="25.0" fill="rgb(0,0,0)" />
<rect x="325.0" y="375.0" width="25.0" height="25.0" fill="rgb(0,0,0)" />
<rect x="325.0" y="400.0" width="25.0" height="25.0" fill="rgb(0,0,0)" />
<rect x="350.0" y="25.0" width="25.0" height="25.0" fill="rgb(0,0,0)" />
<rect x="350.0" y="50.0" width="25.0" height="25.0" fill="rgb(0,0,0)" />
<rect x="350.0" y="75.0" width="25.0" height="25.0" fill="rgb(0,0,0)" />
<rect x="350.0" y="100.0" width="25.0" height="25.0" fill="rgb(0,0,0)" />
<rect x="350.0" y="125.0" width="25.0" height="25.0" fill="rgb(0,0,0)" />
<rect x="350.0" y="150.0" width="25.0" height="25.0" fill="rgb(0,0,0)" />
<rect x="350.0" y="175.0" width="25.0" height="25.0" fill="rgb(0,0,0)" />
<rect x="350.0" y="200.0" width="25.0" height="25.0" fill="rgb(0,0,0)" />
<rect x="350.0" y="225.0" width="25.0" height="25.0" fill="rgb(0,0,0)" />
<rect x="350.0" y="250.0" width="25.0" height="25.0" fill="rgb(0,0,0)" />
<rect x="350.0" y="275.0" width="25.0" height="25.0" fill="rgb(0,0,0)" />
<rect x="350.0" y="300.0" width="25.0" height="25.0" fill="rgb(0,0,0)" />
<rect x="350.0" y="325.0" width="25.0" height="25.0" fill="rgb(0,0,0)" />
<rect x="350.0" y="350.0" width="25.0" height="25.0" fill="rgb(0,0,0)" />
<rect x="350.0" y="375.0" width="25.0" height="25.0" fill="rgb(0,0,0)" />
<rect x="350.0" y="400.0" width="25.0" height="25.0" fill="rgb(0,0,0)" />
<rect x="375.0" y="25.0" width="25.0" height="25.0" fill="rgb(0,0,0)" />
<rect x="375.0" y="50.0" width="25.0" height="25.0" fill="rgb(0,0,0)" />
<rect x="375.0" y="75.0" width="25.0" height="25.0" fill="rgb(0,0,0)" />
<rect x="375.0" y="100.0" width="25.0" height="25.0" fill="rgb(0,0,0)" />
<rect x="375.0" y="125.0" width="25.0" height="25.0" fill="rgb(0,0,0)" />
<rect x="375.0" y="150.0" width="25.0" height="25.0" fill="rgb(0,0,0)" />
<rect x="375.0" y="175.0" width="25.0" height="25.0" fill="rgb(0,0,0)" />
<rect x="375.0" y="200.0" width="25.0" height="25.0" fill="rgb(0,0,0)" />
<rect x="375.0" y="225.0" width="25.0" height="25.0" fill="rgb(0,0,0)" />
<rect x="375.0" y="250.0" width="25.0" height="25.0" fill="rgb(0,0,0)" />
<rect x="375.0" y="275.0" width="25.0" height="25.0" fill="rgb(0,0,0)" />
<rect x="375.0" y="300.0" width="25.0" height="25.0" fill="rgb(0,0,0)" />
<rect x="375.0" y="325.0" width="25.0" height="25.0" fill="rgb(0,0,0)" />
<rect x="375.0" y="350.0" width="25.0" height="25.0" fill="rgb(0,0,0)" />
<rect x="375.0" y="375.0" width="25.0" height="25.0" fill="rgb(0,0,0)" />
<rect x="375.0" y="400.0" width="25.0" height="25.0" fill="rgb(0,0,0)" />
<rect x="400.0" y="25.0" width="25.0" height="25.0" fill="rgb(0,0,0)" />
<rect x="400.0" y="50.0" width="25.0" height="25.0" fill="rgb(0,0,0)" />
<rect x="400.0" y="75.0" width="25.0" height="25.0" fill="rgb(0,0,0)" />
<rect x="400.0" y="100.0" width="25.0" height="25.0" fill="rgb(0,0,0)" />
<rect x="400.0" y="125.0" width="25.0" height="25.0" fill="rgb(0,0,0)" />
<rect x="400.0" y="150.0" width="25.0" height="25.0" fill="rgb(0,0,0)" />
<rect x="400.0" y="175.0" width="25.0" height="25.0" fill="rgb(0,0,0)" />
<rect x="400.0" y="200.0" width="25.0" height="25.0" fill="rgb(0,0,0)" />
<rect x="400.0" y="225.0" width="25.0" height="25.0" fill="rgb(0,0,0)" />
<rect x="400.0" y="250.0" width="25.0" height="25.0" fill="rgb(0,0,0)" />
<rect x="400.0" y="275.0" width="25.0" height="25.0" fill="rgb(0,0,0)" />
<rect x="400.0" y="300.0" width="25.0" height="25.0" fill="rgb(0,0,0)" />
<rect x="400.0" y="325.0" width="25.0" height="25.0" fill="rgb(0,0,0)" />
<rect x="400.0" y="350.0" width="25.0" height="25.0" fill="rgb(0,0,0)" />
<rect x="400.0" y="375.0" width="25.0" height="25.0" fill="rgb(0,0,0)" />
<rect x="400.0" y="400.0" width="25.0" height="25.0" fill="rgb(0,0,0)" />
<circle  cx="422.98787069010046" cy="302.22191026950304" r="8.888782985415517" fill="RED" />
<circle  cx="406.01227231635664" cy="300.31637865884966" r="7.103387646398178" fill="RED" />
<circle  cx="399.4764726126807" cy="284.39044218553295" r="7.621721463201565" fill="RED" />
<circle  cx="337.95124296337013" cy="277.11219570823346" r="7.914805526103994" fill="RED" />
<circle  cx="329.2020299391579" cy="256.1326064561433" r="7.898849144505073" fill="RED" />
<circle  cx="366.3955785775211" cy="308.0498668131672" r="7.393500454008696" fill="RED" />
<circle  cx="348.33174094634415" cy="289.59855381844386" r="7.449600036955142" fill="RED" />
<circle  cx="361.49037316185985" cy="333.36626593277765" r="7.578047092716876" fill="RED" />
<circle  cx="291.3381235826493" cy="367.5448985757558" r="7.156934788402461" fill="RED" />
<circle  cx="326.2607648329359" cy="352.40757648976177" r="7.676327297684986" fill="RED" />
<circle  cx="377.54645595258705" cy="253.65736964755362" r="7.420422071708785" fill="RED" />
<circle  cx="355.576108248825" cy="269.3122834636106" r="7.225531256032985" fill="RED" />
<circle  cx="397.8625830855168" cy="331.503283905233" r="8.792376922962834" fill="RED" />
<circle  cx="386.641471016715" cy="382.84449485125214" r="7.478215790891409" fill="RED" />
<circle  cx="372.40599148324304" cy="376.91150567581826" r="7.124541227989532" fill="RED" />
<circle  cx="369.2875806724712" cy="354.29049723705117" r="8.683753903410711" fill="RED" />
<circle  cx="354.22089964500236" cy="368.20170132404525" r="8.898874729313256" fill="RED" />
<circle  cx="351.97370307335837" cy="393.5969615485085" r="9.044527284204253" fill="RED" />
<circle  cx="333.53358908735385" cy="367.4816473723937" r="8.11846120976371" fill="RED" />
<circle  cx="344.0990420177066" cy="345.7462558817463" r="8.046136011628217" fill="RED" />
<circle  cx="381.002090806449" cy="279.63420035342193" r="7.195546914882134" fill="RED" />
<circle  cx="342.79303352253726" cy="326.6045944218388" r="7.272595787241561" fill="RED" />
<circle  cx="347.4174032985355" cy="309.2265553281375" r="7.701704707557318" fill="RED" />
<circle  cx="386.88732614264154" cy="297.89736060897496" r="7.319761066853536" fill="RED" />
<circle  cx="365.67140372893834" cy="287.80331600750696" r="7.792349166517932" fill="RED" />
<circle  cx="379.86647782096077" cy="324.17362166318804" r="7.598250740011547" fill="RED" />
<circle  cx="330.5997339745947" cy="292.71970747727096" r="7.6064300449411055" fill="RED" />
<circle  cx="320.09548570340496" cy="279.7439337639209" r="7.698550724557786" fill="RED" />
<circle  cx="318.13848523043674" cy="338.3296443315642" r="7.479842192938592" fill="RED" />
<circle  cx="324.9305997346587" cy="417.7382620287552" r="7.497612291241549" fill="RED" />
<circle  cx="293.37255010192047" cy="398.69985648236235" r="7.945259381356962" fill="RED" />
<circle  cx="324.5332748185057" cy="401.61206211628667" r="7.220819306244193" fill="RED" />
<circle  cx="328.37275054548695" cy="386.4192275141647" r="7.603556758277924" fill="RED" />
<circle  cx="298.6477233385992" cy="383.4071286160259" r="7.625875664734619" fill="RED" />
<circle  cx="312.9019407658629" cy="364.7942129510337" r="8.606557294201261" fill="RED" />
<circle  cx="326.1981025262883" cy="312.32007800980557" r="7.125210002392077" fill="RED" />
<circle  cx="307.48410736951274" cy="318.85310514017" r="7.927803340792843" fill="RED" />
<circle  cx="276.9989070801452" cy="334.3518073385281" r="7.724802570518465" fill="RED" />
<circle  cx="278.6379131572479" cy="350.99575563822845" r="7.487475838312359" fill="RED" />
<circle  cx="278.47756473986806" cy="379.6404778597224" r="7.729187470568897" fill="RED" />
<circle  cx="294.2540284600409" cy="344.62223383677315" r="7.7476590010632025" fill="RED" />
<circle  cx="313.2565818216891" cy="297.52709471669385" r="7.704757407434387" fill="RED" />
<circle  cx="301.0538124370727" cy="284.0519099001273" r="8.373370962125406" fill="RED" />
<circle  cx="314.7591728635682" cy="249.75565658481665" r="7.769781938198542" fill="RED" />
<circle  cx="300.0295964733151" cy="263.329548451513" r="7.573640128289916" fill="RED" />
<circle  cx="291.18046748399905" cy="324.62269170176336" r="7.974800379696008" fill="RED" />
<circle  cx="295.0176498764784" cy="304.7334517181329" r="7.968418794692892" fill="RED" />
<circle  cx="245.67170604877515" cy="366.5461316224221" r="7.570561771510185" fill="RED" />
<circle  cx="263.18026368554285" cy="373.00456714362895" r="7.537610878984473" fill="RED" />
<circle  cx="241.96137096173524" cy="336.4290377535737" r="7.857933936378991" fill="RED" />
<circle  cx="258.9674857993942" cy="349.1877312045171" r="7.435008000983907" fill="RED" />
<circle  cx="259.68253968670797" cy="332.4446448967471" r="7.382317584750164" fill="RED" />
<circle  cx="286.7542381239255" cy="272.41098556655186" r="8.051799126763893" fill="RED" />
<circle  cx="249.83752694047604" cy="290.58726823028394" r="7.78957333980459" fill="RED" />
<circle  cx="267.2666948075465" cy="278.62901121247637" r="8.273906024019801" fill="RED" />
<circle  cx="269.02125835185336" cy="302.4798251241753" r="7.436417406756554" fill="RED" />
<circle  cx="274.5720225410017" cy="318.9924013867815" r="7.47026592332973" fill="RED" />
<circle  cx="255.90307022087507" cy="316.6426853559607" r="7.927821125267132" fill="RED" />
<circle  cx="281.0940150805642" cy="289.3747223791054" r="7.8416212478381455" fill="RED" />
</svg>
