<svg xmlns="http://www.w3.org/2000/svg" version="1.1">
<rect x="25.0" y="25.0" width="400.0" height="400.0" fill="GRAY" />
<rect x="25.0" y="25.0" width="25.0" height="25.0" fill="rgb(2,2,2)" />
<rect x="25.0" y="50.0" width="25.0" height="25.0" fill="rgb(2,2,2)" />
<rect x="25.0" y="75.0" width="25.0" height="25.0" fill="rgb(2,2,2)" />
<rect x="25.0" y="100.0" width="25.0" height="25.0" fill="rgb(2,2,2)" />
<rect x="25.0" y="125.0" width="25.0" height="25.0" fill="rgb(2,2,2)" />
<rect x="25.0" y="150.0" width="25.0" height="25.0" fill="rgb(2,2,2)" />
<rect x="25.0" y="175.0" width="25.0" height="25.0" fill="rgb(2,2,2)" />
<rect x="25.0" y="200.0" width="25.0" height="25.0" fill="rgb(2,2,2)" />
<rect x="25.0" y="225.0" width="25.0" height="25.0" fill="rgb(2,2,2)" />
<rect x="25.0" y="250.0" width="25.0" height="25.0" fill="rgb(2,2,2)" />
<rect x="25.0" y="275.0" width="25.0" height="25.0" fill="rgb(2,2,2)" />
<rect x="25.0" y="300.0" width="25.0" height="25.0" fill="rgb(2,2,2)" />
<rect x="25.0" y="325.0" width="25.0" height="25.0" fill="rgb(2,2,2)" />
<rect x="25.0" y="350.0" width="25.0" height="25.0" fill="rgb(2,2,2)" />
<rect x="25.0" y="375.0" width="25.0" height="25.0" fill="rgb(2,2,2)" />
<rect x="25.0" y="400.0" width="25.0" height="25.0" fill="rgb(2,2,2)" />
<rect x="50.0" y="25.0" width="25.0" height="25.0" fill="rgb(2,2,2)" />
<rect x="50.0" y="50.0" width="25.0" height="25.0" fill="rgb(2,2,2)" />
<rect x="50.0" y="75.0" width="25.0" height="25.0" fill="rgb(2,2,2)" />
<rect x="50.0" y="100.0" width="25.0" height="25.0" fill="rgb(2,2,2)" />
<rect x="50.0" y="125.0" width="25.0" height="25.0" fill="rgb(2,2,2)" />
<rect x="50.0" y="150.0" width="25.0" height="25.0" fill="rgb(2,2,2)" />
<rect x="50.0" y="175.0" width="25.0" height="25.0" fill="rgb(2,2,2)" />
<rect x="50.0" y="200.0" width="25.0" height="25.0" fill="rgb(2,2,2)" />
<rect x="50.0" y="225.0" width="25.0" height="25.0" fill="rgb(2,2,2)" />
<rect x="50.0" y="250.0" width="25.0" height="25.0" fill="rgb(2,2,2)" />
<rect x="50.0" y="275.0" width="25.0" height="25.0" fill="rgb(2,2,2)" />
<rect x="50.0" y="300.0" width="25.0" height="25.0" fill="rgb(2,2,2)" />
<rect x="50.0" y="325.0" width="25.0" height="25.0" fill="rgb(2,2,2)" />
<rect x="50.0" y="350.0" width="25.0" height="25.0" fill="rgb(2,2,2)" />
<rect x="50.0" y="375.0" width="25.0" height="25.0" fill="rgb(2,2,2)" />
<rect x="50.0" y="400.0" width="25.0" height="25.0" fill="rgb(2,2,2)" />
<rect x="75.0" y="25.0" width="25.0" height="25.0" fill="rgb(2,2,2)" />
<rect x="75.0" y="50.0" width="25.0" height="25.0" fill="rgb(2,2,2)" />
<rect x="75.0" y="75.0" width="25.0" height="25.0" fill="rgb(2,2,2)" />
<rect x="75.0" y="100.0" width="25.0" height="25.0" fill="rgb(2,2,2)" />
<rect x="75.0" y="125.0" width="25.0" height="25.0" fill="rgb(2,2,2)" />
<rect x="75.0" y="150.0" width="25.0" height="25.0" fill="rgb(2,2,2)" />
<rect x="75.0" y="175.0" width="25.0" height="25.0" fill="rgb(2,2,2)" />
<rect x="75.0" y="200.0" width="25.0" height="25.0" fill="rgb(2,2,2)" />
<rect x="75.0" y="225.0" width="25.0" height="25.0" fill="rgb(2,2,2)" />
<rect x="75.0" y="250.0" width="25.0" height="25.0" fill="rgb(2,2,2)" />
<rect x="75.0" y="275.0" width="25.0" height="25.0" fill="rgb(2,2,2)" />
<rect x="75.0" y="300.0" width="25.0" height="25.0" fill="rgb(2,2,2)" />
<rect x="75.0" y="325.0" width="25.0" height="25.0" fill="rgb(2,2,2)" />
<rect x="75.0" y="350.0" width="25.0" height="25.0" fill="rgb(2,2,2)" />
<rect x="75.0" y="375.0" width="25.0" height="25.0" fill="rgb(2,2,2)" />
<rect x="75.0" y="400.0" width="25.0" height="25.0" fill="rgb(2,2,2)" />
<rect x="100.0" y="25.0" width="25.0" height="25.0" fill="rgb(2,2,2)" />
<rect x="100.0" y="50.0" width="25.0" height="25.0" fill="rgb(2,2,2)" />
<rect x="100.0" y="75.0" width="25.0" height="25.0" fill="rgb(2,2,2)" />
<rect x="100.0" y="100.0" width="25.0" height="25.0" fill="rgb(2,2,2)" />
<rect x="100.0" y="125.0" width="25.0" height="25.0" fill="rgb(2,2,2)" />
<rect x="100.0" y="150.0" width="25.0" height="25.0" fill="rgb(2,2,2)" />
<rect x="100.0" y="175.0" width="25.0" height="25.0" fill="rgb(2,2,2)" />
<rect x="100.0" y="200.0" width="25.0" height="25.0" fill="rgb(2,2,2)" />
<rect x="100.0" y="225.0" width="25.0" height="25.0" fill="rgb(2,2,2)" />
<rect x="100.0" y="250.0" width="25.0" height="25.0" fill="rgb(2,2,2)" />
<rect x="100.0" y="275.0" width="25.0" height="25.0" fill="rgb(2,2,2)" />
<rect x="100.0" y="300.0" width="25.0" height="25.0" fill="rgb(2,2,2)" />
<rect x="100.0" y="325.0" width="25.0" height="25.0" fill="rgb(2,2,2)" />
<rect x="100.0" y="350.0" width="25.0" height="25.0" fill="rgb(2,2,2)" />
<rect x="100.0" y="375.0" width="25.0" height="25.0" fill="rgb(2,2,2)" />
<rect x="100.0" y="400.0" width="25.0" height="25.0" fill="rgb(2,2,2)" />
<rect x="125.0" y="25.0" width="25.0" height="25.0" fill="rgb(2,2,2)" />
<rect x="125.0" y="50.0" width="25.0" height="25.0" fill="rgb(2,2,2)" />
<rect x="125.0" y="75.0" width="25.0" height="25.0" fill="rgb(2,2,2)" />
<rect x="125.0" y="100.0" width="25.0" height="25.0" fill="rgb(2,2,2)" />
<rect x="125.0" y="125.0" width="25.0" height="25.0" fill="rgb(2,2,2)" />
<rect x="125.0" y="150.0" width="25.0" height="25.0" fill="rgb(2,2,2)" />
<rect x="125.0" y="175.0" width="25.0" height="25.0" fill="rgb(2,2,2)" />
<rect x="125.0" y="200.0" width="25.0" height="25.0" fill="rgb(2,2,2)" />
<rect x="125.0" y="225.0" width="25.0" height="25.0" fill="rgb(2,2,2)" />
<rect x="125.0" y="250.0" width="25.0" height="25.0" fill="rgb(2,2,2)" />
<rect x="125.0" y="275.0" width="25.0" height="25.0" fill="rgb(2,2,2)" />
<rect x="125.0" y="300.0" width="25.0" height="25.0" fill="rgb(2,2,2)" />
<rect x="125.0" y="325.0" width="25.0" height="25.0" fill="rgb(2,2,2)" />
<rect x="125.0" y="350.0" width="25.0" height="25.0" fill="rgb(2,2,2)" />
<rect x="125.0" y="375.0" width="25.0" height="25.0" fill="rgb(2,2,2)" />
<rect x="125.0" y="400.0" width="25.0" height="25.0" fill="rgb(2,2,2)" />
<rect x="150.0" y="25.0" width="25.0" height="25.0" fill="rgb(2,2,2)" />
<rect x="150.0" y="50.0" width="25.0" height="25.0" fill="rgb(2,2,2)" />
<rect x="150.0" y="75.0" width="25.0" height="25.0" fill="rgb(2,2,2)" />
<rect x="150.0" y="100.0" width="25.0" height="25.0" fill="rgb(2,2,2)" />
<rect x="150.0" y="125.0" width="25.0" height="25.0" fill="rgb(2,2,2)" />
<rect x="150.0" y="150.0" width="25.0" height="25.0" fill="rgb(2,2,2)" />
<rect x="150.0" y="175.0" width="25.0" height="25.0" fill="rgb(2,2,2)" />
<rect x="150.0" y="200.0" width="25.0" height="25.0" fill="rgb(2,2,2)" />
<rect x="150.0" y="225.0" width="25.0" height="25.0" fill="rgb(2,2,2)" />
<rect x="150.0" y="250.0" width="25.0" height="25.0" fill="rgb(2,2,2)" />
<rect x="150.0" y="275.0" width="25.0" height="25.0" fill="rgb(2,2,2)" />
<rect x="150.0" y="300.0" width="25.0" height="25.0" fill="rgb(2,2,2)" />
<rect x="150.0" y="325.0" width="25.0" height="25.0" fill="rgb(2,2,2)" />
<rect x="150.0" y="350.0" width="25.0" height="25.0" fill="rgb(2,2,2)" />
<rect x="150.0" y="375.0" width="25.0" height="25.0" fill="rgb(2,2,2)" />
<rect x="150.0" y="400.0" width="25.0" height="25.0" fill="rgb(2,2,2)" />
<rect x="175.0" y="25.0" width="25.0" height="25.0" fill="rgb(2,2,2)" />
<rect x="175.0" y="50.0" width="25.0" height="25.0" fill="rgb(2,2,2)" />
<rect x="175.0" y="75.0" width="25.0" height="25.0" fill="rgb(2,2,2)" />
<rect x="175.0" y="100.0" width="25.0" height="25.0" fill="rgb(2,2,2)" />
<rect x="175.0" y="125.0" width="25.0" height="25.0" fill="rgb(2,2,2)" />
<rect x="175.0" y="150.0" width="25.0" height="25.0" fill="rgb(2,2,2)" />
<rect x="175.0" y="175.0" width="25.0" height="25.0" fill="rgb(2,2,2)" />
<rect x="175.0" y="200.0" width="25.0" height="25.0" fill="rgb(2,2,2)" />
<rect x="175.0" y="225.0" width="25.0" height="25.0" fill="rgb(2,2,2)" />
<rect x="175.0" y="250.0" width="25.0" height="25.0" fill="rgb(2,2,2)" />
<rect x="175.0" y="275.0" width="25.0" height="25.0" fill="rgb(2,2,2)" />
<rect x="175.0" y="300.0" width="25.0" height="25.0" fill="rgb(2,2,2)" />
<rect x="175.0" y="325.0" width="25.0" height="25.0" fill="rgb(2,2,2)" />
<rect x="175.0" y="350.0" width="25.0" height="25.0" fill="rgb(2,2,2)" />
<rect x="175.0" y="375.0" width="25.0" height="25.0" fill="rgb(2,2,2)" />
<rect x="175.0" y="400.0" width="25.0" height="25.0" fill="rgb(2,2,2)" />
<rect x="200.0" y="25.0" width="25.0" height="25.0" fill="rgb(2,2,2)" />
<rect x="200.0" y="50.0" width="25.0" height="25.0" fill="rgb(2,2,2)" />
<rect x="200.0" y="75.0" width="25.0" height="25.0" fill="rgb(2,2,2)" />
<rect x="200.0" y="100.0" width="25.0" height="25.0" fill="rgb(2,2,2)" />
<rect x="200.0" y="125.0" width="25.0" height="25.0" fill="rgb(2,2,2)" />
<rect x="200.0" y="150.0" width="25.0" height="25.0" fill="rgb(2,2,2)" />
<rect x="200.0" y="175.0" width="25.0" height="25.0" fill="rgb(2,2,2)" />
<rect x="200.0" y="200.0" width="25.0" height="25.0" fill="rgb(2,2,2)" />
<rect x="200.0" y="225.0" width="25.0" height="25.0" fill="rgb(2,2,2)" />
<rect x="200.0" y="250.0" width="25.0" height="25.0" fill="rgb(2,2,2)" />
<rect x="200.0" y="275.0" width="25.0" height="25.0" fill="rgb(2,2,2)" />
<rect x="200.0" y="300.0" width="25.0" height="25.0" fill="rgb(2,2,2)" />
<rect x="200.0" y="325.0" width="25.0" height="25.0" fill="rgb(2,2,2)" />
<rect x="200.0" y="350.0" width="25.0" height="25.0" fill="rgb(2,2,2)" />
<rect x="200.0" y="375.0" width="25.0" height="25.0" fill="rgb(2,2,2)" />
<rect x="200.0" y="400.0" width="25.0" height="25.0" fill="rgb(2,2,2)" />
<rect x="225.0" y="25.0" width="25.0" height="25.0" fill="rgb(2,2,2)" />
<rect x="225.0" y="50.0" width="25.0" height="25.0" fill="rgb(2,2,2)" />
<rect x="225.0" y="75.0" width="25.0" height="25.0" fill="rgb(2,2,2)" />
<rect x="225.0" y="100.0" width="25.0" height="25.0" fill="rgb(2,2,2)" />
<rect x="225.0" y="125.0" width="25.0" height="25.0" fill="rgb(2,2,2)" />
<rect x="225.0" y="150.0" width="25.0" height="25.0" fill="rgb(2,2,2)" />
<rect x="225.0" y="175.0" width="25.0" height="25.0" fill="rgb(2,2,2)" />
<rect x="225.0" y="200.0" width="25.0" height="25.0" fill="rgb(2,2,2)" />
<rect x="225.0" y="225.0" width="25.0" height="25.0" fill="rgb(2,2,2)" />
<rect x="225.0" y="250.0" width="25.0" height="25.0" fill="rgb(2,2,2)" />
<rect x="225.0" y="275.0" width="25.0" height="25.0" fill="rgb(2,2,2)" />
<rect x="225.0" y="300.0" width="25.0" height="25.0" fill="rgb(2,2,2)" />
<rect x="225.0" y="325.0" width="25.0" height="25.0" fill="rgb(2,2,2)" />
<rect x="225.0" y="350.0" width="25.0" height="25.0" fill="rgb(2,2,2)" />
<rect x="225.0" y="375.0" width="25.0" height="25.0" fill="rgb(2,2,2)" />
<rect x="225.0" y="400.0" width="25.0" height="25.0" fill="rgb(2,2,2)" />
<rect x="250.0" y="25.0" width="25.0" height="25.0" fill="rgb(2,2,2)" />
<rect x="250.0" y="50.0" width="25.0" height="25.0" fill="rgb(2,2,2)" />
<rect x="250.0" y="75.0" width="25.0" height="25.0" fill="rgb(2,2,2)" />
<rect x="250.0" y="100.0" width="25.0" height="25.0" fill="rgb(2,2,2)" />
<rect x="250.0" y="125.0" width="25.0" height="25.0" fill="rgb(2,2,2)" />
<rect x="250.0" y="150.0" width="25.0" height="25.0" fill="rgb(2,2,2)" />
<rect x="250.0" y="175.0" width="25.0" height="25.0" fill="rgb(2,2,2)" />
<rect x="250.0" y="200.0" width="25.0" height="25.0" fill="rgb(2,2,2)" />
<rect x="250.0" y="225.0" width="25.0" height="25.0" fill="rgb(2,2,2)" />
<rect x="250.0" y="250.0" width="25.0" height="25.0" fill="rgb(2,2,2)" />
<rect x="250.0" y="275.0" width="25.0" height="25.0" fill="rgb(2,2,2)" />
<rect x="250.0" y="300.0" width="25.0" height="25.0" fill="rgb(2,2,2)" />
<rect x="250.0" y="325.0" width="25.0" height="25.0" fill="rgb(2,2,2)" />
<rect x="250.0" y="350.0" width="25.0" height="25.0" fill="rgb(2,2,2)" />
<rect x="250.0" y="375.0" width="25.0" height="25.0" fill="rgb(2,2,2)" />
<rect x="250.0" y="400.0" width="25.0" height="25.0" fill="rgb(2,2,2)" />
<rect x="275.0" y="25.0" width="25.0" height="25.0" fill="rgb(2,2,2)" />
<rect x="275.0" y="50.0" width="25.0" height="25.0" fill="rgb(2,2,2)" />
<rect x="275.0" y="75.0" width="25.0" height="25.0" fill="rgb(2,2,2)" />
<rect x="275.0" y="100.0" width="25.0" height="25.0" fill="rgb(2,2,2)" />
<rect x="275.0" y="125.0" width="25.0" height="25.0" fill="rgb(2,2,2)" />
<rect x="275.0" y="150.0" width="25.0" height="25.0" fill="rgb(2,2,2)" />
<rect x="275.0" y="175.0" width="25.0" height="25.0" fill="rgb(2,2,2)" />
<rect x="275.0" y="200.0" width="25.0" height="25.0" fill="rgb(2,2,2)" />
<rect x="275.0" y="225.0" width="25.0" height="25.0" fill="rgb(2,2,2)" />
<rect x="275.0" y="250.0" width="25.0" height="25.0" fill="rgb(2,2,2)" />
<rect x="275.0" y="275.0" width="25.0" height="25.0" fill="rgb(2,2,2)" />
<rect x="275.0" y="300.0" width="25.0" height="25.0" fill="rgb(2,2,2)" />
<rect x="275.0" y="325.0" width="25.0" height="25.0" fill="rgb(1,1,1)" />
<rect x="275.0" y="350.0" width="25.0" height="25.0" fill="rgb(2,2,2)" />
<rect x="275.0" y="375.0" width="25.0" height="25.0" fill="rgb(2,2,2)" />
<rect x="275.0" y="400.0" width="25.0" height="25.0" fill="rgb(2,2,2)" />
<rect x="300.0" y="25.0" width="25.0" height="25.0" fill="rgb(2,2,2)" />
<rect x="300.0" y="50.0" width="25.0" height="25.0" fill="rgb(2,2,2)" />
<rect x="300.0" y="75.0" width="25.0" height="25.0" fill="rgb(2,2,2)" />
<rect x="300.0" y="100.0" width="25.0" height="25.0" fill="rgb(2,2,2)" />
<rect x="300.0" y="125.0" width="25.0" height="25.0" fill="rgb(2,2,2)" />
<rect x="300.0" y="150.0" width="25.0" height="25.0" fill="rgb(2,2,2)" />
<rect x="300.0" y="175.0" width="25.0" height="25.0" fill="rgb(2,2,2)" />
<rect x="300.0" y="200.0" width="25.0" height="25.0" fill="rgb(2,2,2)" />
<rect x="300.0" y="225.0" width="25.0" height="25.0" fill="rgb(2,2,2)" />
<rect x="300.0" y="250.0" width="25.0" height="25.0" fill="rgb(2,2,2)" />
<rect x="300.0" y="275.0" width="25.0" height="25.0" fill="rgb(2,2,2)" />
<rect x="300.0" y="300.0" width="25.0" height="25.0" fill="rgb(1,1,1)" />
<rect x="300.0" y="325.0" width="25.0" height="25.0" fill="rgb(0,0,0)" />
<rect x="300.0" y="350.0" width="25.0" height="25.0" fill="rgb(1,1,1)" />
<rect x="300.0" y="375.0" width="25.0" height="25.0" fill="rgb(2,2,2)" />
<rect x="300.0" y="400.0" width="25.0" height="25.0" fill="rgb(2,2,2)" />
<rect x="325.0" y="25.0" width="25.0" height="25.0" fill="rgb(2,2,2)" />
<rect x="325.0" y="50.0" width="25.0" height="25.0" fill="rgb(2,2,2)" />
<rect x="325.0" y="75.0" width="25.0" height="25.0" fill="rgb(2,2,2)" />
<rect x="325.0" y="100.0" width="25.0" height="25.0" fill="rgb(2,2,2)" />
<rect x="325.0" y="125.0" width="25.0" height="25.0" fill="rgb(2,2,2)" />
<rect x="325.0" y="150.0" width="25.0" height="25.0" fill="rgb(2,2,2)" />
<rect x="325.0" y="175.0" width="25.0" height="25.0" fill="rgb(2,2,2)" />
<rect x="325.0" y="200.0" width="25.0" height="25.0" fill="rgb(2,2,2)" />
<rect x="325.0" y="225.0" width="25.0" height="25.0" fill="rgb(2,2,2)" />
<rect x="325.0" y="250.0" width="25.0" height="25.0" fill="rgb(2,2,2)" />
<rect x="325.0" y="275.0" width="25.0" height="25.0" fill="rgb(2,2,2)" />
<rect x="325.0" y="300.0" width="25.0" height="25.0" fill="rgb(1,1,1)" />
<rect x="325.0" y="325.0" width="25.0" height="25.0" fill="rgb(0,0,0)" />
<rect x="325.0" y="350.0" width="25.0" height="25.0" fill="rgb(1,1,1)" />
<rect x="325.0" y="375.0" width="25.0" height="25.0" fill="rgb(2,2,2)" />
<rect x="325.0" y="400.0" width="25.0" height="25.0" fill="rgb(2,2,2)" />
<rect x="350.0" y="25.0" width="25.0" height="25.0" fill="rgb(2,2,2)" />
<rect x="350.0" y="50.0" width="25.0" height="25.0" fill="rgb(2,2,2)" />
<rect x="350.0" y="75.0" width="25.0" height="25.0" fill="rgb(2,2,2)" />
<rect x="350.0" y="100.0" width="25.0" height="25.0" fill="rgb(2,2,2)" />
<rect x="350.0" y="125.0" width="25.0" height="25.0" fill="rgb(2,2,2)" />
<rect x="350.0" y="150.0" width="25.0" height="25.0" fill="rgb(2,2,2)" />
<rect x="350.0" y="175.0" width="25.0" height="25.0" fill="rgb(2,2,2)" />
<rect x="350.0" y="200.0" width="25.0" height="25.0" fill="rgb(2,2,2)" />
<rect x="350.0" y="225.0" width="25.0" height="25.0" fill="rgb(2,2,2)" />
<rect x="350.0" y="250.0" width="25.0" height="25.0" fill="rgb(2,2,2)" />
<rect x="350.0" y="275.0" width="25.0" height="25.0" fill="rgb(2,2,2)" />
<rect x="350.0" y="300.0" width="25.0" height="25.0" fill="rgb(2,2,2)" />
<rect x="350.0" y="325.0" width="25.0" height="25.0" fill="rgb(1,1,1)" />
<rect x="350.0" y="350.0" width="25.0" height="25.0" fill="rgb(2,2,2)" />
<rect x="350.0" y="375.0" width="25.0" height="25.0" fill="rgb(2,2,2)" />
<rect x="350.0" y="400.0" width="25.0" height="25.0" fill="rgb(2,2,2)" />
<rect x="375.0" y="25.0" width="25.0" height="25.0" fill="rgb(2,2,2)" />
<rect x="375.0" y="50.0" width="25.0" height="25.0" fill="rgb(2,2,2)" />
<rect x="375.0" y="75.0" width="25.0" height="25.0" fill="rgb(2,2,2)" />
<rect x="375.0" y="100.0" width="25.0" height="25.0" fill="rgb(2,2,2)" />
<rect x="375.0" y="125.0" width="25.0" height="25.0" fill="rgb(2,2,2)" />
<rect x="375.0" y="150.0" width="25.0" height="25.0" fill="rgb(2,2,2)" />
<rect x="375.0" y="175.0" width="25.0" height="25.0" fill="rgb(2,2,2)" />
<rect x="375.0" y="200.0" width="25.0" height="25.0" fill="rgb(2,2,2)" />
<rect x="375.0" y="225.0" width="25.0" height="25.0" fill="rgb(2,2,2)" />
<rect x="375.0" y="250.0" width="25.0" height="25.0" fill="rgb(2,2,2)" />
<rect x="375.0" y="275.0" width="25.0" height="25.0" fill="rgb(2,2,2)" />
<rect x="375.0" y="300.0" width="25.0" height="25.0" fill="rgb(2,2,2)" />
<rect x="375.0" y="325.0" width="25.0" height="25.0" fill="rgb(2,2,2)" />
<rect x="375.0" y="350.0" width="25.0" height="25.0" fill="rgb(2,2,2)" />
<rect x="375.0" y="375.0" width="25.0" height="25.0" fill="rgb(2,2,2)" />
<rect x="375.0" y="400.0" width="25.0" height="25.0" fill="rgb(2,2,2)" />
<rect x="400.0" y="25.0" width="25.0" height="25.0" fill="rgb(2,2,2)" />
<rect x="400.0" y="50.0" width="25.0" height="25.0" fill="rgb(2,2,2)" />
<rect x="400.0" y="75.0" width="25.0" height="25.0" fill="rgb(2,2,2)" />
<rect x="400.0" y="100.0" width="25.0" height="25.0" fill="rgb(2,2,2)" />
<rect x="400.0" y="125.0" width="25.0" height="25.0" fill="rgb(2,2,2)" />
<rect x="400.0" y="150.0" width="25.0" height="25.0" fill="rgb(2,2,2)" />
<rect x="400.0" y="175.0" width="25.0" height="25.0" fill="rgb(2,2,2)" />
<rect x="400.0" y="200.0" width="25.0" height="25.0" fill="rgb(2,2,2)" />
<rect x="400.0" y="225.0" width="25.0" height="25.0" fill="rgb(2,2,2)" />
<rect x="400.0" y="250.0" width="25.0" height="25.0" fill="rgb(2,2,2)" />
<rect x="400.0" y="275.0" width="25.0" height="25.0" fill="rgb(2,2,2)" />
<rect x="400.0" y="300.0" width="25.0" height="25.0" fill="rgb(2,2,2)" />
<rect x="400.0" y="325.0" width="25.0" height="25.0" fill="rgb(2,2,2)" />
<rect x="400.0" y="350.0" width="25.0" height="25.0" fill="rgb(2,2,2)" />
<rect x="400.0" y="375.0" width="25.0" height="25.0" fill="rgb(2,2,2)" />
<rect x="400.0" y="400.0" width="25.0" height="25.0" fill="rgb(2,2,2)" />
<circle  cx="341.29913796009095" cy="328.33993899138494" r="7.336147637036817" fill="RED" />
<circle  cx="315.59152503275396" cy="332.5257612639002" r="7.804397398337759" fill="RED" />
</svg>
