<svg xmlns="http://www.w3.org/2000/svg" version="1.1">
<rect x="25.0" y="25.0" width="400.0" height="400.0" fill="GRAY" />
<rect x="25.0" y="25.0" width="25.0" height="25.0" fill="rgb(2,2,2)" />
<rect x="25.0" y="50.0" width="25.0" height="25.0" fill="rgb(2,2,2)" />
<rect x="25.0" y="75.0" width="25.0" height="25.0" fill="rgb(2,2,2)" />
<rect x="25.0" y="100.0" width="25.0" height="25.0" fill="rgb(2,2,2)" />
<rect x="25.0" y="125.0" width="25.0" height="25.0" fill="rgb(2,2,2)" />
<rect x="25.0" y="150.0" width="25.0" height="25.0" fill="rgb(2,2,2)" />
<rect x="25.0" y="175.0" width="25.0" height="25.0" fill="rgb(2,2,2)" />
<rect x="25.0" y="200.0" width="25.0" height="25.0" fill="rgb(2,2,2)" />
<rect x="25.0" y="225.0" width="25.0" height="25.0" fill="rgb(2,2,2)" />
<rect x="25.0" y="250.0" width="25.0" height="25.0" fill="rgb(2,2,2)" />
<rect x="25.0" y="275.0" width="25.0" height="25.0" fill="rgb(4,4,4)" />
<rect x="25.0" y="300.0" width="25.0" height="25.0" fill="rgb(0,0,0)" />
<rect x="25.0" y="325.0" width="25.0" height="25.0" fill="rgb(50,50,50)" />
<rect x="25.0" y="350.0" width="25.0" height="25.0" fill="rgb(0,0,0)" />
<rect x="25.0" y="375.0" width="25.0" height="25.0" fill="rgb(4,4,4)" />
<rect x="25.0" y="400.0" width="25.0" height="25.0" fill="rgb(2,2,2)" />
<rect x="50.0" y="25.0" width="25.0" height="25.0" fill="rgb(2,2,2)" />
<rect x="50.0" y="50.0" width="25.0" height="25.0" fill="rgb(2,2,2)" />
<rect x="50.0" y="75.0" width="25.0" height="25.0" fill="rgb(2,2,2)" />
<rect x="50.0" y="100.0" width="25.0" height="25.0" fill="rgb(2,2,2)" />
<rect x="50.0" y="125.0" width="25.0" height="25.0" fill="rgb(2,2,2)" />
<rect x="50.0" y="150.0" width="25.0" height="25.0" fill="rgb(2,2,2)" />
<rect x="50.0" y="175.0" width="25.0" height="25.0" fill="rgb(2,2,2)" />
<rect x="50.0" y="200.0" width="25.0" height="25.0" fill="rgb(2,2,2)" />
<rect x="50.0" y="225.0" width="25.0" height="25.0" fill="rgb(2,2,2)" />
<rect x="50.0" y="250.0" width="25.0" height="25.0" fill="rgb(8,8,8)" />
<rect x="50.0" y="275.0" width="25.0" height="25.0" fill="rgb(0,0,0)" />
<rect x="50.0" y="300.0" width="25.0" height="25.0" fill="rgb(255,255,255)" />
<rect x="50.0" y="325.0" width="25.0" height="25.0" fill="rgb(0,0,0)" />
<rect x="50.0" y="350.0" width="25.0" height="25.0" fill="rgb(255,255,255)" />
<rect x="50.0" y="375.0" width="25.0" height="25.0" fill="rgb(0,0,0)" />
<rect x="50.0" y="400.0" width="25.0" height="25.0" fill="rgb(7,7,7)" />
<rect x="75.0" y="25.0" width="25.0" height="25.0" fill="rgb(2,2,2)" />
<rect x="75.0" y="50.0" width="25.0" height="25.0" fill="rgb(2,2,2)" />
<rect x="75.0" y="75.0" width="25.0" height="25.0" fill="rgb(2,2,2)" />
<rect x="75.0" y="100.0" width="25.0" height="25.0" fill="rgb(2,2,2)" />
<rect x="75.0" y="125.0" width="25.0" height="25.0" fill="rgb(2,2,2)" />
<rect x="75.0" y="150.0" width="25.0" height="25.0" fill="rgb(2,2,2)" />
<rect x="75.0" y="175.0" width="25.0" height="25.0" fill="rgb(2,2,2)" />
<rect x="75.0" y="200.0" width="25.0" height="25.0" fill="rgb(1,1,1)" />
<rect x="75.0" y="225.0" width="25.0" height="25.0" fill="rgb(16,16,16)" />
<rect x="75.0" y="250.0" width="25.0" height="25.0" fill="rgb(0,0,0)" />
<rect x="75.0" y="275.0" width="25.0" height="25.0" fill="rgb(255,255,255)" />
<rect x="75.0" y="300.0" width="25.0" height="25.0" fill="rgb(0,0,0)" />
<rect x="75.0" y="325.0" width="25.0" height="25.0" fill="rgb(255,255,255)" />
<rect x="75.0" y="350.0" width="25.0" height="25.0" fill="rgb(0,0,0)" />
<rect x="75.0" y="375.0" width="25.0" height="25.0" fill="rgb(255,255,255)" />
<rect x="75.0" y="400.0" width="25.0" height="25.0" fill="rgb(0,0,0)" />
<rect x="100.0" y="25.0" width="25.0" height="25.0" fill="rgb(2,2,2)" />
<rect x="100.0" y="50.0" width="25.0" height="25.0" fill="rgb(2,2,2)" />
<rect x="100.0" y="75.0" width="25.0" height="25.0" fill="rgb(2,2,2)" />
<rect x="100.0" y="100.0" width="25.0" height="25.0" fill="rgb(2,2,2)" />
<rect x="100.0" y="125.0" width="25.0" height="25.0" fill="rgb(2,2,2)" />
<rect x="100.0" y="150.0" width="25.0" height="25.0" fill="rgb(2,2,2)" />
<rect x="100.0" y="175.0" width="25.0" height="25.0" fill="rgb(1,1,1)" />
<rect x="100.0" y="200.0" width="25.0" height="25.0" fill="rgb(27,27,27)" />
<rect x="100.0" y="225.0" width="25.0" height="25.0" fill="rgb(0,0,0)" />
<rect x="100.0" y="250.0" width="25.0" height="25.0" fill="rgb(255,255,255)" />
<rect x="100.0" y="275.0" width="25.0" height="25.0" fill="rgb(0,0,0)" />
<rect x="100.0" y="300.0" width="25.0" height="25.0" fill="rgb(255,255,255)" />
<rect x="100.0" y="325.0" width="25.0" height="25.0" fill="rgb(0,0,0)" />
<rect x="100.0" y="350.0" width="25.0" height="25.0" fill="rgb(255,255,255)" />
<rect x="100.0" y="375.0" width="25.0" height="25.0" fill="rgb(0,0,0)" />
<rect x="100.0" y="400.0" width="25.0" height="25.0" fill="rgb(255,255,255)" />
<rect x="125.0" y="25.0" width="25.0" height="25.0" fill="rgb(2,2,2)" />
<rect x="125.0" y="50.0" width="25.0" height="25.0" fill="rgb(2,2,2)" />
<rect x="125.0" y="75.0" width="25.0" height="25.0" fill="rgb(2,2,2)" />
<rect x="125.0" y="100.0" width="25.0" height="25.0" fill="rgb(2,2,2)" />
<rect x="125.0" y="125.0" width="25.0" height="25.0" fill="rgb(2,2,2)" />
<rect x="125.0" y="150.0" width="25.0" height="25.0" fill="rgb(1,1,1)" />
<rect x="125.0" y="175.0" width="25.0" height="25.0" fill="rgb(35,35,35)" />
<rect x="125.0" y="200.0" width="25.0" height="25.0" fill="rgb(0,0,0)" />
<rect x="125.0" y="225.0" width="25.0" height="25.0" fill="rgb(255,255,255)" />
<rect x="125.0" y="250.0" width="25.0" height="25.0" fill="rgb(0,0,0)" />
<rect x="125.0" y="275.0" width="25.0" height="25.0" fill="rgb(255,255,255)" />
<rect x="125.0" y="300.0" width="25.0" height="25.0" fill="rgb(0,0,0)" />
<rect x="125.0" y="325.0" width="25.0" height="25.0" fill="rgb(255,255,255)" />
<rect x="125.0" y="350.0" width="25.0" height="25.0" fill="rgb(0,0,0)" />
<rect x="125.0" y="375.0" width="25.0" height="25.0" fill="rgb(255,255,255)" />
<rect x="125.0" y="400.0" width="25.0" height="25.0" fill="rgb(0,0,0)" />
<rect x="150.0" y="25.0" width="25.0" height="25.0" fill="rgb(2,2,2)" />
<rect x="150.0" y="50.0" width="25.0" height="25.0" fill="rgb(2,2,2)" />
<rect x="150.0" y="75.0" width="25.0" height="25.0" fill="rgb(2,2,2)" />
<rect x="150.0" y="100.0" width="25.0" height="25.0" fill="rgb(2,2,2)" />
<rect x="150.0" y="125.0" width="25.0" height="25.0" fill="rgb(1,1,1)" />
<rect x="150.0" y="150.0" width="25.0" height="25.0" fill="rgb(35,35,35)" />
<rect x="150.0" y="175.0" width="25.0" height="25.0" fill="rgb(0,0,0)" />
<rect x="150.0" y="200.0" width="25.0" height="25.0" fill="rgb(255,255,255)" />
<rect x="150.0" y="225.0" width="25.0" height="25.0" fill="rgb(0,0,0)" />
<rect x="150.0" y="250.0" width="25.0" height="25.0" fill="rgb(255,255,255)" />
<rect x="150.0" y="275.0" width="25.0" height="25.0" fill="rgb(0,0,0)" />
<rect x="150.0" y="300.0" width="25.0" height="25.0" fill="rgb(255,255,255)" />
<rect x="150.0" y="325.0" width="25.0" height="25.0" fill="rgb(0,0,0)" />
<rect x="150.0" y="350.0" width="25.0" height="25.0" fill="rgb(255,255,255)" />
<rect x="150.0" y="375.0" width="25.0" height="25.0" fill="rgb(0,0,0)" />
<rect x="150.0" y="400.0" width="25.0" height="25.0" fill="rgb(255,255,255)" />
<rect x="175.0" y="25.0" width="25.0" height="25.0" fill="rgb(2,2,2)" />
<rect x="175.0" y="50.0" width="25.0" height="25.0" fill="rgb(2,2,2)" />
<rect x="175.0" y="75.0" width="25.0" height="25.0" fill="rgb(2,2,2)" />
<rect x="175.0" y="100.0" width="25.0" height="25.0" fill="rgb(1,1,1)" />
<rect x="175.0" y="125.0" width="25.0" height="25.0" fill="rgb(27,27,27)" />
<rect x="175.0" y="150.0" width="25.0" height="25.0" fill="rgb(0,0,0)" />
<rect x="175.0" y="175.0" width="25.0" height="25.0" fill="rgb(255,255,255)" />
<rect x="175.0" y="200.0" width="25.0" height="25.0" fill="rgb(0,0,0)" />
<rect x="175.0" y="225.0" width="25.0" height="25.0" fill="rgb(255,255,255)" />
<rect x="175.0" y="250.0" width="25.0" height="25.0" fill="rgb(0,0,0)" />
<rect x="175.0" y="275.0" width="25.0" height="25.0" fill="rgb(255,255,255)" />
<rect x="175.0" y="300.0" width="25.0" height="25.0" fill="rgb(0,0,0)" />
<rect x="175.0" y="325.0" width="25.0" height="25.0" fill="rgb(255,255,255)" />
<rect x="175.0" y="350.0" width="25.0" height="25.0" fill="rgb(0,0,0)" />
<rect x="175.0" y="375.0" width="25.0" height="25.0" fill="rgb(255,255,255)" />
<rect x="175.0" y="400.0" width="25.0" height="25.0" fill="rgb(0,0,0)" />
<rect x="200.0" y="25.0" width="25.0" height="25.0" fill="rgb(2,2,2)" />
<rect x="200.0" y="50.0" width="25.0" height="25.0" fill="rgb(2,2,2)" />
<rect x="200.0" y="75.0" width="25.0" height="25.0" fill="rgb(2,2,2)" />
<rect x="200.0" y="100.0" width="25.0" height="25.0" fill="rgb(16,16,16)" />
<rect x="200.0" y="125.0" width="25.0" height="25.0" fill="rgb(0,0,0)" />
<rect x="200.0" y="150.0" width="25.0" height="25.0" fill="rgb(255,255,255)" />
<rect x="200.0" y="175.0" width="25.0" height="25.0" fill="rgb(0,0,0)" />
<rect x="200.0" y="200.0" width="25.0" height="25.0" fill="rgb(255,255,255)" />
<rect x="200.0" y="225.0" width="25.0" height="25.0" fill="rgb(0,0,0)" />
<rect x="200.0" y="250.0" width="25.0" height="25.0" fill="rgb(255,255,255)" />
<rect x="200.0" y="275.0" width="25.0" height="25.0" fill="rgb(0,0,0)" />
<rect x="200.0" y="300.0" width="25.0" height="25.0" fill="rgb(255,255,255)" />
<rect x="200.0" y="325.0" width="25.0" height="25.0" fill="rgb(0,0,0)" />
<rect x="200.0" y="350.0" width="25.0" height="25.0" fill="rgb(255,255,255)" />
<rect x="200.0" y="375.0" width="25.0" height="25.0" fill="rgb(0,0,0)" />
<rect x="200.0" y="400.0" width="25.0" height="25.0" fill="rgb(255,255,255)" />
<rect x="225.0" y="25.0" width="25.0" height="25.0" fill="rgb(2,2,2)" />
<rect x="225.0" y="50.0" width="25.0" height="25.0" fill="rgb(2,2,2)" />
<rect x="225.0" y="75.0" width="25.0" height="25.0" fill="rgb(8,8,8)" />
<rect x="225.0" y="100.0" width="25.0" height="25.0" fill="rgb(0,0,0)" />
<rect x="225.0" y="125.0" width="25.0" height="25.0" fill="rgb(255,255,255)" />
<rect x="225.0" y="150.0" width="25.0" height="25.0" fill="rgb(0,0,0)" />
<rect x="225.0" y="175.0" width="25.0" height="25.0" fill="rgb(255,255,255)" />
<rect x="225.0" y="200.0" width="25.0" height="25.0" fill="rgb(0,0,0)" />
<rect x="225.0" y="225.0" width="25.0" height="25.0" fill="rgb(255,255,255)" />
<rect x="225.0" y="250.0" width="25.0" height="25.0" fill="rgb(0,0,0)" />
<rect x="225.0" y="275.0" width="25.0" height="25.0" fill="rgb(255,255,255)" />
<rect x="225.0" y="300.0" width="25.0" height="25.0" fill="rgb(0,0,0)" />
<rect x="225.0" y="325.0" width="25.0" height="25.0" fill="rgb(255,255,255)" />
<rect x="225.0" y="350.0" width="25.0" height="25.0" fill="rgb(0,0,0)" />
<rect x="225.0" y="375.0" width="25.0" height="25.0" fill="rgb(255,255,255)" />
<rect x="225.0" y="400.0" width="25.0" height="25.0" fill="rgb(0,0,0)" />
<rect x="250.0" y="25.0" width="25.0" height="25.0" fill="rgb(2,2,2)" />
<rect x="250.0" y="50.0" width="25.0" height="25.0" fill="rgb(4,4,4)" />
<rect x="250.0" y="75.0" width="25.0" height="25.0" fill="rgb(0,0,0)" />
<rect x="250.0" y="100.0" width="25.0" height="25.0" fill="rgb(255,255,255)" />
<rect x="250.0" y="125.0" width="25.0" height="25.0" fill="rgb(0,0,0)" />
<rect x="250.0" y="150.0" width="25.0" height="25.0" fill="rgb(255,255,255)" />
<rect x="250.0" y="175.0" width="25.0" height="25.0" fill="rgb(0,0,0)" />
<rect x="250.0" y="200.0" width="25.0" height="25.0" fill="rgb(255,255,255)" />
<rect x="250.0" y="225.0" width="25.0" height="25.0" fill="rgb(0,0,0)" />
<rect x="250.0" y="250.0" width="25.0" height="25.0" fill="rgb(255,255,255)" />
<rect x="250.0" y="275.0" width="25.0" height="25.0" fill="rgb(0,0,0)" />
<rect x="250.0" y="300.0" width="25.0" height="25.0" fill="rgb(255,255,255)" />
<rect x="250.0" y="325.0" width="25.0" height="25.0" fill="rgb(0,0,0)" />
<rect x="250.0" y="350.0" width="25.0" height="25.0" fill="rgb(255,255,255)" />
<rect x="250.0" y="375.0" width="25.0" height="25.0" fill="rgb(0,0,0)" />
<rect x="250.0" y="400.0" width="25.0" height="25.0" fill="rgb(255,255,255)" />
<rect x="275.0" y="25.0" width="25.0" height="25.0" fill="rgb(2,2,2)" />
<rect x="275.0" y="50.0" width="25.0" height="25.0" fill="rgb(0,0,0)" />
<rect x="275.0" y="75.0" width="25.0" height="25.0" fill="rgb(255,255,255)" />
<rect x="275.0" y="100.0" width="25.0" height="25.0" fill="rgb(0,0,0)" />
<rect x="275.0" y="125.0" width="25.0" height="25.0" fill="rgb(255,255,255)" />
<rect x="275.0" y="150.0" width="25.0" height="25.0" fill="rgb(0,0,0)" />
<rect x="275.0" y="175.0" width="25.0" height="25.0" fill="rgb(255,255,255)" />
<rect x="275.0" y="200.0" width="25.0" height="25.0" fill="rgb(0,0,0)" />
<rect x="275.0" y="225.0" width="25.0" height="25.0" fill="rgb(255,255,255)" />
<rect x="275.0" y="250.0" width="25.0" height="25.0" fill="rgb(0,0,0)" />
<rect x="275.0" y="275.0" width="25.0" height="25.0" fill="rgb(255,255,255)" />
<rect x="275.0" y="300.0" width="25.0" height="25.0" fill="rgb(0,0,0)" />
<rect x="275.0" y="325.0" width="25.0" height="25.0" fill="rgb(255,255,255)" />
<rect x="275.0" y="350.0" width="25.0" height="25.0" fill="rgb(0,0,0)" />
<rect x="275.0" y="375.0" width="25.0" height="25.0" fill="rgb(255,255,255)" />
<rect x="275.0" y="400.0" width="25.0" height="25.0" fill="rgb(0,0,0)" />
<rect x="300.0" y="25.0" width="25.0" height="25.0" fill="rgb(1,1,1)" />
<rect x="300.0" y="50.0" width="25.0" height="25.0" fill="rgb(52,52,52)" />
<rect x="300.0" y="75.0" width="25.0" height="25.0" fill="rgb(0,0,0)" />
<rect x="300.0" y="100.0" width="25.0" height="25.0" fill="rgb(255,255,255)" />
<rect x="300.0" y="125.0" width="25.0" height="25.0" fill="rgb(0,0,0)" />
<rect x="300.0" y="150.0" width="25.0" height="25.0" fill="rgb(255,255,255)" />
<rect x="300.0" y="175.0" width="25.0" height="25.0" fill="rgb(0,0,0)" />
<rect x="300.0" y="200.0" width="25.0" height="25.0" fill="rgb(255,255,255)" />
<rect x="300.0" y="225.0" width="25.0" height="25.0" fill="rgb(0,0,0)" />
<rect x="300.0" y="250.0" width="25.0" height="25.0" fill="rgb(255,255,255)" />
<rect x="300.0" y="275.0" width="25.0" height="25.0" fill="rgb(0,0,0)" />
<rect x="300.0" y="300.0" width="25.0" height="25.0" fill="rgb(255,255,255)" />
<rect x="300.0" y="325.0" width="25.0" height="25.0" fill="rgb(0,0,0)" />
<rect x="300.0" y="350.0" width="25.0" height="25.0" fill="rgb(255,255,255)" />
<rect x="300.0" y="375.0" width="25.0" height="25.0" fill="rgb(0,0,0)" />
<rect x="300.0" y="400.0" width="25.0" height="25.0" fill="rgb(255,255,255)" />
<rect x="325.0" y="25.0" width="25.0" height="25.0" fill="rgb(2,2,2)" />
<rect x="325.0" y="50.0" width="25.0" height="25.0" fill="rgb(0,0,0)" />
<rect x="325.0" y="75.0" width="25.0" height="25.0" fill="rgb(255,255,255)" />
<rect x="325.0" y="100.0" width="25.0" height="25.0" fill="rgb(0,0,0)" />
<rect x="325.0" y="125.0" width="25.0" height="25.0" fill="rgb(255,255,255)" />
<rect x="325.0" y="150.0" width="25.0" height="25.0" fill="rgb(0,0,0)" />
<rect x="325.0" y="175.0" width="25.0" height="25.0" fill="rgb(255,255,255)" />
<rect x="325.0" y="200.0" width="25.0" height="25.0" fill="rgb(0,0,0)" />
<rect x="325.0" y="225.0" width="25.0" height="25.0" fill="rgb(255,255,255)" />
<rect x="325.0" y="250.0" width="25.0" height="25.0" fill="rgb(0,0,0)" />
<rect x="325.0" y="275.0" width="25.0" height="25.0" fill="rgb(255,255,255)" />
<rect x="325.0" y="300.0" width="25.0" height="25.0" fill="rgb(0,0,0)" />
<rect x="325.0" y="325.0" width="25.0" height="25.0" fill="rgb(255,255,255)" />
<rect x="325.0" y="350.0" width="25.0" height="25.0" fill="rgb(0,0,0)" />
<rect x="325.0" y="375.0" width="25.0" height="25.0" fill="rgb(255,255,255)" />
<rect x="325.0" y="400.0" width="25.0" height="25.0" fill="rgb(0,0,0)" />
<rect x="350.0" y="25.0" width="25.0" height="25.0" fill="rgb(2,2,2)" />
<rect x="350.0" y="50.0" width="25.0" height="25.0" fill="rgb(4,4,4)" />
<rect x="350.0" y="75.0" width="25.0" height="25.0" fill="rgb(0,0,0)" />
<rect x="350.0" y="100.0" width="25.0" height="25.0" fill="rgb(255,255,255)" />
<rect x="350.0" y="125.0" width="25.0" height="25.0" fill="rgb(0,0,0)" />
<rect x="350.0" y="150.0" width="25.0" height="25.0" fill="rgb(255,255,255)" />
<rect x="350.0" y="175.0" width="25.0" height="25.0" fill="rgb(0,0,0)" />
<rect x="350.0" y="200.0" width="25.0" height="25.0" fill="rgb(255,255,255)" />
<rect x="350.0" y="225.0" width="25.0" height="25.0" fill="rgb(0,0,0)" />
<rect x="350.0" y="250.0" width="25.0" height="25.0" fill="rgb(255,255,255)" />
<rect x="350.0" y="275.0" width="25.0" height="25.0" fill="rgb(0,0,0)" />
<rect x="350.0" y="300.0" width="25.0" height="25.0" fill="rgb(255,255,255)" />
<rect x="350.0" y="325.0" width="25.0" height="25.0" fill="rgb(0,0,0)" />
<rect x="350.0" y="350.0" width="25.0" height="25.0" fill="rgb(255,255,255)" />
<rect x="350.0" y="375.0" width="25.0" height="25.0" fill="rgb(0,0,0)" />
<rect x="350.0" y="400.0" width="25.0" height="25.0" fill="rgb(255,255,255)" />
<rect x="375.0" y="25.0" width="25.0" height="25.0" fill="rgb(2,2,2)" />
<rect x="375.0" y="50.0" width="25.0" height="25.0" fill="rgb(2,2,2)" />
<rect x="375.0" y="75.0" width="25.0" height="25.0" fill="rgb(13,13,13)" />
<rect x="375.0" y="100.0" width="25.0" height="25.0" fill="rgb(0,0,0)" />
<rect x="375.0" y="125.0" width="25.0" height="25.0" fill="rgb(255,255,255)" />
<rect x="375.0" y="150.0" width="25.0" height="25.0" fill="rgb(0,0,0)" />
<rect x="375.0" y="175.0" width="25.0" height="25.0" fill="rgb(255,255,255)" />
<rect x="375.0" y="200.0" width="25.0" height="25.0" fill="rgb(0,0,0)" />
<rect x="375.0" y="225.0" width="25.0" height="25.0" fill="rgb(255,255,255)" />
<rect x="375.0" y="250.0" width="25.0" height="25.0" fill="rgb(0,0,0)" />
<rect x="375.0" y="275.0" width="25.0" height="25.0" fill="rgb(255,255,255)" />
<rect x="375.0" y="300.0" width="25.0" height="25.0" fill="rgb(0,0,0)" />
<rect x="375.0" y="325.0" width="25.0" height="25.0" fill="rgb(255,255,255)" />
<rect x="375.0" y="350.0" width="25.0" height="25.0" fill="rgb(0,0,0)" />
<rect x="375.0" y="375.0" width="25.0" height="25.0" fill="rgb(255,255,255)" />
<rect x="375.0" y="400.0" width="25.0" height="25.0" fill="rgb(0,0,0)" />
<rect x="400.0" y="25.0" width="25.0" height="25.0" fill="rgb(2,2,2)" />
<rect x="400.0" y="50.0" width="25.0" height="25.0" fill="rgb(2,2,2)" />
<rect x="400.0" y="75.0" width="25.0" height="25.0" fill="rgb(1,1,1)" />
<rect x="400.0" y="100.0" width="25.0" height="25.0" fill="rgb(31,31,31)" />
<rect x="400.0" y="125.0" width="25.0" height="25.0" fill="rgb(0,0,0)" />
<rect x="400.0" y="150.0" width="25.0" height="25.0" fill="rgb(255,255,255)" />
<rect x="400.0" y="175.0" width="25.0" height="25.0" fill="rgb(0,0,0)" />
<rect x="400.0" y="200.0" width="25.0" height="25.0" fill="rgb(255,255,255)" />
<rect x="400.0" y="225.0" width="25.0" height="25.0" fill="rgb(0,0,0)" />
<rect x="400.0" y="250.0" width="25.0" height="25.0" fill="rgb(255,255,255)" />
<rect x="400.0" y="275.0" width="25.0" height="25.0" fill="rgb(0,0,0)" />
<rect x="400.0" y="300.0" width="25.0" height="25.0" fill="rgb(255,255,255)" />
<rect x="400.0" y="325.0" width="25.0" height="25.0" fill="rgb(0,0,0)" />
<rect x="400.0" y="350.0" width="25.0" height="25.0" fill="rgb(255,255,255)" />
<rect x="400.0" y="375.0" width="25.0" height="25.0" fill="rgb(0,0,0)" />
<rect x="400.0" y="400.0" width="25.0" height="25.0" fill="rgb(255,255,255)" />
<circle  cx="339.88809575474505" cy="327.67779743069576" r="8.340158839144168" fill="RED" />
<circle  cx="314.30364314744827" cy="328.7203534621657" r="8.872492371518199" fill="RED" />
</svg>
