<svg xmlns="http://www.w3.org/2000/svg" version="1.1">
<rect x="25.0" y="25.0" width="400.0" height="400.0" fill="GRAY" />
<rect x="25.0" y="25.0" width="25.0" height="25.0" fill="rgb(255,255,255)" />
<rect x="25.0" y="50.0" width="25.0" height="25.0" fill="rgb(0,0,0)" />
<rect x="25.0" y="75.0" width="25.0" height="25.0" fill="rgb(255,255,255)" />
<rect x="25.0" y="100.0" width="25.0" height="25.0" fill="rgb(0,0,0)" />
<rect x="25.0" y="125.0" width="25.0" height="25.0" fill="rgb(255,255,255)" />
<rect x="25.0" y="150.0" width="25.0" height="25.0" fill="rgb(0,0,0)" />
<rect x="25.0" y="175.0" width="25.0" height="25.0" fill="rgb(255,255,255)" />
<rect x="25.0" y="200.0" width="25.0" height="25.0" fill="rgb(0,0,0)" />
<rect x="25.0" y="225.0" width="25.0" height="25.0" fill="rgb(255,255,255)" />
<rect x="25.0" y="250.0" width="25.0" height="25.0" fill="rgb(0,0,0)" />
<rect x="25.0" y="275.0" width="25.0" height="25.0" fill="rgb(255,255,255)" />
<rect x="25.0" y="300.0" width="25.0" height="25.0" fill="rgb(0,0,0)" />
<rect x="25.0" y="325.0" width="25.0" height="25.0" fill="rgb(255,255,255)" />
<rect x="25.0" y="350.0" width="25.0" height="25.0" fill="rgb(0,0,0)" />
<rect x="25.0" y="375.0" width="25.0" height="25.0" fill="rgb(255,255,255)" />
<rect x="25.0" y="400.0" width="25.0" height="25.0" fill="rgb(0,0,0)" />
<rect x="50.0" y="25.0" width="25.0" height="25.0" fill="rgb(0,0,0)" />
<rect x="50.0" y="50.0" width="25.0" height="25.0" fill="rgb(255,255,255)" />
<rect x="50.0" y="75.0" width="25.0" height="25.0" fill="rgb(0,0,0)" />
<rect x="50.0" y="100.0" width="25.0" height="25.0" fill="rgb(255,255,255)" />
<rect x="50.0" y="125.0" width="25.0" height="25.0" fill="rgb(0,0,0)" />
<rect x="50.0" y="150.0" width="25.0" height="25.0" fill="rgb(255,255,255)" />
<rect x="50.0" y="175.0" width="25.0" height="25.0" fill="rgb(0,0,0)" />
<rect x="50.0" y="200.0" width="25.0" height="25.0" fill="rgb(255,255,255)" />
<rect x="50.0" y="225.0" width="25.0" height="25.0" fill="rgb(0,0,0)" />
<rect x="50.0" y="250.0" width="25.0" height="25.0" fill="rgb(255,255,255)" />
<rect x="50.0" y="275.0" width="25.0" height="25.0" fill="rgb(0,0,0)" />
<rect x="50.0" y="300.0" width="25.0" height="25.0" fill="rgb(255,255,255)" />
<rect x="50.0" y="325.0" width="25.0" height="25.0" fill="rgb(0,0,0)" />
<rect x="50.0" y="350.0" width="25.0" height="25.0" fill="rgb(255,255,255)" />
<rect x="50.0" y="375.0" width="25.0" height="25.0" fill="rgb(0,0,0)" />
<rect x="50.0" y="400.0" width="25.0" height="25.0" fill="rgb(255,255,255)" />
<rect x="75.0" y="25.0" width="25.0" height="25.0" fill="rgb(255,255,255)" />
<rect x="75.0" y="50.0" width="25.0" height="25.0" fill="rgb(0,0,0)" />
<rect x="75.0" y="75.0" width="25.0" height="25.0" fill="rgb(255,255,255)" />
<rect x="75.0" y="100.0" width="25.0" height="25.0" fill="rgb(0,0,0)" />
<rect x="75.0" y="125.0" width="25.0" height="25.0" fill="rgb(255,255,255)" />
<rect x="75.0" y="150.0" width="25.0" height="25.0" fill="rgb(0,0,0)" />
<rect x="75.0" y="175.0" width="25.0" height="25.0" fill="rgb(255,255,255)" />
<rect x="75.0" y="200.0" width="25.0" height="25.0" fill="rgb(0,0,0)" />
<rect x="75.0" y="225.0" width="25.0" height="25.0" fill="rgb(255,255,255)" />
<rect x="75.0" y="250.0" width="25.0" height="25.0" fill="rgb(0,0,0)" />
<rect x="75.0" y="275.0" width="25.0" height="25.0" fill="rgb(255,255,255)" />
<rect x="75.0" y="300.0" width="25.0" height="25.0" fill="rgb(0,0,0)" />
<rect x="75.0" y="325.0" width="25.0" height="25.0" fill="rgb(255,255,255)" />
<rect x="75.0" y="350.0" width="25.0" height="25.0" fill="rgb(0,0,0)" />
<rect x="75.0" y="375.0" width="25.0" height="25.0" fill="rgb(255,255,255)" />
<rect x="75.0" y="400.0" width="25.0" height="25.0" fill="rgb(0,0,0)" />
<rect x="100.0" y="25.0" width="25.0" height="25.0" fill="rgb(0,0,0)" />
<rect x="100.0" y="50.0" width="25.0" height="25.0" fill="rgb(255,255,255)" />
<rect x="100.0" y="75.0" width="25.0" height="25.0" fill="rgb(0,0,0)" />
<rect x="100.0" y="100.0" width="25.0" height="25.0" fill="rgb(255,255,255)" />
<rect x="100.0" y="125.0" width="25.0" height="25.0" fill="rgb(0,0,0)" />
<rect x="100.0" y="150.0" width="25.0" height="25.0" fill="rgb(255,255,255)" />
<rect x="100.0" y="175.0" width="25.0" height="25.0" fill="rgb(0,0,0)" />
<rect x="100.0" y="200.0" width="25.0" height="25.0" fill="rgb(255,255,255)" />
<rect x="100.0" y="225.0" width="25.0" height="25.0" fill="rgb(0,0,0)" />
<rect x="100.0" y="250.0" width="25.0" height="25.0" fill="rgb(255,255,255)" />
<rect x="100.0" y="275.0" width="25.0" height="25.0" fill="rgb(0,0,0)" />
<rect x="100.0" y="300.0" width="25.0" height="25.0" fill="rgb(255,255,255)" />
<rect x="100.0" y="325.0" width="25.0" height="25.0" fill="rgb(0,0,0)" />
<rect x="100.0" y="350.0" width="25.0" height="25.0" fill="rgb(255,255,255)" />
<rect x="100.0" y="375.0" width="25.0" height="25.0" fill="rgb(0,0,0)" />
<rect x="100.0" y="400.0" width="25.0" height="25.0" fill="rgb(255,255,255)" />
<rect x="125.0" y="25.0" width="25.0" height="25.0" fill="rgb(255,255,255)" />
<rect x="125.0" y="50.0" width="25.0" height="25.0" fill="rgb(0,0,0)" />
<rect x="125.0" y="75.0" width="25.0" height="25.0" fill="rgb(255,255,255)" />
<rect x="125.0" y="100.0" width="25.0" height="25.0" fill="rgb(0,0,0)" />
<rect x="125.0" y="125.0" width="25.0" height="25.0" fill="rgb(255,255,255)" />
<rect x="125.0" y="150.0" width="25.0" height="25.0" fill="rgb(0,0,0)" />
<rect x="125.0" y="175.0" width="25.0" height="25.0" fill="rgb(255,255,255)" />
<rect x="125.0" y="200.0" width="25.0" height="25.0" fill="rgb(0,0,0)" />
<rect x="125.0" y="225.0" width="25.0" height="25.0" fill="rgb(255,255,255)" />
<rect x="125.0" y="250.0" width="25.0" height="25.0" fill="rgb(0,0,0)" />
<rect x="125.0" y="275.0" width="25.0" height="25.0" fill="rgb(255,255,255)" />
<rect x="125.0" y="300.0" width="25.0" height="25.0" fill="rgb(0,0,0)" />
<rect x="125.0" y="325.0" width="25.0" height="25.0" fill="rgb(255,255,255)" />
<rect x="125.0" y="350.0" width="25.0" height="25.0" fill="rgb(0,0,0)" />
<rect x="125.0" y="375.0" width="25.0" height="25.0" fill="rgb(255,255,255)" />
<rect x="125.0" y="400.0" width="25.0" height="25.0" fill="rgb(0,0,0)" />
<rect x="150.0" y="25.0" width="25.0" height="25.0" fill="rgb(0,0,0)" />
<rect x="150.0" y="50.0" width="25.0" height="25.0" fill="rgb(255,255,255)" />
<rect x="150.0" y="75.0" width="25.0" height="25.0" fill="rgb(0,0,0)" />
<rect x="150.0" y="100.0" width="25.0" height="25.0" fill="rgb(255,255,255)" />
<rect x="150.0" y="125.0" width="25.0" height="25.0" fill="rgb(0,0,0)" />
<rect x="150.0" y="150.0" width="25.0" height="25.0" fill="rgb(255,255,255)" />
<rect x="150.0" y="175.0" width="25.0" height="25.0" fill="rgb(0,0,0)" />
<rect x="150.0" y="200.0" width="25.0" height="25.0" fill="rgb(255,255,255)" />
<rect x="150.0" y="225.0" width="25.0" height="25.0" fill="rgb(0,0,0)" />
<rect x="150.0" y="250.0" width="25.0" height="25.0" fill="rgb(255,255,255)" />
<rect x="150.0" y="275.0" width="25.0" height="25.0" fill="rgb(0,0,0)" />
<rect x="150.0" y="300.0" width="25.0" height="25.0" fill="rgb(255,255,255)" />
<rect x="150.0" y="325.0" width="25.0" height="25.0" fill="rgb(0,0,0)" />
<rect x="150.0" y="350.0" width="25.0" height="25.0" fill="rgb(255,255,255)" />
<rect x="150.0" y="375.0" width="25.0" height="25.0" fill="rgb(0,0,0)" />
<rect x="150.0" y="400.0" width="25.0" height="25.0" fill="rgb(255,255,255)" />
<rect x="175.0" y="25.0" width="25.0" height="25.0" fill="rgb(255,255,255)" />
<rect x="175.0" y="50.0" width="25.0" height="25.0" fill="rgb(0,0,0)" />
<rect x="175.0" y="75.0" width="25.0" height="25.0" fill="rgb(255,255,255)" />
<rect x="175.0" y="100.0" width="25.0" height="25.0" fill="rgb(0,0,0)" />
<rect x="175.0" y="125.0" width="25.0" height="25.0" fill="rgb(255,255,255)" />
<rect x="175.0" y="150.0" width="25.0" height="25.0" fill="rgb(0,0,0)" />
<rect x="175.0" y="175.0" width="25.0" height="25.0" fill="rgb(255,255,255)" />
<rect x="175.0" y="200.0" width="25.0" height="25.0" fill="rgb(0,0,0)" />
<rect x="175.0" y="225.0" width="25.0" height="25.0" fill="rgb(255,255,255)" />
<rect x="175.0" y="250.0" width="25.0" height="25.0" fill="rgb(0,0,0)" />
<rect x="175.0" y="275.0" width="25.0" height="25.0" fill="rgb(255,255,255)" />
<rect x="175.0" y="300.0" width="25.0" height="25.0" fill="rgb(0,0,0)" />
<rect x="175.0" y="325.0" width="25.0" height="25.0" fill="rgb(255,255,255)" />
<rect x="175.0" y="350.0" width="25.0" height="25.0" fill="rgb(0,0,0)" />
<rect x="175.0" y="375.0" width="25.0" height="25.0" fill="rgb(255,255,255)" />
<rect x="175.0" y="400.0" width="25.0" height="25.0" fill="rgb(0,0,0)" />
<rect x="200.0" y="25.0" width="25.0" height="25.0" fill="rgb(0,0,0)" />
<rect x="200.0" y="50.0" width="25.0" height="25.0" fill="rgb(255,255,255)" />
<rect x="200.0" y="75.0" width="25.0" height="25.0" fill="rgb(0,0,0)" />
<rect x="200.0" y="100.0" width="25.0" height="25.0" fill="rgb(255,255,255)" />
<rect x="200.0" y="125.0" width="25.0" height="25.0" fill="rgb(0,0,0)" />
<rect x="200.0" y="150.0" width="25.0" height="25.0" fill="rgb(255,255,255)" />
<rect x="200.0" y="175.0" width="25.0" height="25.0" fill="rgb(0,0,0)" />
<rect x="200.0" y="200.0" width="25.0" height="25.0" fill="rgb(255,255,255)" />
<rect x="200.0" y="225.0" width="25.0" height="25.0" fill="rgb(0,0,0)" />
<rect x="200.0" y="250.0" width="25.0" height="25.0" fill="rgb(255,255,255)" />
<rect x="200.0" y="275.0" width="25.0" height="25.0" fill="rgb(0,0,0)" />
<rect x="200.0" y="300.0" width="25.0" height="25.0" fill="rgb(255,255,255)" />
<rect x="200.0" y="325.0" width="25.0" height="25.0" fill="rgb(0,0,0)" />
<rect x="200.0" y="350.0" width="25.0" height="25.0" fill="rgb(255,255,255)" />
<rect x="200.0" y="375.0" width="25.0" height="25.0" fill="rgb(0,0,0)" />
<rect x="200.0" y="400.0" width="25.0" height="25.0" fill="rgb(255,255,255)" />
<rect x="225.0" y="25.0" width="25.0" height="25.0" fill="rgb(255,255,255)" />
<rect x="225.0" y="50.0" width="25.0" height="25.0" fill="rgb(0,0,0)" />
<rect x="225.0" y="75.0" width="25.0" height="25.0" fill="rgb(255,255,255)" />
<rect x="225.0" y="100.0" width="25.0" height="25.0" fill="rgb(0,0,0)" />
<rect x="225.0" y="125.0" width="25.0" height="25.0" fill="rgb(255,255,255)" />
<rect x="225.0" y="150.0" width="25.0" height="25.0" fill="rgb(0,0,0)" />
<rect x="225.0" y="175.0" width="25.0" height="25.0" fill="rgb(255,255,255)" />
<rect x="225.0" y="200.0" width="25.0" height="25.0" fill="rgb(0,0,0)" />
<rect x="225.0" y="225.0" width="25.0" height="25.0" fill="rgb(255,255,255)" />
<rect x="225.0" y="250.0" width="25.0" height="25.0" fill="rgb(0,0,0)" />
<rect x="225.0" y="275.0" width="25.0" height="25.0" fill="rgb(255,255,255)" />
<rect x="225.0" y="300.0" width="25.0" height="25.0" fill="rgb(0,0,0)" />
<rect x="225.0" y="325.0" width="25.0" height="25.0" fill="rgb(255,255,255)" />
<rect x="225.0" y="350.0" width="25.0" height="25.0" fill="rgb(0,0,0)" />
<rect x="225.0" y="375.0" width="25.0" height="25.0" fill="rgb(255,255,255)" />
<rect x="225.0" y="400.0" width="25.0" height="25.0" fill="rgb(0,0,0)" />
<rect x="250.0" y="25.0" width="25.0" height="25.0" fill="rgb(0,0,0)" />
<rect x="250.0" y="50.0" width="25.0" height="25.0" fill="rgb(255,255,255)" />
<rect x="250.0" y="75.0" width="25.0" height="25.0" fill="rgb(0,0,0)" />
<rect x="250.0" y="100.0" width="25.0" height="25.0" fill="rgb(255,255,255)" />
<rect x="250.0" y="125.0" width="25.0" height="25.0" fill="rgb(0,0,0)" />
<rect x="250.0" y="150.0" width="25.0" height="25.0" fill="rgb(255,255,255)" />
<rect x="250.0" y="175.0" width="25.0" height="25.0" fill="rgb(0,0,0)" />
<rect x="250.0" y="200.0" width="25.0" height="25.0" fill="rgb(255,255,255)" />
<rect x="250.0" y="225.0" width="25.0" height="25.0" fill="rgb(0,0,0)" />
<rect x="250.0" y="250.0" width="25.0" height="25.0" fill="rgb(255,255,255)" />
<rect x="250.0" y="275.0" width="25.0" height="25.0" fill="rgb(0,0,0)" />
<rect x="250.0" y="300.0" width="25.0" height="25.0" fill="rgb(255,255,255)" />
<rect x="250.0" y="325.0" width="25.0" height="25.0" fill="rgb(0,0,0)" />
<rect x="250.0" y="350.0" width="25.0" height="25.0" fill="rgb(255,255,255)" />
<rect x="250.0" y="375.0" width="25.0" height="25.0" fill="rgb(0,0,0)" />
<rect x="250.0" y="400.0" width="25.0" height="25.0" fill="rgb(255,255,255)" />
<rect x="275.0" y="25.0" width="25.0" height="25.0" fill="rgb(255,255,255)" />
<rect x="275.0" y="50.0" width="25.0" height="25.0" fill="rgb(0,0,0)" />
<rect x="275.0" y="75.0" width="25.0" height="25.0" fill="rgb(255,255,255)" />
<rect x="275.0" y="100.0" width="25.0" height="25.0" fill="rgb(0,0,0)" />
<rect x="275.0" y="125.0" width="25.0" height="25.0" fill="rgb(255,255,255)" />
<rect x="275.0" y="150.0" width="25.0" height="25.0" fill="rgb(0,0,0)" />
<rect x="275.0" y="175.0" width="25.0" height="25.0" fill="rgb(255,255,255)" />
<rect x="275.0" y="200.0" width="25.0" height="25.0" fill="rgb(0,0,0)" />
<rect x="275.0" y="225.0" width="25.0" height="25.0" fill="rgb(255,255,255)" />
<rect x="275.0" y="250.0" width="25.0" height="25.0" fill="rgb(0,0,0)" />
<rect x="275.0" y="275.0" width="25.0" height="25.0" fill="rgb(255,255,255)" />
<rect x="275.0" y="300.0" width="25.0" height="25.0" fill="rgb(0,0,0)" />
<rect x="275.0" y="325.0" width="25.0" height="25.0" fill="rgb(255,255,255)" />
<rect x="275.0" y="350.0" width="25.0" height="25.0" fill="rgb(0,0,0)" />
<rect x="275.0" y="375.0" width="25.0" height="25.0" fill="rgb(255,255,255)" />
<rect x="275.0" y="400.0" width="25.0" height="25.0" fill="rgb(0,0,0)" />
<rect x="300.0" y="25.0" width="25.0" height="25.0" fill="rgb(0,0,0)" />
<rect x="300.0" y="50.0" width="25.0" height="25.0" fill="rgb(255,255,255)" />
<rect x="300.0" y="75.0" width="25.0" height="25.0" fill="rgb(0,0,0)" />
<rect x="300.0" y="100.0" width="25.0" height="25.0" fill="rgb(255,255,255)" />
<rect x="300.0" y="125.0" width="25.0" height="25.0" fill="rgb(0,0,0)" />
<rect x="300.0" y="150.0" width="25.0" height="25.0" fill="rgb(255,255,255)" />
<rect x="300.0" y="175.0" width="25.0" height="25.0" fill="rgb(0,0,0)" />
<rect x="300.0" y="200.0" width="25.0" height="25.0" fill="rgb(255,255,255)" />
<rect x="300.0" y="225.0" width="25.0" height="25.0" fill="rgb(0,0,0)" />
<rect x="300.0" y="250.0" width="25.0" height="25.0" fill="rgb(255,255,255)" />
<rect x="300.0" y="275.0" width="25.0" height="25.0" fill="rgb(0,0,0)" />
<rect x="300.0" y="300.0" width="25.0" height="25.0" fill="rgb(255,255,255)" />
<rect x="300.0" y="325.0" width="25.0" height="25.0" fill="rgb(0,0,0)" />
<rect x="300.0" y="350.0" width="25.0" height="25.0" fill="rgb(255,255,255)" />
<rect x="300.0" y="375.0" width="25.0" height="25.0" fill="rgb(0,0,0)" />
<rect x="300.0" y="400.0" width="25.0" height="25.0" fill="rgb(255,255,255)" />
<rect x="325.0" y="25.0" width="25.0" height="25.0" fill="rgb(255,255,255)" />
<rect x="325.0" y="50.0" width="25.0" height="25.0" fill="rgb(0,0,0)" />
<rect x="325.0" y="75.0" width="25.0" height="25.0" fill="rgb(255,255,255)" />
<rect x="325.0" y="100.0" width="25.0" height="25.0" fill="rgb(0,0,0)" />
<rect x="325.0" y="125.0" width="25.0" height="25.0" fill="rgb(255,255,255)" />
<rect x="325.0" y="150.0" width="25.0" height="25.0" fill="rgb(0,0,0)" />
<rect x="325.0" y="175.0" width="25.0" height="25.0" fill="rgb(255,255,255)" />
<rect x="325.0" y="200.0" width="25.0" height="25.0" fill="rgb(0,0,0)" />
<rect x="325.0" y="225.0" width="25.0" height="25.0" fill="rgb(255,255,255)" />
<rect x="325.0" y="250.0" width="25.0" height="25.0" fill="rgb(0,0,0)" />
<rect x="325.0" y="275.0" width="25.0" height="25.0" fill="rgb(255,255,255)" />
<rect x="325.0" y="300.0" width="25.0" height="25.0" fill="rgb(0,0,0)" />
<rect x="325.0" y="325.0" width="25.0" height="25.0" fill="rgb(255,255,255)" />
<rect x="325.0" y="350.0" width="25.0" height="25.0" fill="rgb(0,0,0)" />
<rect x="325.0" y="375.0" width="25.0" height="25.0" fill="rgb(255,255,255)" />
<rect x="325.0" y="400.0" width="25.0" height="25.0" fill="rgb(0,0,0)" />
<rect x="350.0" y="25.0" width="25.0" height="25.0" fill="rgb(0,0,0)" />
<rect x="350.0" y="50.0" width="25.0" height="25.0" fill="rgb(255,255,255)" />
<rect x="350.0" y="75.0" width="25.0" height="25.0" fill="rgb(0,0,0)" />
<rect x="350.0" y="100.0" width="25.0" height="25.0" fill="rgb(255,255,255)" />
<rect x="350.0" y="125.0" width="25.0" height="25.0" fill="rgb(0,0,0)" />
<rect x="350.0" y="150.0" width="25.0" height="25.0" fill="rgb(255,255,255)" />
<rect x="350.0" y="175.0" width="25.0" height="25.0" fill="rgb(0,0,0)" />
<rect x="350.0" y="200.0" width="25.0" height="25.0" fill="rgb(255,255,255)" />
<rect x="350.0" y="225.0" width="25.0" height="25.0" fill="rgb(0,0,0)" />
<rect x="350.0" y="250.0" width="25.0" height="25.0" fill="rgb(255,255,255)" />
<rect x="350.0" y="275.0" width="25.0" height="25.0" fill="rgb(0,0,0)" />
<rect x="350.0" y="300.0" width="25.0" height="25.0" fill="rgb(255,255,255)" />
<rect x="350.0" y="325.0" width="25.0" height="25.0" fill="rgb(0,0,0)" />
<rect x="350.0" y="350.0" width="25.0" height="25.0" fill="rgb(255,255,255)" />
<rect x="350.0" y="375.0" width="25.0" height="25.0" fill="rgb(0,0,0)" />
<rect x="350.0" y="400.0" width="25.0" height="25.0" fill="rgb(255,255,255)" />
<rect x="375.0" y="25.0" width="25.0" height="25.0" fill="rgb(255,255,255)" />
<rect x="375.0" y="50.0" width="25.0" height="25.0" fill="rgb(0,0,0)" />
<rect x="375.0" y="75.0" width="25.0" height="25.0" fill="rgb(255,255,255)" />
<rect x="375.0" y="100.0" width="25.0" height="25.0" fill="rgb(0,0,0)" />
<rect x="375.0" y="125.0" width="25.0" height="25.0" fill="rgb(255,255,255)" />
<rect x="375.0" y="150.0" width="25.0" height="25.0" fill="rgb(0,0,0)" />
<rect x="375.0" y="175.0" width="25.0" height="25.0" fill="rgb(255,255,255)" />
<rect x="375.0" y="200.0" width="25.0" height="25.0" fill="rgb(0,0,0)" />
<rect x="375.0" y="225.0" width="25.0" height="25.0" fill="rgb(255,255,255)" />
<rect x="375.0" y="250.0" width="25.0" height="25.0" fill="rgb(0,0,0)" />
<rect x="375.0" y="275.0" width="25.0" height="25.0" fill="rgb(255,255,255)" />
<rect x="375.0" y="300.0" width="25.0" height="25.0" fill="rgb(0,0,0)" />
<rect x="375.0" y="325.0" width="25.0" height="25.0" fill="rgb(255,255,255)" />
<rect x="375.0" y="350.0" width="25.0" height="25.0" fill="rgb(0,0,0)" />
<rect x="375.0" y="375.0" width="25.0" height="25.0" fill="rgb(255,255,255)" />
<rect x="375.0" y="400.0" width="25.0" height="25.0" fill="rgb(0,0,0)" />
<rect x="400.0" y="25.0" width="25.0" height="25.0" fill="rgb(0,0,0)" />
<rect x="400.0" y="50.0" width="25.0" height="25.0" fill="rgb(255,255,255)" />
<rect x="400.0" y="75.0" width="25.0" height="25.0" fill="rgb(0,0,0)" />
<rect x="400.0" y="100.0" width="25.0" height="25.0" fill="rgb(255,255,255)" />
<rect x="400.0" y="125.0" width="25.0" height="25.0" fill="rgb(0,0,0)" />
<rect x="400.0" y="150.0" width="25.0" height="25.0" fill="rgb(255,255,255)" />
<rect x="400.0" y="175.0" width="25.0" height="25.0" fill="rgb(0,0,0)" />
<rect x="400.0" y="200.0" width="25.0" height="25.0" fill="rgb(255,255,255)" />
<rect x="400.0" y="225.0" width="25.0" height="25.0" fill="rgb(0,0,0)" />
<rect x="400.0" y="250.0" width="25.0" height="25.0" fill="rgb(255,255,255)" />
<rect x="400.0" y="275.0" width="25.0" height="25.0" fill="rgb(0,0,0)" />
<rect x="400.0" y="300.0" width="25.0" height="25.0" fill="rgb(255,255,255)" />
<rect x="400.0" y="325.0" width="25.0" height="25.0" fill="rgb(0,0,0)" />
<rect x="400.0" y="350.0" width="25.0" height="25.0" fill="rgb(255,255,255)" />
<rect x="400.0" y="375.0" width="25.0" height="25.0" fill="rgb(0,0,0)" />
<rect x="400.0" y="400.0" width="25.0" height="25.0" fill="rgb(255,255,255)" />
<circle  cx="331.7770080048813" cy="337.0519089061384" r="7.99527056014462" fill="RED" />
<circle  cx="311.97866734876925" cy="338.3390322021538" r="8.612070717334658" fill="RED" />
<circle  cx="317.1011931681234" cy="315.8354505055549" r="8.680340084863344" fill="RED" />
<circle  cx="341.6899546161383" cy="314.33247431217796" r="8.255707475152855" fill="RED" />
</svg>
